<svg version="1.1" viewBox="0.0 0.0 600.0 371.0" fill="none" stroke="none" stroke-linecap="square" stroke-miterlimit="10" width="600" height="371" xmlns:xlink="http://www.w3.org/1999/xlink" xmlns="http://www.w3.org/2000/svg"><path fill="#ffffff" d="M0 0L600.0 0L600.0 371.0L0 371.0L0 0Z" fill-rule="nonzero"/><path stroke="#cccccc" stroke-width="1.0" stroke-linecap="butt" d="M177.5 25.5L177.5 283.5" fill-rule="nonzero"/><path stroke="#cccccc" stroke-width="1.0" stroke-linecap="butt" d="M281.5 25.5L281.5 283.5" fill-rule="nonzero"/><path stroke="#cccccc" stroke-width="1.0" stroke-linecap="butt" d="M384.5 25.5L384.5 283.5" fill-rule="nonzero"/><path stroke="#cccccc" stroke-width="1.0" stroke-linecap="butt" d="M488.5 25.5L488.5 283.5" fill-rule="nonzero"/><path stroke="#333333" stroke-width="1.0" stroke-linecap="butt" d="M94.5 283.5L581.5 283.5" fill-rule="nonzero"/><path stroke="#cccccc" stroke-width="1.0" stroke-linecap="butt" d="M94.5 197.5L581.5 197.5" fill-rule="nonzero"/><path stroke="#cccccc" stroke-width="1.0" stroke-linecap="butt" d="M94.5 111.5L581.5 111.5" fill-rule="nonzero"/><path stroke="#cccccc" stroke-width="1.0" stroke-linecap="butt" d="M94.5 25.5L581.5 25.5" fill-rule="nonzero"/><clipPath id="id_0"><path d="M94.55 25.55L581.45 25.55L581.45 283.45L94.55 283.45L94.55 25.55Z" clip-rule="nonzero"/></clipPath><path stroke="#4285f4" stroke-width="2.0" stroke-linecap="butt" clip-path="url(#id_0)" d="M94.55 48.4627L104.90958 137.23257L115.26915 172.37625L125.62872 197.29662L135.9883 210.89053L146.34787 219.80681L156.70744 228.87923L167.06702 234.2341L177.42659 239.58292L187.78616 242.81355L198.14575 246.23315L208.50533 249.29198L218.8649 251.97742L229.22447 255.08395L239.58405 256.01837L249.94362 256.96417L260.3032 257.70352L270.66278 258.2829L281.02234 260.37827L291.38193 261.14923L301.7415 262.26523L312.10107 263.64908L322.46063 264.0468L332.82022 265.1444L343.17978 266.50977L353.53937 267.0797L363.89893 267.7028L374.2585 268.30872L384.61807 268.65616L394.97766 269.12158L405.33722 268.91644L415.6968 270.06808L426.0564 270.27078L436.41595 270.33667L446.77554 270.45627L457.1351 271.25012L467.4947 271.61343L477.85425 272.0845L488.21384 272.2571L498.5734 272.448L508.93298 272.80423L519.29254 272.9528L529.6521 273.0924L540.0117 273.58893L550.3713 273.63055L560.73083 273.7122L571.09045 274.03082L581.45 274.23987" fill-rule="nonzero"/><path fill="#000000" fill-opacity="0.0" clip-path="url(#id_0)" d="M97.55 48.4627C97.55 50.119553 96.206856 51.4627 94.55 51.4627C92.89314 51.4627 91.55 50.119553 91.55 48.4627C91.55 46.805843 92.89314 45.4627 94.55 45.4627C96.206856 45.4627 97.55 46.805843 97.55 48.4627Z" fill-rule="nonzero"/><path fill="#000000" fill-opacity="0.0" clip-path="url(#id_0)" d="M107.90958 137.23257C107.90958 138.88942 106.56643 140.23257 104.90958 140.23257C103.25272 140.23257 101.90958 138.88942 101.90958 137.23257C101.90958 135.57571 103.25272 134.23257 104.90958 134.23257C106.56643 134.23257 107.90958 135.57571 107.90958 137.23257Z" fill-rule="nonzero"/><path fill="#000000" fill-opacity="0.0" clip-path="url(#id_0)" d="M118.26915 172.37625C118.26915 174.0331 116.926 175.37625 115.26915 175.37625C113.6123 175.37625 112.26915 174.0331 112.26915 172.37625C112.26915 170.71939 113.6123 169.37625 115.26915 169.37625C116.926 169.37625 118.26915 170.71939 118.26915 172.37625Z" fill-rule="nonzero"/><path fill="#000000" fill-opacity="0.0" clip-path="url(#id_0)" d="M128.62872 197.29662C128.62872 198.95348 127.285576 200.29662 125.62872 200.29662C123.97187 200.29662 122.62872 198.95348 122.62872 197.29662C122.62872 195.63976 123.97187 194.29662 125.62872 194.29662C127.285576 194.29662 128.62872 195.63976 128.62872 197.29662Z" fill-rule="nonzero"/><path fill="#000000" fill-opacity="0.0" clip-path="url(#id_0)" d="M138.9883 210.89053C138.9883 212.5474 137.64516 213.89053 135.9883 213.89053C134.33144 213.89053 132.9883 212.5474 132.9883 210.89053C132.9883 209.23369 134.33144 207.89053 135.9883 207.89053C137.64516 207.89053 138.9883 209.23369 138.9883 210.89053Z" fill-rule="nonzero"/><path fill="#000000" fill-opacity="0.0" clip-path="url(#id_0)" d="M149.34787 219.80681C149.34787 221.46367 148.00473 222.80681 146.34787 222.80681C144.69102 222.80681 143.34787 221.46367 143.34787 219.80681C143.34787 218.14996 144.69102 216.80681 146.34787 216.80681C148.00473 216.80681 149.34787 218.14996 149.34787 219.80681Z" fill-rule="nonzero"/><path fill="#000000" fill-opacity="0.0" clip-path="url(#id_0)" d="M159.70744 228.87923C159.70744 230.53607 158.3643 231.87923 156.70744 231.87923C155.0506 231.87923 153.70744 230.53607 153.70744 228.87923C153.70744 227.22237 155.0506 225.87923 156.70744 225.87923C158.3643 225.87923 159.70744 227.22237 159.70744 228.87923Z" fill-rule="nonzero"/><path fill="#000000" fill-opacity="0.0" clip-path="url(#id_0)" d="M170.06702 234.2341C170.06702 235.89096 168.72388 237.2341 167.06702 237.2341C165.41017 237.2341 164.06702 235.89096 164.06702 234.2341C164.06702 232.57726 165.41017 231.2341 167.06702 231.2341C168.72388 231.2341 170.06702 232.57726 170.06702 234.2341Z" fill-rule="nonzero"/><path fill="#000000" fill-opacity="0.0" clip-path="url(#id_0)" d="M180.42659 239.58292C180.42659 241.23978 179.08345 242.58292 177.42659 242.58292C175.76974 242.58292 174.42659 241.23978 174.42659 239.58292C174.42659 237.92607 175.76974 236.58292 177.42659 236.58292C179.08345 236.58292 180.42659 237.92607 180.42659 239.58292Z" fill-rule="nonzero"/><path fill="#000000" fill-opacity="0.0" clip-path="url(#id_0)" d="M190.78616 242.81355C190.78616 244.4704 189.44302 245.81355 187.78616 245.81355C186.12932 245.81355 184.78616 244.4704 184.78616 242.81355C184.78616 241.1567 186.12932 239.81355 187.78616 239.81355C189.44302 239.81355 190.78616 241.1567 190.78616 242.81355Z" fill-rule="nonzero"/><path fill="#000000" fill-opacity="0.0" clip-path="url(#id_0)" d="M201.14575 246.23315C201.14575 247.89 199.8026 249.23315 198.14575 249.23315C196.48889 249.23315 195.14575 247.89 195.14575 246.23315C195.14575 244.5763 196.48889 243.23315 198.14575 243.23315C199.8026 243.23315 201.14575 244.5763 201.14575 246.23315Z" fill-rule="nonzero"/><path fill="#000000" fill-opacity="0.0" clip-path="url(#id_0)" d="M211.50533 249.29198C211.50533 250.94884 210.16217 252.29198 208.50533 252.29198C206.84846 252.29198 205.50533 250.94884 205.50533 249.29198C205.50533 247.63513 206.84846 246.29198 208.50533 246.29198C210.16217 246.29198 211.50533 247.63513 211.50533 249.29198Z" fill-rule="nonzero"/><path fill="#000000" fill-opacity="0.0" clip-path="url(#id_0)" d="M221.8649 251.97742C221.8649 253.63426 220.52174 254.97742 218.8649 254.97742C217.20804 254.97742 215.8649 253.63426 215.8649 251.97742C215.8649 250.32056 217.20804 248.97742 218.8649 248.97742C220.52174 248.97742 221.8649 250.32056 221.8649 251.97742Z" fill-rule="nonzero"/><path fill="#000000" fill-opacity="0.0" clip-path="url(#id_0)" d="M232.22447 255.08395C232.22447 256.7408 230.88132 258.08395 229.22447 258.08395C227.56761 258.08395 226.22447 256.7408 226.22447 255.08395C226.22447 253.42711 227.56761 252.08395 229.22447 252.08395C230.88132 252.08395 232.22447 253.42711 232.22447 255.08395Z" fill-rule="nonzero"/><path fill="#000000" fill-opacity="0.0" clip-path="url(#id_0)" d="M242.58405 256.01837C242.58405 257.67523 241.24089 259.01837 239.58405 259.01837C237.92719 259.01837 236.58405 257.67523 236.58405 256.01837C236.58405 254.36151 237.92719 253.01837 239.58405 253.01837C241.24089 253.01837 242.58405 254.36151 242.58405 256.01837Z" fill-rule="nonzero"/><path fill="#000000" fill-opacity="0.0" clip-path="url(#id_0)" d="M252.94362 256.96417C252.94362 258.62103 251.60046 259.96417 249.94362 259.96417C248.28676 259.96417 246.94362 258.62103 246.94362 256.96417C246.94362 255.30733 248.28676 253.96419 249.94362 253.96419C251.60046 253.96419 252.94362 255.30733 252.94362 256.96417Z" fill-rule="nonzero"/><path fill="#000000" fill-opacity="0.0" clip-path="url(#id_0)" d="M263.3032 257.70352C263.3032 259.36038 261.96005 260.70352 260.3032 260.70352C258.64633 260.70352 257.3032 259.36038 257.3032 257.70352C257.3032 256.04666 258.64633 254.70352 260.3032 254.70352C261.96005 254.70352 263.3032 256.04666 263.3032 257.70352Z" fill-rule="nonzero"/><path fill="#000000" fill-opacity="0.0" clip-path="url(#id_0)" d="M273.66278 258.2829C273.66278 259.93976 272.3196 261.2829 270.66278 261.2829C269.00592 261.2829 267.66278 259.93976 267.66278 258.2829C267.66278 256.62604 269.00592 255.2829 270.66278 255.2829C272.3196 255.2829 273.66278 256.62604 273.66278 258.2829Z" fill-rule="nonzero"/><path fill="#000000" fill-opacity="0.0" clip-path="url(#id_0)" d="M284.02234 260.37827C284.02234 262.0351 282.6792 263.37827 281.02234 263.37827C279.36548 263.37827 278.02234 262.0351 278.02234 260.37827C278.02234 258.7214 279.36548 257.37827 281.02234 257.37827C282.6792 257.37827 284.02234 258.7214 284.02234 260.37827Z" fill-rule="nonzero"/><path fill="#000000" fill-opacity="0.0" clip-path="url(#id_0)" d="M294.38193 261.14923C294.38193 262.8061 293.03876 264.14923 291.38193 264.14923C289.72507 264.14923 288.38193 262.8061 288.38193 261.14923C288.38193 259.49237 289.72507 258.14923 291.38193 258.14923C293.03876 258.14923 294.38193 259.49237 294.38193 261.14923Z" fill-rule="nonzero"/><path fill="#000000" fill-opacity="0.0" clip-path="url(#id_0)" d="M304.7415 262.26523C304.7415 263.9221 303.39835 265.26523 301.7415 265.26523C300.08463 265.26523 298.7415 263.9221 298.7415 262.26523C298.7415 260.6084 300.08463 259.26523 301.7415 259.26523C303.39835 259.26523 304.7415 260.6084 304.7415 262.26523Z" fill-rule="nonzero"/><path fill="#000000" fill-opacity="0.0" clip-path="url(#id_0)" d="M315.10107 263.64908C315.10107 265.30594 313.7579 266.64908 312.10107 266.64908C310.4442 266.64908 309.10107 265.30594 309.10107 263.64908C309.10107 261.99225 310.4442 260.64908 312.10107 260.64908C313.7579 260.64908 315.10107 261.99225 315.10107 263.64908Z" fill-rule="nonzero"/><path fill="#000000" fill-opacity="0.0" clip-path="url(#id_0)" d="M325.46063 264.0468C325.46063 265.70364 324.1175 267.0468 322.46063 267.0468C320.80377 267.0468 319.46063 265.70364 319.46063 264.0468C319.46063 262.38995 320.80377 261.0468 322.46063 261.0468C324.1175 261.0468 325.46063 262.38995 325.46063 264.0468Z" fill-rule="nonzero"/><path fill="#000000" fill-opacity="0.0" clip-path="url(#id_0)" d="M335.82022 265.1444C335.82022 266.80127 334.47708 268.1444 332.82022 268.1444C331.16336 268.1444 329.82022 266.80127 329.82022 265.1444C329.82022 263.48755 331.16336 262.1444 332.82022 262.1444C334.47708 262.1444 335.82022 263.48755 335.82022 265.1444Z" fill-rule="nonzero"/><path fill="#000000" fill-opacity="0.0" clip-path="url(#id_0)" d="M346.17978 266.50977C346.17978 268.16663 344.83664 269.50977 343.17978 269.50977C341.52292 269.50977 340.17978 268.16663 340.17978 266.50977C340.17978 264.8529 341.52292 263.50977 343.17978 263.50977C344.83664 263.50977 346.17978 264.8529 346.17978 266.50977Z" fill-rule="nonzero"/><path fill="#000000" fill-opacity="0.0" clip-path="url(#id_0)" d="M356.53937 267.0797C356.53937 268.73657 355.19623 270.0797 353.53937 270.0797C351.8825 270.0797 350.53937 268.73657 350.53937 267.0797C350.53937 265.42288 351.8825 264.0797 353.53937 264.0797C355.19623 264.0797 356.53937 265.42288 356.53937 267.0797Z" fill-rule="nonzero"/><path fill="#000000" fill-opacity="0.0" clip-path="url(#id_0)" d="M366.89893 267.7028C366.89893 269.35965 365.5558 270.7028 363.89893 270.7028C362.2421 270.7028 360.89893 269.35965 360.89893 267.7028C360.89893 266.04596 362.2421 264.7028 363.89893 264.7028C365.5558 264.7028 366.89893 266.04596 366.89893 267.7028Z" fill-rule="nonzero"/><path fill="#000000" fill-opacity="0.0" clip-path="url(#id_0)" d="M377.2585 268.30872C377.2585 269.96555 375.91537 271.30872 374.2585 271.30872C372.60165 271.30872 371.2585 269.96555 371.2585 268.30872C371.2585 266.65186 372.60165 265.30872 374.2585 265.30872C375.91537 265.30872 377.2585 266.65186 377.2585 268.30872Z" fill-rule="nonzero"/><path fill="#000000" fill-opacity="0.0" clip-path="url(#id_0)" d="M387.61807 268.65616C387.61807 270.31302 386.27493 271.65616 384.61807 271.65616C382.96124 271.65616 381.61807 270.31302 381.61807 268.65616C381.61807 266.9993 382.96124 265.65616 384.61807 265.65616C386.27493 265.65616 387.61807 266.9993 387.61807 268.65616Z" fill-rule="nonzero"/><path fill="#000000" fill-opacity="0.0" clip-path="url(#id_0)" d="M397.97766 269.12158C397.97766 270.77844 396.63452 272.12158 394.97766 272.12158C393.3208 272.12158 391.97766 270.77844 391.97766 269.12158C391.97766 267.46472 393.3208 266.12158 394.97766 266.12158C396.63452 266.12158 397.97766 267.46472 397.97766 269.12158Z" fill-rule="nonzero"/><path fill="#000000" fill-opacity="0.0" clip-path="url(#id_0)" d="M408.33722 268.91644C408.33722 270.5733 406.99408 271.91644 405.33722 271.91644C403.6804 271.91644 402.33722 270.5733 402.33722 268.91644C402.33722 267.2596 403.6804 265.91644 405.33722 265.91644C406.99408 265.91644 408.33722 267.2596 408.33722 268.91644Z" fill-rule="nonzero"/><path fill="#000000" fill-opacity="0.0" clip-path="url(#id_0)" d="M418.6968 270.06808C418.6968 271.72495 417.35367 273.06808 415.6968 273.06808C414.03995 273.06808 412.6968 271.72495 412.6968 270.06808C412.6968 268.41122 414.03995 267.06808 415.6968 267.06808C417.35367 267.06808 418.6968 268.41122 418.6968 270.06808Z" fill-rule="nonzero"/><path fill="#000000" fill-opacity="0.0" clip-path="url(#id_0)" d="M429.0564 270.27078C429.0564 271.92764 427.71323 273.27078 426.0564 273.27078C424.39954 273.27078 423.0564 271.92764 423.0564 270.27078C423.0564 268.61395 424.39954 267.27078 426.0564 267.27078C427.71323 267.27078 429.0564 268.61395 429.0564 270.27078Z" fill-rule="nonzero"/><path fill="#000000" fill-opacity="0.0" clip-path="url(#id_0)" d="M439.41595 270.33667C439.41595 271.99353 438.0728 273.33667 436.41595 273.33667C434.7591 273.33667 433.41595 271.99353 433.41595 270.33667C433.41595 268.6798 434.7591 267.33667 436.41595 267.33667C438.0728 267.33667 439.41595 268.6798 439.41595 270.33667Z" fill-rule="nonzero"/><path fill="#000000" fill-opacity="0.0" clip-path="url(#id_0)" d="M449.77554 270.45627C449.77554 272.11313 448.43237 273.45627 446.77554 273.45627C445.11868 273.45627 443.77554 272.11313 443.77554 270.45627C443.77554 268.79944 445.11868 267.45627 446.77554 267.45627C448.43237 267.45627 449.77554 268.79944 449.77554 270.45627Z" fill-rule="nonzero"/><path fill="#000000" fill-opacity="0.0" clip-path="url(#id_0)" d="M460.1351 271.25012C460.1351 272.90698 458.79196 274.25012 457.1351 274.25012C455.47824 274.25012 454.1351 272.90698 454.1351 271.25012C454.1351 269.5933 455.47824 268.25012 457.1351 268.25012C458.79196 268.25012 460.1351 269.5933 460.1351 271.25012Z" fill-rule="nonzero"/><path fill="#000000" fill-opacity="0.0" clip-path="url(#id_0)" d="M470.4947 271.61343C470.4947 273.2703 469.15155 274.61343 467.4947 274.61343C465.83783 274.61343 464.4947 273.2703 464.4947 271.61343C464.4947 269.9566 465.83783 268.61343 467.4947 268.61343C469.15155 268.61343 470.4947 269.9566 470.4947 271.61343Z" fill-rule="nonzero"/><path fill="#000000" fill-opacity="0.0" clip-path="url(#id_0)" d="M480.85425 272.0845C480.85425 273.74133 479.5111 275.0845 477.85425 275.0845C476.1974 275.0845 474.85425 273.74133 474.85425 272.0845C474.85425 270.42764 476.1974 269.0845 477.85425 269.0845C479.5111 269.0845 480.85425 270.42764 480.85425 272.0845Z" fill-rule="nonzero"/><path fill="#000000" fill-opacity="0.0" clip-path="url(#id_0)" d="M491.21384 272.2571C491.21384 273.91397 489.8707 275.2571 488.21384 275.2571C486.55698 275.2571 485.21384 273.91397 485.21384 272.2571C485.21384 270.60025 486.55698 269.2571 488.21384 269.2571C489.8707 269.2571 491.21384 270.60025 491.21384 272.2571Z" fill-rule="nonzero"/><path fill="#000000" fill-opacity="0.0" clip-path="url(#id_0)" d="M501.5734 272.448C501.5734 274.10486 500.23026 275.448 498.5734 275.448C496.91656 275.448 495.5734 274.10486 495.5734 272.448C495.5734 270.79114 496.91656 269.448 498.5734 269.448C500.23026 269.448 501.5734 270.79114 501.5734 272.448Z" fill-rule="nonzero"/><path fill="#000000" fill-opacity="0.0" clip-path="url(#id_0)" d="M511.93298 272.80423C511.93298 274.4611 510.58984 275.80423 508.93298 275.80423C507.27612 275.80423 505.93298 274.4611 505.93298 272.80423C505.93298 271.14737 507.27612 269.80423 508.93298 269.80423C510.58984 269.80423 511.93298 271.14737 511.93298 272.80423Z" fill-rule="nonzero"/><path fill="#000000" fill-opacity="0.0" clip-path="url(#id_0)" d="M522.29254 272.9528C522.29254 274.60965 520.9494 275.9528 519.29254 275.9528C517.6357 275.9528 516.29254 274.60965 516.29254 272.9528C516.29254 271.29593 517.6357 269.9528 519.29254 269.9528C520.9494 269.9528 522.29254 271.29593 522.29254 272.9528Z" fill-rule="nonzero"/><path fill="#000000" fill-opacity="0.0" clip-path="url(#id_0)" d="M532.6521 273.0924C532.6521 274.74927 531.30896 276.0924 529.6521 276.0924C527.9953 276.0924 526.6521 274.74927 526.6521 273.0924C526.6521 271.43555 527.9953 270.0924 529.6521 270.0924C531.30896 270.0924 532.6521 271.43555 532.6521 273.0924Z" fill-rule="nonzero"/><path fill="#000000" fill-opacity="0.0" clip-path="url(#id_0)" d="M543.0117 273.58893C543.0117 275.2458 541.6686 276.58893 540.0117 276.58893C538.35486 276.58893 537.0117 275.2458 537.0117 273.58893C537.0117 271.9321 538.35486 270.58893 540.0117 270.58893C541.6686 270.58893 543.0117 271.9321 543.0117 273.58893Z" fill-rule="nonzero"/><path fill="#000000" fill-opacity="0.0" clip-path="url(#id_0)" d="M553.3713 273.63055C553.3713 275.2874 552.02814 276.63055 550.3713 276.63055C548.7144 276.63055 547.3713 275.2874 547.3713 273.63055C547.3713 271.9737 548.7144 270.63055 550.3713 270.63055C552.02814 270.63055 553.3713 271.9737 553.3713 273.63055Z" fill-rule="nonzero"/><path fill="#000000" fill-opacity="0.0" clip-path="url(#id_0)" d="M563.73083 273.7122C563.73083 275.36905 562.3877 276.7122 560.73083 276.7122C559.074 276.7122 557.73083 275.36905 557.73083 273.7122C557.73083 272.05536 559.074 270.7122 560.73083 270.7122C562.3877 270.7122 563.73083 272.05536 563.73083 273.7122Z" fill-rule="nonzero"/><path fill="#000000" fill-opacity="0.0" clip-path="url(#id_0)" d="M574.09045 274.03082C574.09045 275.68768 572.74725 277.03082 571.09045 277.03082C569.4336 277.03082 568.09045 275.68768 568.09045 274.03082C568.09045 272.374 569.4336 271.03082 571.09045 271.03082C572.74725 271.03082 574.09045 272.374 574.09045 274.03082Z" fill-rule="nonzero"/><path fill="#000000" fill-opacity="0.0" clip-path="url(#id_0)" d="M584.45 274.23987C584.45 275.8967 583.1069 277.23987 581.45 277.23987C579.79315 277.23987 578.45 275.8967 578.45 274.23987C578.45 272.583 579.79315 271.23987 581.45 271.23987C583.1069 271.23987 584.45 272.583 584.45 274.23987Z" fill-rule="nonzero"/><path fill="#000000" d="M244.32812 347.45L242.625 347.45L236.1875 337.59064L236.1875 347.45L234.48438 347.45L234.48438 334.65314L236.1875 334.65314L242.64062 344.5594L242.64062 334.65314L244.32812 334.65314L244.32812 347.45ZM253.10938 346.5125Q252.15625 347.6219 250.3125 347.6219Q248.79688 347.6219 248.0 346.7469Q247.20312 345.85626 247.20312 344.1219L247.20312 337.9344L248.82812 337.9344L248.82812 344.09064Q248.82812 346.2469 250.57812 346.2469Q252.4375 346.2469 253.0625 344.85626L253.0625 337.9344L254.6875 337.9344L254.6875 347.45L253.14062 347.45L253.10938 346.5125ZM258.76562 337.9344L258.79688 338.9969Q259.84375 337.7625 261.625 337.7625Q263.625 337.7625 264.34375 339.29376Q264.8125 338.60626 265.57812 338.1844Q266.34375 337.7625 267.375 337.7625Q270.5 337.7625 270.5625 341.075L270.5625 347.45L268.92188 347.45L268.92188 341.16876Q268.92188 340.15314 268.45312 339.65314Q268.0 339.1375 266.90625 339.1375Q266.0 339.1375 265.39062 339.6844Q264.79688 340.23126 264.70312 341.1375L264.70312 347.45L263.0625 347.45L263.0625 341.21564Q263.0625 339.1375 261.03125 339.1375Q259.4375 339.1375 258.84375 340.5125L258.84375 347.45L257.21875 347.45L257.21875 337.9344L258.76562 337.9344ZM281.28125 342.79376Q281.28125 344.98126 280.28125 346.3094Q279.28125 347.6219 277.59375 347.6219Q275.78125 347.6219 274.79688 346.35626L274.71875 347.45L273.23438 347.45L273.23438 333.95L274.85938 333.95L274.85938 338.98126Q275.84375 337.7625 277.5625 337.7625Q279.29688 337.7625 280.28125 339.075Q281.28125 340.3875 281.28125 342.65314L281.28125 342.79376ZM279.65625 342.6219Q279.65625 340.95 279.01562 340.04376Q278.375 339.1375 277.17188 339.1375Q275.5625 339.1375 274.85938 340.6375L274.85938 344.7469Q275.60938 346.2469 277.1875 346.2469Q278.35938 346.2469 279.0 345.34064Q279.65625 344.4344 279.65625 342.6219ZM287.17188 347.6219Q285.25 347.6219 284.03125 346.35626Q282.8125 345.09064 282.8125 342.96564L282.8125 342.65314Q282.8125 341.2469 283.35938 340.1375Q283.90625 339.02814 284.875 338.40314Q285.84375 337.7625 286.96875 337.7625Q288.82812 337.7625 289.85938 338.98126Q290.89062 340.2 290.89062 342.48126L290.89062 343.15314L284.4375 343.15314Q284.48438 344.5594 285.26562 345.4344Q286.04688 346.29376 287.26562 346.29376Q288.125 346.29376 288.71875 345.95Q289.32812 345.59064 289.76562 345.0125L290.76562 345.79376Q289.5625 347.6219 287.17188 347.6219ZM286.96875 339.10626Q285.98438 339.10626 285.3125 339.825Q284.65625 340.52814 284.5 341.825L289.26562 341.825L289.26562 341.7Q289.1875 340.46564 288.59375 339.79376Q288.0 339.10626 286.96875 339.10626ZM297.82812 339.40314Q297.45312 339.34064 297.03125 339.34064Q295.42188 339.34064 294.85938 340.7L294.85938 347.45L293.23438 347.45L293.23438 337.9344L294.8125 337.9344L294.84375 339.04376Q295.64062 337.7625 297.10938 337.7625Q297.57812 337.7625 297.82812 337.8875L297.82812 339.40314ZM302.79688 342.60626Q302.79688 341.21564 303.34375 340.10626Q303.90625 338.98126 304.875 338.3719Q305.85938 337.7625 307.10938 337.7625Q309.0625 337.7625 310.25 339.10626Q311.45312 340.45 311.45312 342.6844L311.45312 342.79376Q311.45312 344.1844 310.92188 345.29376Q310.39062 346.3875 309.40625 347.0125Q308.42188 347.6219 307.14062 347.6219Q305.20312 347.6219 304.0 346.27814Q302.79688 344.9344 302.79688 342.71564L302.79688 342.60626ZM304.4375 342.79376Q304.4375 344.3875 305.17188 345.34064Q305.90625 346.29376 307.14062 346.29376Q308.375 346.29376 309.09375 345.325Q309.82812 344.35626 309.82812 342.60626Q309.82812 341.04376 309.07812 340.075Q308.34375 339.10626 307.10938 339.10626Q305.90625 339.10626 305.17188 340.0594Q304.4375 341.0125 304.4375 342.79376ZM314.03125 347.45L314.03125 339.2L312.53125 339.2L312.53125 337.9344L314.03125 337.9344L314.03125 336.96564Q314.03125 335.4344 314.84375 334.60626Q315.67188 333.7625 317.15625 333.7625Q317.71875 333.7625 318.28125 333.91876L318.1875 335.23126Q317.78125 335.15314 317.3125 335.15314Q316.51562 335.15314 316.07812 335.6219Q315.65625 336.075 315.65625 336.9344L315.65625 337.9344L317.6875 337.9344L317.6875 339.2L315.65625 339.2L315.65625 347.45L314.03125 347.45ZM324.85938 339.09064Q325.9375 337.7625 327.67188 337.7625Q330.6875 337.7625 330.70312 341.16876L330.70312 347.45L329.07812 347.45L329.07812 341.15314Q329.07812 340.1219 328.60938 339.6375Q328.15625 339.1375 327.17188 339.1375Q326.39062 339.1375 325.78125 339.5594Q325.1875 339.98126 324.85938 340.66876L324.85938 347.45L323.23438 347.45L323.23438 333.95L324.85938 333.95L324.85938 339.09064ZM339.10938 347.45Q338.96875 347.16876 338.875 346.45Q337.73438 347.6219 336.17188 347.6219Q334.76562 347.6219 333.85938 346.825Q332.95312 346.02814 332.95312 344.8094Q332.95312 343.325 334.07812 342.5125Q335.21875 341.6844 337.26562 341.6844L338.84375 341.6844L338.84375 340.9344Q338.84375 340.09064 338.32812 339.59064Q337.82812 339.075 336.82812 339.075Q335.96875 339.075 335.375 339.5125Q334.78125 339.95 334.78125 340.575L333.15625 340.575Q333.15625 339.8719 333.65625 339.21564Q334.15625 338.54376 335.01562 338.15314Q335.89062 337.7625 336.9375 337.7625Q338.57812 337.7625 339.5 338.59064Q340.4375 339.40314 340.46875 340.85626L340.46875 345.23126Q340.46875 346.52814 340.8125 347.3094L340.8125 347.45L339.10938 347.45ZM336.40625 346.21564Q337.17188 346.21564 337.85938 345.825Q338.54688 345.41876 338.84375 344.79376L338.84375 342.84064L337.57812 342.84064Q334.57812 342.84064 334.57812 344.59064Q334.57812 345.35626 335.09375 345.79376Q335.60938 346.21564 336.40625 346.21564ZM348.76562 344.9344Q348.76562 344.2625 348.26562 343.90314Q347.78125 343.54376 346.54688 343.27814Q345.3125 343.0125 344.57812 342.65314Q343.85938 342.27814 343.5 341.7625Q343.15625 341.2469 343.15625 340.54376Q343.15625 339.3875 344.14062 338.575Q345.14062 337.7625 346.67188 337.7625Q348.29688 337.7625 349.29688 338.60626Q350.3125 339.4344 350.3125 340.73126L348.67188 340.73126Q348.67188 340.0594 348.09375 339.59064Q347.53125 339.10626 346.67188 339.10626Q345.78125 339.10626 345.28125 339.4969Q344.78125 339.8719 344.78125 340.4969Q344.78125 341.09064 345.25 341.3875Q345.71875 341.6844 346.9375 341.96564Q348.15625 342.23126 348.90625 342.60626Q349.67188 342.98126 350.03125 343.5125Q350.39062 344.04376 350.39062 344.8094Q350.39062 346.09064 349.375 346.85626Q348.35938 347.6219 346.73438 347.6219Q345.59375 347.6219 344.70312 347.21564Q343.82812 346.8094 343.32812 346.09064Q342.82812 345.3719 342.82812 344.52814L344.46875 344.52814Q344.5 345.34064 345.10938 345.825Q345.73438 346.29376 346.73438 346.29376Q347.65625 346.29376 348.20312 345.91876Q348.76562 345.54376 348.76562 344.9344ZM353.85938 339.09064Q354.9375 337.7625 356.67188 337.7625Q359.6875 337.7625 359.70312 341.16876L359.70312 347.45L358.07812 347.45L358.07812 341.15314Q358.07812 340.1219 357.60938 339.6375Q357.15625 339.1375 356.17188 339.1375Q355.39062 339.1375 354.78125 339.5594Q354.1875 339.98126 353.85938 340.66876L353.85938 347.45L352.23438 347.45L352.23438 333.95L353.85938 333.95L353.85938 339.09064ZM369.375 345.2469L371.71875 337.9344L373.39062 337.9344L369.96875 347.45L368.73438 347.45L365.29688 337.9344L366.95312 337.9344L369.375 345.2469ZM381.10938 347.45Q380.96875 347.16876 380.875 346.45Q379.73438 347.6219 378.17188 347.6219Q376.76562 347.6219 375.85938 346.825Q374.95312 346.02814 374.95312 344.8094Q374.95312 343.325 376.07812 342.5125Q377.21875 341.6844 379.26562 341.6844L380.84375 341.6844L380.84375 340.9344Q380.84375 340.09064 380.32812 339.59064Q379.82812 339.075 378.82812 339.075Q377.96875 339.075 377.375 339.5125Q376.78125 339.95 376.78125 340.575L375.15625 340.575Q375.15625 339.8719 375.65625 339.21564Q376.15625 338.54376 377.01562 338.15314Q377.89062 337.7625 378.9375 337.7625Q380.57812 337.7625 381.5 338.59064Q382.4375 339.40314 382.46875 340.85626L382.46875 345.23126Q382.46875 346.52814 382.8125 347.3094L382.8125 347.45L381.10938 347.45ZM378.40625 346.21564Q379.17188 346.21564 379.85938 345.825Q380.54688 345.41876 380.84375 344.79376L380.84375 342.84064L379.57812 342.84064Q376.57812 342.84064 376.57812 344.59064Q376.57812 345.35626 377.09375 345.79376Q377.60938 346.21564 378.40625 346.21564ZM387.0 347.45L385.375 347.45L385.375 333.95L387.0 333.95L387.0 347.45ZM395.10938 346.5125Q394.15625 347.6219 392.3125 347.6219Q390.79688 347.6219 390.0 346.7469Q389.20312 345.85626 389.20312 344.1219L389.20312 337.9344L390.82812 337.9344L390.82812 344.09064Q390.82812 346.2469 392.57812 346.2469Q394.4375 346.2469 395.0625 344.85626L395.0625 337.9344L396.6875 337.9344L396.6875 347.45L395.14062 347.45L395.10938 346.5125ZM403.17188 347.6219Q401.25 347.6219 400.03125 346.35626Q398.8125 345.09064 398.8125 342.96564L398.8125 342.65314Q398.8125 341.2469 399.35938 340.1375Q399.90625 339.02814 400.875 338.40314Q401.84375 337.7625 402.96875 337.7625Q404.82812 337.7625 405.85938 338.98126Q406.89062 340.2 406.89062 342.48126L406.89062 343.15314L400.4375 343.15314Q400.48438 344.5594 401.26562 345.4344Q402.04688 346.29376 403.26562 346.29376Q404.125 346.29376 404.71875 345.95Q405.32812 345.59064 405.76562 345.0125L406.76562 345.79376Q405.5625 347.6219 403.17188 347.6219ZM402.96875 339.10626Q401.98438 339.10626 401.3125 339.825Q400.65625 340.52814 400.5 341.825L405.26562 341.825L405.26562 341.7Q405.1875 340.46564 404.59375 339.79376Q404.0 339.10626 402.96875 339.10626ZM414.76562 344.9344Q414.76562 344.2625 414.26562 343.90314Q413.78125 343.54376 412.54688 343.27814Q411.3125 343.0125 410.57812 342.65314Q409.85938 342.27814 409.5 341.7625Q409.15625 341.2469 409.15625 340.54376Q409.15625 339.3875 410.14062 338.575Q411.14062 337.7625 412.67188 337.7625Q414.29688 337.7625 415.29688 338.60626Q416.3125 339.4344 416.3125 340.73126L414.67188 340.73126Q414.67188 340.0594 414.09375 339.59064Q413.53125 339.10626 412.67188 339.10626Q411.78125 339.10626 411.28125 339.4969Q410.78125 339.8719 410.78125 340.4969Q410.78125 341.09064 411.25 341.3875Q411.71875 341.6844 412.9375 341.96564Q414.15625 342.23126 414.90625 342.60626Q415.67188 342.98126 416.03125 343.5125Q416.39062 344.04376 416.39062 344.8094Q416.39062 346.09064 415.375 346.85626Q414.35938 347.6219 412.73438 347.6219Q411.59375 347.6219 410.70312 347.21564Q409.82812 346.8094 409.32812 346.09064Q408.82812 345.3719 408.82812 344.52814L410.46875 344.52814Q410.5 345.34064 411.10938 345.825Q411.73438 346.29376 412.73438 346.29376Q413.65625 346.29376 414.20312 345.91876Q414.76562 345.54376 414.76562 344.9344ZM422.17188 342.2625Q422.17188 340.2625 422.70312 338.4344Q423.23438 336.60626 424.28125 335.1219Q425.34375 333.6219 426.46875 333.0125L426.8125 334.075Q425.53125 335.0594 424.70312 337.09064Q423.89062 339.10626 423.79688 341.60626L423.79688 342.35626Q423.79688 345.7469 425.03125 348.2469Q425.78125 349.7469 426.8125 350.59064L426.46875 351.575Q425.3125 350.9344 424.25 349.40314Q422.17188 346.41876 422.17188 342.2625ZM429.76562 337.9344L429.82812 339.1375Q430.90625 337.7625 432.67188 337.7625Q435.6875 337.7625 435.70312 341.16876L435.70312 347.45L434.07812 347.45L434.07812 341.15314Q434.07812 340.1219 433.60938 339.6375Q433.15625 339.1375 432.17188 339.1375Q431.39062 339.1375 430.78125 339.5594Q430.1875 339.98126 429.85938 340.66876L429.85938 347.45L428.23438 347.45L428.23438 337.9344L429.76562 337.9344ZM441.98438 342.34064Q441.98438 344.3094 441.46875 346.10626Q440.95312 347.90314 439.89062 349.41876Q438.84375 350.9344 437.67188 351.575L437.32812 350.59064Q438.6875 349.54376 439.5 347.3719Q440.32812 345.1844 440.34375 342.5125L440.34375 342.23126Q440.34375 340.3875 439.95312 338.8094Q439.57812 337.21564 438.89062 335.96564Q438.20312 334.7 437.32812 333.9969L437.67188 333.0125Q438.84375 333.65314 439.89062 335.15314Q440.9375 336.65314 441.45312 338.46564Q441.98438 340.27814 441.98438 342.34064Z" fill-rule="nonzero"/><path fill="#000000" d="M35.55001 254.20312L35.55001 255.89062L22.753138 255.89062L22.753138 254.20312L35.55001 254.20312ZM26.034388 249.73438L27.237513 249.67188Q25.862513 248.59375 25.862513 246.82812Q25.862513 243.8125 29.268763 243.79688L35.55001 243.79688L35.55001 245.42188L29.253138 245.42188Q28.221888 245.42188 27.737513 245.89062Q27.237513 246.34375 27.237513 247.32812Q27.237513 248.10938 27.659388 248.71875Q28.081263 249.3125 28.768763 249.64062L35.55001 249.64062L35.55001 251.26562L26.034388 251.26562L26.034388 249.73438ZM33.034386 235.73438Q32.36251 235.73438 32.003136 236.23438Q31.643763 236.71875 31.378138 237.95312Q31.112513 239.1875 30.753138 239.92188Q30.378138 240.64062 29.862513 241.0Q29.346888 241.34375 28.643763 241.34375Q27.487513 241.34375 26.675013 240.35938Q25.862513 239.35938 25.862513 237.82812Q25.862513 236.20312 26.706263 235.20312Q27.534388 234.1875 28.831263 234.1875L28.831263 235.82812Q28.159388 235.82812 27.690638 236.40625Q27.206263 236.96875 27.206263 237.82812Q27.206263 238.71875 27.596888 239.21875Q27.971888 239.71875 28.596888 239.71875Q29.190638 239.71875 29.487513 239.25Q29.784388 238.78125 30.065638 237.5625Q30.331263 236.34375 30.706263 235.59375Q31.081263 234.82812 31.612513 234.46875Q32.14376 234.10938 32.909386 234.10938Q34.190636 234.10938 34.95626 235.125Q35.721886 236.14062 35.721886 237.76562Q35.721886 238.90625 35.315636 239.79688Q34.909386 240.67188 34.190636 241.17188Q33.471886 241.67188 32.628136 241.67188L32.628136 240.03125Q33.440636 240.0 33.92501 239.39062Q34.39376 238.76562 34.39376 237.76562Q34.39376 236.84375 34.01876 236.29688Q33.64376 235.73438 33.034386 235.73438ZM35.721886 228.32812Q35.721886 230.25 34.45626 231.46875Q33.190636 232.6875 31.065638 232.6875L30.753138 232.6875Q29.346888 232.6875 28.237513 232.14062Q27.128138 231.59375 26.503138 230.625Q25.862513 229.65625 25.862513 228.53125Q25.862513 226.67188 27.081263 225.64062Q28.300013 224.60938 30.581263 224.60938L31.253138 224.60938L31.253138 231.0625Q32.659386 231.01562 33.534386 230.23438Q34.39376 229.45312 34.39376 228.23438Q34.39376 227.375 34.05001 226.78125Q33.690636 226.17188 33.11251 225.73438L33.89376 224.73438Q35.721886 225.9375 35.721886 228.32812ZM27.206263 228.53125Q27.206263 229.51562 27.925013 230.1875Q28.628138 230.84375 29.925013 231.0L29.925013 226.23438L29.800013 226.23438Q28.565638 226.3125 27.893763 226.90625Q27.206263 227.5 27.206263 228.53125ZM27.503138 217.67188Q27.440638 218.04688 27.440638 218.46875Q27.440638 220.07812 28.800013 220.64062L35.55001 220.64062L35.55001 222.26562L26.034388 222.26562L26.034388 220.6875L27.143763 220.65625Q25.862513 219.85938 25.862513 218.39062Q25.862513 217.92188 25.987513 217.67188L27.503138 217.67188ZM23.737513 214.0625L26.034388 214.0625L26.034388 212.28125L27.300013 212.28125L27.300013 214.0625L33.190636 214.0625Q33.76876 214.0625 34.05001 213.82812Q34.33126 213.59375 34.33126 213.01562Q34.33126 212.73438 34.23751 212.25L35.55001 212.25Q35.721886 212.89062 35.721886 213.48438Q35.721886 214.57812 35.065636 215.14062Q34.409386 215.6875 33.190636 215.6875L27.300013 215.6875L27.300013 217.42188L26.034388 217.42188L26.034388 215.6875L23.737513 215.6875L23.737513 214.0625ZM35.55001 208.5L35.55001 210.125L26.034388 210.125L26.034388 208.5L35.55001 208.5ZM23.518763 210.26562Q23.128138 210.26562 22.862513 210.03125Q22.581263 209.78125 22.581263 209.3125Q22.581263 208.82812 22.862513 208.57812Q23.128138 208.32812 23.518763 208.32812Q23.909388 208.32812 24.175013 208.57812Q24.440638 208.82812 24.440638 209.3125Q24.440638 209.78125 24.175013 210.03125Q23.909388 210.26562 23.518763 210.26562ZM30.706263 206.70312Q29.315638 206.70312 28.206263 206.15625Q27.081263 205.59375 26.471888 204.625Q25.862513 203.64062 25.862513 202.39062Q25.862513 200.4375 27.206263 199.25Q28.550013 198.04688 30.784388 198.04688L30.893763 198.04688Q32.284386 198.04688 33.39376 198.57812Q34.48751 199.10938 35.11251 200.09375Q35.721886 201.07812 35.721886 202.35938Q35.721886 204.29688 34.378136 205.5Q33.034386 206.70312 30.815638 206.70312L30.706263 206.70312ZM30.893763 205.0625Q32.48751 205.0625 33.440636 204.32812Q34.39376 203.59375 34.39376 202.35938Q34.39376 201.125 33.42501 200.40625Q32.45626 199.67188 30.706263 199.67188Q29.143763 199.67188 28.175013 200.42188Q27.206263 201.15625 27.206263 202.39062Q27.206263 203.59375 28.159388 204.32812Q29.112513 205.0625 30.893763 205.0625ZM26.034388 194.73438L27.237513 194.67188Q25.862513 193.59375 25.862513 191.82812Q25.862513 188.8125 29.268763 188.79688L35.55001 188.79688L35.55001 190.42188L29.253138 190.42188Q28.221888 190.42188 27.737513 190.89062Q27.237513 191.34375 27.237513 192.32812Q27.237513 193.10938 27.659388 193.71875Q28.081263 194.3125 28.768763 194.64062L35.55001 194.64062L35.55001 196.26562L26.034388 196.26562L26.034388 194.73438ZM23.737513 180.0625L26.034388 180.0625L26.034388 178.28125L27.300013 178.28125L27.300013 180.0625L33.190636 180.0625Q33.76876 180.0625 34.05001 179.82812Q34.33126 179.59375 34.33126 179.01562Q34.33126 178.73438 34.23751 178.25L35.55001 178.25Q35.721886 178.89062 35.721886 179.48438Q35.721886 180.57812 35.065636 181.14062Q34.409386 181.6875 33.190636 181.6875L27.300013 181.6875L27.300013 183.42188L26.034388 183.42188L26.034388 181.6875L23.737513 181.6875L23.737513 180.0625ZM35.55001 174.5L35.55001 176.125L26.034388 176.125L26.034388 174.5L35.55001 174.5ZM23.518763 176.26562Q23.128138 176.26562 22.862513 176.03125Q22.581263 175.78125 22.581263 175.3125Q22.581263 174.82812 22.862513 174.57812Q23.128138 174.32812 23.518763 174.32812Q23.909388 174.32812 24.175013 174.57812Q24.440638 174.82812 24.440638 175.3125Q24.440638 175.78125 24.175013 176.03125Q23.909388 176.26562 23.518763 176.26562ZM26.034388 170.73438L27.096888 170.70312Q25.862513 169.65625 25.862513 167.875Q25.862513 165.875 27.393763 165.15625Q26.706263 164.6875 26.284388 163.92188Q25.862513 163.15625 25.862513 162.125Q25.862513 159.0 29.175013 158.9375L35.55001 158.9375L35.55001 160.57812L29.268763 160.57812Q28.253138 160.57812 27.753138 161.04688Q27.237513 161.5 27.237513 162.59375Q27.237513 163.5 27.784388 164.10938Q28.331263 164.70312 29.237513 164.79688L35.55001 164.79688L35.55001 166.4375L29.315638 166.4375Q27.237513 166.4375 27.237513 168.46875Q27.237513 170.0625 28.612513 170.65625L35.55001 170.65625L35.55001 172.28125L26.034388 172.28125L26.034388 170.73438ZM35.721886 152.32812Q35.721886 154.25 34.45626 155.46875Q33.190636 156.6875 31.065638 156.6875L30.753138 156.6875Q29.346888 156.6875 28.237513 156.14062Q27.128138 155.59375 26.503138 154.625Q25.862513 153.65625 25.862513 152.53125Q25.862513 150.67188 27.081263 149.64062Q28.300013 148.60938 30.581263 148.60938L31.253138 148.60938L31.253138 155.0625Q32.659386 155.01562 33.534386 154.23438Q34.39376 153.45312 34.39376 152.23438Q34.39376 151.375 34.05001 150.78125Q33.690636 150.17188 33.11251 149.73438L33.89376 148.73438Q35.721886 149.9375 35.721886 152.32812ZM27.206263 152.53125Q27.206263 153.51562 27.925013 154.1875Q28.628138 154.84375 29.925013 155.0L29.925013 150.23438L29.800013 150.23438Q28.565638 150.3125 27.893763 150.90625Q27.206263 151.5 27.206263 152.53125ZM30.362513 142.32812Q28.362513 142.32812 26.534388 141.79688Q24.706263 141.26562 23.221888 140.21875Q21.721888 139.15625 21.112513 138.03125L22.175013 137.6875Q23.159388 138.96875 25.190638 139.79688Q27.206263 140.60938 29.706263 140.70312L30.456263 140.70312Q33.846886 140.70312 36.346886 139.46875Q37.846886 138.71875 38.690636 137.6875L39.67501 138.03125Q39.034386 139.1875 37.503136 140.25Q34.51876 142.32812 30.362513 142.32812ZM33.034386 130.73438Q32.36251 130.73438 32.003136 131.23438Q31.643763 131.71875 31.378138 132.95312Q31.112513 134.1875 30.753138 134.92188Q30.378138 135.64062 29.862513 136.0Q29.346888 136.34375 28.643763 136.34375Q27.487513 136.34375 26.675013 135.35938Q25.862513 134.35938 25.862513 132.82812Q25.862513 131.20312 26.706263 130.20312Q27.534388 129.1875 28.831263 129.1875L28.831263 130.82812Q28.159388 130.82812 27.690638 131.40625Q27.206263 131.96875 27.206263 132.82812Q27.206263 133.71875 27.596888 134.21875Q27.971888 134.71875 28.596888 134.71875Q29.190638 134.71875 29.487513 134.25Q29.784388 133.78125 30.065638 132.5625Q30.331263 131.34375 30.706263 130.59375Q31.081263 129.82812 31.612513 129.46875Q32.14376 129.10938 32.909386 129.10938Q34.190636 129.10938 34.95626 130.125Q35.721886 131.14062 35.721886 132.76562Q35.721886 133.90625 35.315636 134.79688Q34.909386 135.67188 34.190636 136.17188Q33.471886 136.67188 32.628136 136.67188L32.628136 135.03125Q33.440636 135.0 33.92501 134.39062Q34.39376 133.76562 34.39376 132.76562Q34.39376 131.84375 34.01876 131.29688Q33.64376 130.73438 33.034386 130.73438ZM35.721886 123.328125Q35.721886 125.25 34.45626 126.46875Q33.190636 127.6875 31.065638 127.6875L30.753138 127.6875Q29.346888 127.6875 28.237513 127.140625Q27.128138 126.59375 26.503138 125.625Q25.862513 124.65625 25.862513 123.53125Q25.862513 121.671875 27.081263 120.640625Q28.300013 119.609375 30.581263 119.609375L31.253138 119.609375L31.253138 126.0625Q32.659386 126.015625 33.534386 125.234375Q34.39376 124.453125 34.39376 123.234375Q34.39376 122.375 34.05001 121.78125Q33.690636 121.171875 33.11251 120.734375L33.89376 119.734375Q35.721886 120.9375 35.721886 123.328125ZM27.206263 123.53125Q27.206263 124.515625 27.925013 125.1875Q28.628138 125.84375 29.925013 126.0L29.925013 121.234375L29.800013 121.234375Q28.565638 121.3125 27.893763 121.90625Q27.206263 122.5 27.206263 123.53125ZM34.39376 113.453125Q34.39376 112.578125 33.878136 111.9375Q33.346886 111.28125 32.55001 111.21875L32.55001 109.671875Q33.36251 109.71875 34.11251 110.234375Q34.846886 110.75 35.284386 111.625Q35.721886 112.484375 35.721886 113.453125Q35.721886 115.390625 34.42501 116.546875Q33.128136 117.6875 30.878138 117.6875L30.612513 117.6875Q29.221888 117.6875 28.143763 117.1875Q27.065638 116.671875 26.471888 115.71875Q25.862513 114.765625 25.862513 113.46875Q25.862513 111.859375 26.831263 110.8125Q27.784388 109.75 29.315638 109.671875L29.315638 111.21875Q28.393763 111.28125 27.800013 111.921875Q27.206263 112.546875 27.206263 113.46875Q27.206263 114.703125 28.096888 115.390625Q28.987513 116.0625 30.675013 116.0625L30.971888 116.0625Q32.628136 116.0625 33.51876 115.390625Q34.39376 114.71875 34.39376 113.453125ZM30.706263 108.703125Q29.315638 108.703125 28.206263 108.15625Q27.081263 107.59375 26.471888 106.625Q25.862513 105.640625 25.862513 104.390625Q25.862513 102.4375 27.206263 101.25Q28.550013 100.046875 30.784388 100.046875L30.893763 100.046875Q32.284386 100.046875 33.39376 100.578125Q34.48751 101.109375 35.11251 102.09375Q35.721886 103.078125 35.721886 104.359375Q35.721886 106.296875 34.378136 107.5Q33.034386 108.703125 30.815638 108.703125L30.706263 108.703125ZM30.893763 107.0625Q32.48751 107.0625 33.440636 106.328125Q34.39376 105.59375 34.39376 104.359375Q34.39376 103.125 33.42501 102.40625Q32.45626 101.671875 30.706263 101.671875Q29.143763 101.671875 28.175013 102.421875Q27.206263 103.15625 27.206263 104.390625Q27.206263 105.59375 28.159388 106.328125Q29.112513 107.0625 30.893763 107.0625ZM26.034388 96.734375L27.237513 96.671875Q25.862513 95.59375 25.862513 93.828125Q25.862513 90.8125 29.268763 90.796875L35.55001 90.796875L35.55001 92.421875L29.253138 92.421875Q28.221888 92.421875 27.737513 92.890625Q27.237513 93.34375 27.237513 94.328125Q27.237513 95.109375 27.659388 95.71875Q28.081263 96.3125 28.768763 96.640625L35.55001 96.640625L35.55001 98.265625L26.034388 98.265625L26.034388 96.734375ZM30.721888 88.671875Q28.534388 88.671875 27.206263 87.640625Q25.862513 86.59375 25.862513 84.90625Q25.862513 83.234375 27.003138 82.265625L22.050013 82.265625L22.050013 80.640625L35.55001 80.640625L35.55001 82.140625L34.534386 82.21875Q35.721886 83.1875 35.721886 84.921875Q35.721886 86.578125 34.378136 87.625Q33.01876 88.671875 30.831263 88.671875L30.721888 88.671875ZM30.893763 87.03125Q32.51876 87.03125 33.440636 86.375Q34.346886 85.703125 34.346886 84.53125Q34.346886 82.984375 32.95626 82.265625L28.581263 82.265625Q27.237513 83.0 27.237513 84.5Q27.237513 85.703125 28.175013 86.375Q29.096888 87.03125 30.893763 87.03125ZM33.034386 72.734375Q32.36251 72.734375 32.003136 73.234375Q31.643763 73.71875 31.378138 74.953125Q31.112513 76.1875 30.753138 76.921875Q30.378138 77.640625 29.862513 78.0Q29.346888 78.34375 28.643763 78.34375Q27.487513 78.34375 26.675013 77.359375Q25.862513 76.359375 25.862513 74.828125Q25.862513 73.203125 26.706263 72.203125Q27.534388 71.1875 28.831263 71.1875L28.831263 72.828125Q28.159388 72.828125 27.690638 73.40625Q27.206263 73.96875 27.206263 74.828125Q27.206263 75.71875 27.596888 76.21875Q27.971888 76.71875 28.596888 76.71875Q29.190638 76.71875 29.487513 76.25Q29.784388 75.78125 30.065638 74.5625Q30.331263 73.34375 30.706263 72.59375Q31.081263 71.828125 31.612513 71.46875Q32.14376 71.109375 32.909386 71.109375Q34.190636 71.109375 34.95626 72.125Q35.721886 73.140625 35.721886 74.765625Q35.721886 75.90625 35.315636 76.796875Q34.909386 77.671875 34.190636 78.171875Q33.471886 78.671875 32.628136 78.671875L32.628136 77.03125Q33.440636 77.0 33.92501 76.390625Q34.39376 75.765625 34.39376 74.765625Q34.39376 73.84375 34.01876 73.296875Q33.64376 72.734375 33.034386 72.734375ZM30.440638 65.515625Q32.409386 65.515625 34.20626 66.03125Q36.003136 66.546875 37.51876 67.609375Q39.034386 68.65625 39.67501 69.828125L38.690636 70.171875Q37.64376 68.8125 35.471886 68.0Q33.284386 67.171875 30.612513 67.15625L30.331263 67.15625Q28.487513 67.15625 26.909388 67.546875Q25.315638 67.921875 24.065638 68.609375Q22.800013 69.296875 22.096888 70.171875L21.112513 69.828125Q21.753138 68.65625 23.253138 67.609375Q24.753138 66.5625 26.565638 66.046875Q28.378138 65.515625 30.440638 65.515625Z" fill-rule="nonzero"/><path fill="#000000" d="M72.05 283.21564Q72.05 281.6844 72.3625 280.7625Q72.675 279.825 73.28438 279.325Q73.90938 278.825 74.84688 278.825Q75.53438 278.825 76.05 279.10626Q76.58125 279.3875 76.925 279.91876Q77.26875 280.4344 77.45625 281.1844Q77.64375 281.9344 77.64375 283.21564Q77.64375 284.73126 77.33125 285.65314Q77.03438 286.575 76.40938 287.09064Q75.8 287.59064 74.84688 287.59064Q73.6125 287.59064 72.89375 286.7Q72.05 285.6375 72.05 283.21564ZM73.12813 283.21564Q73.12813 285.325 73.62813 286.02814Q74.12813 286.73126 74.84688 286.73126Q75.58125 286.73126 76.06563 286.02814Q76.56563 285.325 76.56563 283.21564Q76.56563 281.09064 76.06563 280.40314Q75.58125 279.7 74.83125 279.7Q74.1125 279.7 73.675 280.3094Q73.12813 281.09064 73.12813 283.21564ZM79.64375 287.45L79.64375 286.2469L80.84688 286.2469L80.84688 287.45L79.64375 287.45ZM82.05 283.21564Q82.05 281.6844 82.3625 280.7625Q82.675 279.825 83.28438 279.325Q83.90938 278.825 84.84688 278.825Q85.53438 278.825 86.05 279.10626Q86.58125 279.3875 86.925 279.91876Q87.26875 280.4344 87.45625 281.1844Q87.64375 281.9344 87.64375 283.21564Q87.64375 284.73126 87.33125 285.65314Q87.03438 286.575 86.40938 287.09064Q85.8 287.59064 84.84688 287.59064Q83.6125 287.59064 82.89375 286.7Q82.05 285.6375 82.05 283.21564ZM83.12813 283.21564Q83.12813 285.325 83.62813 286.02814Q84.12813 286.73126 84.84688 286.73126Q85.58125 286.73126 86.06563 286.02814Q86.56563 285.325 86.56563 283.21564Q86.56563 281.09064 86.06563 280.40314Q85.58125 279.7 84.83125 279.7Q84.1125 279.7 83.675 280.3094Q83.12813 281.09064 83.12813 283.21564Z" fill-rule="nonzero"/><path fill="#000000" d="M72.05 197.24896Q72.05 195.71771 72.3625 194.79584Q72.675 193.85834 73.28438 193.35834Q73.90938 192.85834 74.84688 192.85834Q75.53438 192.85834 76.05 193.13959Q76.58125 193.42084 76.925 193.95209Q77.26875 194.46771 77.45625 195.21771Q77.64375 195.96771 77.64375 197.24896Q77.64375 198.76459 77.33125 199.68646Q77.03438 200.60834 76.40938 201.12396Q75.8 201.62396 74.84688 201.62396Q73.6125 201.62396 72.89375 200.73334Q72.05 199.67084 72.05 197.24896ZM73.12813 197.24896Q73.12813 199.35834 73.62813 200.06146Q74.12813 200.76459 74.84688 200.76459Q75.58125 200.76459 76.06563 200.06146Q76.56563 199.35834 76.56563 197.24896Q76.56563 195.12396 76.06563 194.43646Q75.58125 193.73334 74.83125 193.73334Q74.1125 193.73334 73.675 194.34271Q73.12813 195.12396 73.12813 197.24896ZM79.64375 201.48334L79.64375 200.28021L80.84688 200.28021L80.84688 201.48334L79.64375 201.48334ZM82.05 199.23334L83.15938 199.13959Q83.28438 199.95209 83.72188 200.35834Q84.175 200.76459 84.81563 200.76459Q85.56563 200.76459 86.09688 200.18646Q86.62813 199.60834 86.62813 198.67084Q86.62813 197.76459 86.1125 197.24896Q85.6125 196.71771 84.78438 196.71771Q84.28438 196.71771 83.8625 196.95209Q83.45625 197.18646 83.22188 197.54584L82.2375 197.42084L83.06563 193.01459L87.34688 193.01459L87.34688 194.01459L83.90938 194.01459L83.45625 196.32709Q84.22188 195.78021 85.06563 195.78021Q86.19063 195.78021 86.95625 196.56146Q87.7375 197.34271 87.7375 198.57709Q87.7375 199.73334 87.06563 200.59271Q86.2375 201.62396 84.81563 201.62396Q83.64375 201.62396 82.89375 200.96771Q82.15938 200.31146 82.05 199.23334Z" fill-rule="nonzero"/><path fill="#000000" d="M76.01875 115.51667L74.97188 115.51667L74.97188 108.79792Q74.58125 109.157295 73.95625 109.532295Q73.34688 109.89167 72.8625 110.063545L72.8625 109.04792Q73.7375 108.626045 74.39375 108.04792Q75.06563 107.45417 75.34688 106.89167L76.01875 106.89167L76.01875 115.51667ZM79.64375 115.51667L79.64375 114.313545L80.84688 114.313545L80.84688 115.51667L79.64375 115.51667ZM82.05 111.282295Q82.05 109.751045 82.3625 108.82917Q82.675 107.89167 83.28438 107.39167Q83.90938 106.89167 84.84688 106.89167Q85.53438 106.89167 86.05 107.17292Q86.58125 107.45417 86.925 107.98542Q87.26875 108.501045 87.45625 109.251045Q87.64375 110.001045 87.64375 111.282295Q87.64375 112.79792 87.33125 113.719795Q87.03438 114.64167 86.40938 115.157295Q85.8 115.657295 84.84688 115.657295Q83.6125 115.657295 82.89375 114.76667Q82.05 113.70417 82.05 111.282295ZM83.12813 111.282295Q83.12813 113.39167 83.62813 114.094795Q84.12813 114.79792 84.84688 114.79792Q85.58125 114.79792 86.06563 114.094795Q86.56563 113.39167 86.56563 111.282295Q86.56563 109.157295 86.06563 108.469795Q85.58125 107.76667 84.83125 107.76667Q84.1125 107.76667 83.675 108.376045Q83.12813 109.157295 83.12813 111.282295Z" fill-rule="nonzero"/><path fill="#000000" d="M76.01875 29.55L74.97188 29.55L74.97188 22.83125Q74.58125 23.190624 73.95625 23.565624Q73.34688 23.925 72.8625 24.096874L72.8625 23.08125Q73.7375 22.659374 74.39375 22.08125Q75.06563 21.4875 75.34688 20.925L76.01875 20.925L76.01875 29.55ZM79.64375 29.55L79.64375 28.346874L80.84688 28.346874L80.84688 29.55L79.64375 29.55ZM82.05 27.3L83.15938 27.20625Q83.28438 28.01875 83.72188 28.425Q84.175 28.83125 84.81563 28.83125Q85.56563 28.83125 86.09688 28.253124Q86.62813 27.675 86.62813 26.7375Q86.62813 25.83125 86.1125 25.315624Q85.6125 24.784374 84.78438 24.784374Q84.28438 24.784374 83.8625 25.01875Q83.45625 25.253124 83.22188 25.6125L82.2375 25.4875L83.06563 21.08125L87.34688 21.08125L87.34688 22.08125L83.90938 22.08125L83.45625 24.39375Q84.22188 23.846874 85.06563 23.846874Q86.19063 23.846874 86.95625 24.628124Q87.7375 25.409374 87.7375 26.64375Q87.7375 27.8 87.06563 28.659374Q86.2375 29.690624 84.81563 29.690624Q83.64375 29.690624 82.89375 29.034374Q82.15938 28.378124 82.05 27.3Z" fill-rule="nonzero"/><path fill="#000000" d="M174.89534 300.45L173.84846 300.45L173.84846 293.73126Q173.45784 294.09064 172.83284 294.46564Q172.22346 294.825 171.73909 294.9969L171.73909 293.98126Q172.61409 293.5594 173.27034 292.98126Q173.94221 292.3875 174.22346 291.825L174.89534 291.825L174.89534 300.45ZM177.92659 296.21564Q177.92659 294.6844 178.23909 293.7625Q178.55159 292.825 179.16096 292.325Q179.78596 291.825 180.72346 291.825Q181.41096 291.825 181.92659 292.10626Q182.45784 292.3875 182.80159 292.91876Q183.14534 293.4344 183.33284 294.1844Q183.52034 294.9344 183.52034 296.21564Q183.52034 297.73126 183.20784 298.65314Q182.91096 299.575 182.28596 300.09064Q181.67659 300.59064 180.72346 300.59064Q179.48909 300.59064 178.77034 299.7Q177.92659 298.6375 177.92659 296.21564ZM179.00471 296.21564Q179.00471 298.325 179.50471 299.02814Q180.00471 299.73126 180.72346 299.73126Q181.45784 299.73126 181.94221 299.02814Q182.44221 298.325 182.44221 296.21564Q182.44221 294.09064 181.94221 293.40314Q181.45784 292.7 180.70784 292.7Q179.98909 292.7 179.55159 293.3094Q179.00471 294.09064 179.00471 296.21564Z" fill-rule="nonzero"/><path fill="#000000" d="M280.0692 299.4344L280.0692 300.45L274.3817 300.45Q274.3817 300.075 274.5067 299.71564Q274.72546 299.1375 275.1942 298.575Q275.6786 298.0125 276.58484 297.27814Q277.9911 296.1219 278.47546 295.45Q278.97546 294.77814 278.97546 294.1844Q278.97546 293.5594 278.52234 293.1375Q278.0692 292.7 277.35046 292.7Q276.58484 292.7 276.1317 293.15314Q275.6786 293.60626 275.66296 294.41876L274.58484 294.3094Q274.6942 293.09064 275.41296 292.46564Q276.14734 291.825 277.3817 291.825Q278.6161 291.825 279.33484 292.5125Q280.0536 293.2 280.0536 294.21564Q280.0536 294.73126 279.83484 295.23126Q279.6317 295.71564 279.1317 296.27814Q278.64734 296.825 277.52234 297.77814Q276.5692 298.575 276.28796 298.8719Q276.02234 299.15314 275.85046 299.4344L280.0692 299.4344ZM281.52234 296.21564Q281.52234 294.6844 281.83484 293.7625Q282.14734 292.825 282.7567 292.325Q283.3817 291.825 284.3192 291.825Q285.0067 291.825 285.52234 292.10626Q286.0536 292.3875 286.39734 292.91876Q286.7411 293.4344 286.9286 294.1844Q287.1161 294.9344 287.1161 296.21564Q287.1161 297.73126 286.8036 298.65314Q286.5067 299.575 285.8817 300.09064Q285.27234 300.59064 284.3192 300.59064Q283.08484 300.59064 282.3661 299.7Q281.52234 298.6375 281.52234 296.21564ZM282.60046 296.21564Q282.60046 298.325 283.10046 299.02814Q283.60046 299.73126 284.3192 299.73126Q285.0536 299.73126 285.53796 299.02814Q286.03796 298.325 286.03796 296.21564Q286.03796 294.09064 285.53796 293.40314Q285.0536 292.7 284.3036 292.7Q283.58484 292.7 283.14734 293.3094Q282.60046 294.09064 282.60046 296.21564Z" fill-rule="nonzero"/><path fill="#000000" d="M378.11807 298.1844L379.18057 298.04376Q379.35245 298.9344 379.78995 299.34064Q380.22745 299.73126 380.85245 299.73126Q381.60245 299.73126 382.11807 299.21564Q382.6337 298.7 382.6337 297.9344Q382.6337 297.21564 382.14932 296.7469Q381.68057 296.2625 380.9462 296.2625Q380.64932 296.2625 380.1962 296.3875L380.3212 295.45Q380.43057 295.46564 380.49307 295.46564Q381.16495 295.46564 381.6962 295.1219Q382.24307 294.7625 382.24307 294.02814Q382.24307 293.45 381.85245 293.075Q381.46182 292.6844 380.83682 292.6844Q380.22745 292.6844 379.80557 293.075Q379.39932 293.46564 379.28995 294.23126L378.22745 294.04376Q378.41495 292.9969 379.10245 292.41876Q379.78995 291.825 380.80557 291.825Q381.5087 291.825 382.10245 292.1375Q382.6962 292.4344 383.0087 292.95Q383.3212 293.46564 383.3212 294.0594Q383.3212 294.60626 383.02432 295.075Q382.72745 295.52814 382.14932 295.79376Q382.89932 295.96564 383.3212 296.52814Q383.74307 297.075 383.74307 297.91876Q383.74307 299.04376 382.91495 299.825Q382.10245 300.60626 380.85245 300.60626Q379.72745 300.60626 378.97745 299.9344Q378.22745 299.2469 378.11807 298.1844ZM385.11807 296.21564Q385.11807 294.6844 385.43057 293.7625Q385.74307 292.825 386.35245 292.325Q386.97745 291.825 387.91495 291.825Q388.60245 291.825 389.11807 292.10626Q389.64932 292.3875 389.99307 292.91876Q390.33682 293.4344 390.52432 294.1844Q390.71182 294.9344 390.71182 296.21564Q390.71182 297.73126 390.39932 298.65314Q390.10245 299.575 389.47745 300.09064Q388.86807 300.59064 387.91495 300.59064Q386.68057 300.59064 385.96182 299.7Q385.11807 298.6375 385.11807 296.21564ZM386.1962 296.21564Q386.1962 298.325 386.6962 299.02814Q387.1962 299.73126 387.91495 299.73126Q388.64932 299.73126 389.1337 299.02814Q389.6337 298.325 389.6337 296.21564Q389.6337 294.09064 389.1337 293.40314Q388.64932 292.7 387.89932 292.7Q387.18057 292.7 386.74307 293.3094Q386.1962 294.09064 386.1962 296.21564Z" fill-rule="nonzero"/><path fill="#000000" d="M485.08884 300.45L485.08884 298.3875L481.3701 298.3875L481.3701 297.41876L485.29196 291.85626L486.15134 291.85626L486.15134 297.41876L487.3076 297.41876L487.3076 298.3875L486.15134 298.3875L486.15134 300.45L485.08884 300.45ZM485.08884 297.41876L485.08884 293.5594L482.40134 297.41876L485.08884 297.41876ZM488.71384 296.21564Q488.71384 294.6844 489.02634 293.7625Q489.33884 292.825 489.9482 292.325Q490.5732 291.825 491.5107 291.825Q492.1982 291.825 492.71384 292.10626Q493.2451 292.3875 493.58884 292.91876Q493.9326 293.4344 494.1201 294.1844Q494.3076 294.9344 494.3076 296.21564Q494.3076 297.73126 493.9951 298.65314Q493.6982 299.575 493.0732 300.09064Q492.46384 300.59064 491.5107 300.59064Q490.27634 300.59064 489.5576 299.7Q488.71384 298.6375 488.71384 296.21564ZM489.79196 296.21564Q489.79196 298.325 490.29196 299.02814Q490.79196 299.73126 491.5107 299.73126Q492.2451 299.73126 492.72946 299.02814Q493.22946 298.325 493.22946 296.21564Q493.22946 294.09064 492.72946 293.40314Q492.2451 292.7 491.4951 292.7Q490.77634 292.7 490.33884 293.3094Q489.79196 294.09064 489.79196 296.21564Z" fill-rule="nonzero"/></svg>