<svg version="1.1" viewBox="0.0 0.0 600.0 371.0" fill="none" stroke="none" stroke-linecap="square" stroke-miterlimit="10" width="600" height="371" xmlns:xlink="http://www.w3.org/1999/xlink" xmlns="http://www.w3.org/2000/svg"><path fill="#ffffff" d="M0 0L600.0 0L600.0 371.0L0 371.0L0 0Z" fill-rule="nonzero"/><path stroke="#333333" stroke-width="1.0" stroke-linecap="butt" d="M94.5 51.5L94.5 287.5" fill-rule="nonzero"/><path stroke="#cccccc" stroke-width="1.0" stroke-linecap="butt" d="M195.5 51.5L195.5 287.5" fill-rule="nonzero"/><path stroke="#cccccc" stroke-width="1.0" stroke-linecap="butt" d="M297.5 51.5L297.5 287.5" fill-rule="nonzero"/><path stroke="#cccccc" stroke-width="1.0" stroke-linecap="butt" d="M398.5 51.5L398.5 287.5" fill-rule="nonzero"/><path stroke="#cccccc" stroke-width="1.0" stroke-linecap="butt" d="M500.5 51.5L500.5 287.5" fill-rule="nonzero"/><path stroke="#333333" stroke-width="1.0" stroke-linecap="butt" d="M94.5 287.5L581.5 287.5" fill-rule="nonzero"/><path stroke="#cccccc" stroke-width="1.0" stroke-linecap="butt" d="M94.5 228.5L581.5 228.5" fill-rule="nonzero"/><path stroke="#cccccc" stroke-width="1.0" stroke-linecap="butt" d="M94.5 169.5L581.5 169.5" fill-rule="nonzero"/><path stroke="#cccccc" stroke-width="1.0" stroke-linecap="butt" d="M94.5 110.5L581.5 110.5" fill-rule="nonzero"/><path stroke="#cccccc" stroke-width="1.0" stroke-linecap="butt" d="M94.5 51.5L581.5 51.5" fill-rule="nonzero"/><clipPath id="id_0"><path d="M94.55 51.916668L581.45 51.916668L581.45 287.45L94.55 287.45L94.55 51.916668Z" clip-rule="nonzero"/></clipPath><path stroke="#4285f4" stroke-width="2.0" stroke-linecap="butt" clip-path="url(#id_0)" d="M94.55 287.44995L114.8375 287.0459L135.125 285.9609L155.4125 284.11002L175.7 281.29074L195.9875 278.31992L216.275 273.86108L236.5625 269.77075L256.85 264.09235L277.1375 258.04514L297.425 251.22745L317.7125 244.0014L338.0 235.4354L358.2875 227.20169L378.575 216.97018L398.8625 207.18585L419.15 195.67195L439.4375 183.95836L459.725 169.56969L480.0125 155.00883L500.3 141.84018L520.5875 126.061554L540.875 110.261734L561.1625 89.00457L581.45 74.38825" fill-rule="nonzero"/><path stroke="#ea4335" stroke-width="2.0" stroke-linecap="butt" clip-path="url(#id_0)" d="M94.55 287.44995L114.8375 287.2575L135.125 286.70984L155.4125 285.78162L175.7 284.46408L195.9875 282.8524L216.275 280.82645L236.5625 278.04126L256.85 275.8414L277.1375 272.6748L297.425 269.37906L317.7125 265.27866L338.0 261.42328L358.2875 256.823L378.575 251.80986L398.8625 246.37772L419.15 240.71512L439.4375 235.35161L459.725 228.72765L480.0125 221.02083L500.3 214.16592L520.5875 206.78331L540.875 198.63603L561.1625 184.72838L581.45 179.48094" fill-rule="nonzero"/><path stroke="#fbbc04" stroke-width="2.0" stroke-linecap="butt" clip-path="url(#id_0)" d="M94.55 287.45L114.8375 287.36224L135.125 287.13516L155.4125 286.7362L175.7 286.19833L195.9875 285.4651L216.275 284.74915L236.5625 283.82254L256.85 282.54254L277.1375 281.3975L297.425 279.77893L317.7125 278.552L338.0 277.06375L358.2875 275.37415L378.575 273.2746L398.8625 270.77554L419.15 268.7589L439.4375 266.34122L459.725 263.3103L480.0125 260.74878L500.3 258.053L520.5875 254.8642L540.875 250.95546L561.1625 246.66093L581.45 243.72466" fill-rule="nonzero"/><path stroke="#34a853" stroke-width="2.0" stroke-linecap="butt" clip-path="url(#id_0)" d="M94.55 287.45L114.8375 287.4079L135.125 287.2973L155.4125 287.1034L175.7 286.83972L195.9875 286.44806L216.275 286.08038L236.5625 285.3646L256.85 284.9305L277.1375 284.23145L297.425 283.63013L317.7125 282.86145L338.0 282.07858L358.2875 281.27985L378.575 280.11868L398.8625 279.0426L419.15 278.06918L439.4375 276.81067L459.725 274.70572L480.0125 274.18704L500.3 272.64136L520.5875 271.06476L540.875 269.6521L561.1625 266.36328L581.45 265.8497" fill-rule="nonzero"/><path stroke="#ff6d01" stroke-width="2.0" stroke-linecap="butt" clip-path="url(#id_0)" d="M94.55 287.45L114.8375 287.44348L135.125 287.4368L155.4125 287.4302L175.7 287.41974L195.9875 287.38864L216.275 287.3896L236.5625 287.385L256.85 287.38028L277.1375 287.3642L297.425 287.3689L317.7125 287.3245L338.0 287.34436L358.2875 287.341L378.575 287.3298L398.8625 287.31625L419.15 287.3227L439.4375 287.30304L459.725 287.30133L480.0125 287.2899L500.3 287.28552L520.5875 287.272L540.875 287.25034L561.1625 287.24097L581.45 287.2422" fill-rule="nonzero"/><path fill="#000000" fill-opacity="0.0" clip-path="url(#id_0)" d="M97.55 287.44995C97.55 289.1068 96.206856 290.44995 94.55 290.44995C92.89314 290.44995 91.55 289.1068 91.55 287.44995C91.55 285.7931 92.89314 284.44995 94.55 284.44995C96.206856 284.44995 97.55 285.7931 97.55 287.44995Z" fill-rule="nonzero"/><path fill="#000000" fill-opacity="0.0" clip-path="url(#id_0)" d="M117.8375 287.0459C117.8375 288.70276 116.494354 290.0459 114.8375 290.0459C113.18065 290.0459 111.8375 288.70276 111.8375 287.0459C111.8375 285.38904 113.18065 284.0459 114.8375 284.0459C116.494354 284.0459 117.8375 285.38904 117.8375 287.0459Z" fill-rule="nonzero"/><path fill="#000000" fill-opacity="0.0" clip-path="url(#id_0)" d="M138.125 285.9609C138.125 287.61774 136.78186 288.9609 135.125 288.9609C133.46814 288.9609 132.125 287.61774 132.125 285.9609C132.125 284.30405 133.46814 282.9609 135.125 282.9609C136.78186 282.9609 138.125 284.30405 138.125 285.9609Z" fill-rule="nonzero"/><path fill="#000000" fill-opacity="0.0" clip-path="url(#id_0)" d="M158.4125 284.11002C158.4125 285.76688 157.06935 287.11002 155.4125 287.11002C153.75565 287.11002 152.4125 285.76688 152.4125 284.11002C152.4125 282.45316 153.75565 281.11002 155.4125 281.11002C157.06935 281.11002 158.4125 282.45316 158.4125 284.11002Z" fill-rule="nonzero"/><path fill="#000000" fill-opacity="0.0" clip-path="url(#id_0)" d="M178.7 281.29074C178.7 282.9476 177.35686 284.29074 175.7 284.29074C174.04315 284.29074 172.7 282.9476 172.7 281.29074C172.7 279.63388 174.04315 278.29074 175.7 278.29074C177.35686 278.29074 178.7 279.63388 178.7 281.29074Z" fill-rule="nonzero"/><path fill="#000000" fill-opacity="0.0" clip-path="url(#id_0)" d="M198.9875 278.31992C198.9875 279.97678 197.64435 281.31992 195.9875 281.31992C194.33064 281.31992 192.9875 279.97678 192.9875 278.31992C192.9875 276.66306 194.33064 275.31992 195.9875 275.31992C197.64435 275.31992 198.9875 276.66306 198.9875 278.31992Z" fill-rule="nonzero"/><path fill="#000000" fill-opacity="0.0" clip-path="url(#id_0)" d="M219.275 273.86108C219.275 275.51794 217.93185 276.86108 216.275 276.86108C214.61815 276.86108 213.275 275.51794 213.275 273.86108C213.275 272.20425 214.61815 270.86108 216.275 270.86108C217.93185 270.86108 219.275 272.20425 219.275 273.86108Z" fill-rule="nonzero"/><path fill="#000000" fill-opacity="0.0" clip-path="url(#id_0)" d="M239.5625 269.77075C239.5625 271.4276 238.21936 272.77075 236.5625 272.77075C234.90564 272.77075 233.5625 271.4276 233.5625 269.77075C233.5625 268.1139 234.90564 266.77075 236.5625 266.77075C238.21936 266.77075 239.5625 268.1139 239.5625 269.77075Z" fill-rule="nonzero"/><path fill="#000000" fill-opacity="0.0" clip-path="url(#id_0)" d="M259.85 264.09235C259.85 265.74918 258.50687 267.09235 256.85 267.09235C255.19315 267.09235 253.85 265.74918 253.85 264.09235C253.85 262.4355 255.19315 261.09235 256.85 261.09235C258.50687 261.09235 259.85 262.4355 259.85 264.09235Z" fill-rule="nonzero"/><path fill="#000000" fill-opacity="0.0" clip-path="url(#id_0)" d="M280.1375 258.04514C280.1375 259.702 278.79434 261.04514 277.1375 261.04514C275.48065 261.04514 274.1375 259.702 274.1375 258.04514C274.1375 256.38828 275.48065 255.04514 277.1375 255.04514C278.79434 255.04514 280.1375 256.38828 280.1375 258.04514Z" fill-rule="nonzero"/><path fill="#000000" fill-opacity="0.0" clip-path="url(#id_0)" d="M300.425 251.22745C300.425 252.8843 299.08185 254.22745 297.425 254.22745C295.76816 254.22745 294.425 252.8843 294.425 251.22745C294.425 249.57059 295.76816 248.22745 297.425 248.22745C299.08185 248.22745 300.425 249.57059 300.425 251.22745Z" fill-rule="nonzero"/><path fill="#000000" fill-opacity="0.0" clip-path="url(#id_0)" d="M320.7125 244.0014C320.7125 245.65826 319.36935 247.0014 317.7125 247.0014C316.05563 247.0014 314.7125 245.65826 314.7125 244.0014C314.7125 242.34454 316.05563 241.0014 317.7125 241.0014C319.36935 241.0014 320.7125 242.34454 320.7125 244.0014Z" fill-rule="nonzero"/><path fill="#000000" fill-opacity="0.0" clip-path="url(#id_0)" d="M341.0 235.4354C341.0 237.09225 339.65686 238.4354 338.0 238.4354C336.34314 238.4354 335.0 237.09225 335.0 235.4354C335.0 233.77855 336.34314 232.4354 338.0 232.4354C339.65686 232.4354 341.0 233.77855 341.0 235.4354Z" fill-rule="nonzero"/><path fill="#000000" fill-opacity="0.0" clip-path="url(#id_0)" d="M361.2875 227.20169C361.2875 228.85855 359.94437 230.20169 358.2875 230.20169C356.63065 230.20169 355.2875 228.85855 355.2875 227.20169C355.2875 225.54485 356.63065 224.20169 358.2875 224.20169C359.94437 224.20169 361.2875 225.54485 361.2875 227.20169Z" fill-rule="nonzero"/><path fill="#000000" fill-opacity="0.0" clip-path="url(#id_0)" d="M381.575 216.97018C381.575 218.62704 380.23184 219.97018 378.575 219.97018C376.91815 219.97018 375.575 218.62704 375.575 216.97018C375.575 215.31334 376.91815 213.97018 378.575 213.97018C380.23184 213.97018 381.575 215.31334 381.575 216.97018Z" fill-rule="nonzero"/><path fill="#000000" fill-opacity="0.0" clip-path="url(#id_0)" d="M401.8625 207.18585C401.8625 208.8427 400.51935 210.18585 398.8625 210.18585C397.20566 210.18585 395.8625 208.8427 395.8625 207.18585C395.8625 205.52899 397.20566 204.18585 398.8625 204.18585C400.51935 204.18585 401.8625 205.52899 401.8625 207.18585Z" fill-rule="nonzero"/><path fill="#000000" fill-opacity="0.0" clip-path="url(#id_0)" d="M422.15 195.67195C422.15 197.32881 420.80685 198.67195 419.15 198.67195C417.49313 198.67195 416.15 197.32881 416.15 195.67195C416.15 194.0151 417.49313 192.67195 419.15 192.67195C420.80685 192.67195 422.15 194.0151 422.15 195.67195Z" fill-rule="nonzero"/><path fill="#000000" fill-opacity="0.0" clip-path="url(#id_0)" d="M442.4375 183.95836C442.4375 185.61522 441.09436 186.95836 439.4375 186.95836C437.78064 186.95836 436.4375 185.61522 436.4375 183.95836C436.4375 182.30151 437.78064 180.95836 439.4375 180.95836C441.09436 180.95836 442.4375 182.30151 442.4375 183.95836Z" fill-rule="nonzero"/><path fill="#000000" fill-opacity="0.0" clip-path="url(#id_0)" d="M462.725 169.56969C462.725 171.22655 461.38187 172.56969 459.725 172.56969C458.06815 172.56969 456.725 171.22655 456.725 169.56969C456.725 167.91284 458.06815 166.56969 459.725 166.56969C461.38187 166.56969 462.725 167.91284 462.725 169.56969Z" fill-rule="nonzero"/><path fill="#000000" fill-opacity="0.0" clip-path="url(#id_0)" d="M483.0125 155.00883C483.0125 156.6657 481.66934 158.00883 480.0125 158.00883C478.35565 158.00883 477.0125 156.6657 477.0125 155.00883C477.0125 153.35199 478.35565 152.00883 480.0125 152.00883C481.66934 152.00883 483.0125 153.35199 483.0125 155.00883Z" fill-rule="nonzero"/><path fill="#000000" fill-opacity="0.0" clip-path="url(#id_0)" d="M503.3 141.84018C503.3 143.49702 501.95685 144.84018 500.3 144.84018C498.64316 144.84018 497.3 143.49702 497.3 141.84018C497.3 140.18332 498.64316 138.84018 500.3 138.84018C501.95685 138.84018 503.3 140.18332 503.3 141.84018Z" fill-rule="nonzero"/><path fill="#000000" fill-opacity="0.0" clip-path="url(#id_0)" d="M523.5875 126.061554C523.5875 127.71841 522.2444 129.06155 520.5875 129.06155C518.93066 129.06155 517.5875 127.71841 517.5875 126.061554C517.5875 124.4047 518.93066 123.061554 520.5875 123.061554C522.2444 123.061554 523.5875 124.4047 523.5875 126.061554Z" fill-rule="nonzero"/><path fill="#000000" fill-opacity="0.0" clip-path="url(#id_0)" d="M543.875 110.261734C543.875 111.91859 542.53186 113.261734 540.875 113.261734C539.21814 113.261734 537.875 111.91859 537.875 110.261734C537.875 108.60488 539.21814 107.261734 540.875 107.261734C542.53186 107.261734 543.875 108.60488 543.875 110.261734Z" fill-rule="nonzero"/><path fill="#000000" fill-opacity="0.0" clip-path="url(#id_0)" d="M564.1625 89.00457C564.1625 90.66142 562.81934 92.00457 561.1625 92.00457C559.5056 92.00457 558.1625 90.66142 558.1625 89.00457C558.1625 87.34771 559.5056 86.00457 561.1625 86.00457C562.81934 86.00457 564.1625 87.34771 564.1625 89.00457Z" fill-rule="nonzero"/><path fill="#000000" fill-opacity="0.0" clip-path="url(#id_0)" d="M584.45 74.38825C584.45 76.045105 583.1069 77.38825 581.45 77.38825C579.79315 77.38825 578.45 76.045105 578.45 74.38825C578.45 72.7314 579.79315 71.38825 581.45 71.38825C583.1069 71.38825 584.45 72.7314 584.45 74.38825Z" fill-rule="nonzero"/><path fill="#000000" fill-opacity="0.0" clip-path="url(#id_0)" d="M97.55 287.44995C97.55 289.1068 96.206856 290.44995 94.55 290.44995C92.89314 290.44995 91.55 289.1068 91.55 287.44995C91.55 285.7931 92.89314 284.44995 94.55 284.44995C96.206856 284.44995 97.55 285.7931 97.55 287.44995Z" fill-rule="nonzero"/><path fill="#000000" fill-opacity="0.0" clip-path="url(#id_0)" d="M117.8375 287.2575C117.8375 288.91437 116.494354 290.2575 114.8375 290.2575C113.18065 290.2575 111.8375 288.91437 111.8375 287.2575C111.8375 285.60065 113.18065 284.2575 114.8375 284.2575C116.494354 284.2575 117.8375 285.60065 117.8375 287.2575Z" fill-rule="nonzero"/><path fill="#000000" fill-opacity="0.0" clip-path="url(#id_0)" d="M138.125 286.70984C138.125 288.3667 136.78186 289.70984 135.125 289.70984C133.46814 289.70984 132.125 288.3667 132.125 286.70984C132.125 285.05298 133.46814 283.70984 135.125 283.70984C136.78186 283.70984 138.125 285.05298 138.125 286.70984Z" fill-rule="nonzero"/><path fill="#000000" fill-opacity="0.0" clip-path="url(#id_0)" d="M158.4125 285.78162C158.4125 287.43845 157.06935 288.78162 155.4125 288.78162C153.75565 288.78162 152.4125 287.43845 152.4125 285.78162C152.4125 284.12476 153.75565 282.78162 155.4125 282.78162C157.06935 282.78162 158.4125 284.12476 158.4125 285.78162Z" fill-rule="nonzero"/><path fill="#000000" fill-opacity="0.0" clip-path="url(#id_0)" d="M178.7 284.46408C178.7 286.12094 177.35686 287.46408 175.7 287.46408C174.04315 287.46408 172.7 286.12094 172.7 284.46408C172.7 282.80722 174.04315 281.46408 175.7 281.46408C177.35686 281.46408 178.7 282.80722 178.7 284.46408Z" fill-rule="nonzero"/><path fill="#000000" fill-opacity="0.0" clip-path="url(#id_0)" d="M198.9875 282.8524C198.9875 284.50925 197.64435 285.8524 195.9875 285.8524C194.33064 285.8524 192.9875 284.50925 192.9875 282.8524C192.9875 281.19553 194.33064 279.8524 195.9875 279.8524C197.64435 279.8524 198.9875 281.19553 198.9875 282.8524Z" fill-rule="nonzero"/><path fill="#000000" fill-opacity="0.0" clip-path="url(#id_0)" d="M219.275 280.82645C219.275 282.4833 217.93185 283.82645 216.275 283.82645C214.61815 283.82645 213.275 282.4833 213.275 280.82645C213.275 279.1696 214.61815 277.82645 216.275 277.82645C217.93185 277.82645 219.275 279.1696 219.275 280.82645Z" fill-rule="nonzero"/><path fill="#000000" fill-opacity="0.0" clip-path="url(#id_0)" d="M239.5625 278.04126C239.5625 279.69812 238.21936 281.04126 236.5625 281.04126C234.90564 281.04126 233.5625 279.69812 233.5625 278.04126C233.5625 276.3844 234.90564 275.04126 236.5625 275.04126C238.21936 275.04126 239.5625 276.3844 239.5625 278.04126Z" fill-rule="nonzero"/><path fill="#000000" fill-opacity="0.0" clip-path="url(#id_0)" d="M259.85 275.8414C259.85 277.49823 258.50687 278.8414 256.85 278.8414C255.19315 278.8414 253.85 277.49823 253.85 275.8414C253.85 274.18454 255.19315 272.8414 256.85 272.8414C258.50687 272.8414 259.85 274.18454 259.85 275.8414Z" fill-rule="nonzero"/><path fill="#000000" fill-opacity="0.0" clip-path="url(#id_0)" d="M280.1375 272.6748C280.1375 274.33167 278.79434 275.6748 277.1375 275.6748C275.48065 275.6748 274.1375 274.33167 274.1375 272.6748C274.1375 271.01794 275.48065 269.6748 277.1375 269.6748C278.79434 269.6748 280.1375 271.01794 280.1375 272.6748Z" fill-rule="nonzero"/><path fill="#000000" fill-opacity="0.0" clip-path="url(#id_0)" d="M300.425 269.37906C300.425 271.03592 299.08185 272.37906 297.425 272.37906C295.76816 272.37906 294.425 271.03592 294.425 269.37906C294.425 267.7222 295.76816 266.37906 297.425 266.37906C299.08185 266.37906 300.425 267.7222 300.425 269.37906Z" fill-rule="nonzero"/><path fill="#000000" fill-opacity="0.0" clip-path="url(#id_0)" d="M320.7125 265.27866C320.7125 266.93552 319.36935 268.27866 317.7125 268.27866C316.05563 268.27866 314.7125 266.93552 314.7125 265.27866C314.7125 263.6218 316.05563 262.27866 317.7125 262.27866C319.36935 262.27866 320.7125 263.6218 320.7125 265.27866Z" fill-rule="nonzero"/><path fill="#000000" fill-opacity="0.0" clip-path="url(#id_0)" d="M341.0 261.42328C341.0 263.08014 339.65686 264.42328 338.0 264.42328C336.34314 264.42328 335.0 263.08014 335.0 261.42328C335.0 259.76642 336.34314 258.42328 338.0 258.42328C339.65686 258.42328 341.0 259.76642 341.0 261.42328Z" fill-rule="nonzero"/><path fill="#000000" fill-opacity="0.0" clip-path="url(#id_0)" d="M361.2875 256.823C361.2875 258.47986 359.94437 259.823 358.2875 259.823C356.63065 259.823 355.2875 258.47986 355.2875 256.823C355.2875 255.16615 356.63065 253.823 358.2875 253.823C359.94437 253.823 361.2875 255.16615 361.2875 256.823Z" fill-rule="nonzero"/><path fill="#000000" fill-opacity="0.0" clip-path="url(#id_0)" d="M381.575 251.80986C381.575 253.4667 380.23184 254.80986 378.575 254.80986C376.91815 254.80986 375.575 253.4667 375.575 251.80986C375.575 250.153 376.91815 248.80986 378.575 248.80986C380.23184 248.80986 381.575 250.153 381.575 251.80986Z" fill-rule="nonzero"/><path fill="#000000" fill-opacity="0.0" clip-path="url(#id_0)" d="M401.8625 246.37772C401.8625 248.03456 400.51935 249.37772 398.8625 249.37772C397.20566 249.37772 395.8625 248.03456 395.8625 246.37772C395.8625 244.72086 397.20566 243.37772 398.8625 243.37772C400.51935 243.37772 401.8625 244.72086 401.8625 246.37772Z" fill-rule="nonzero"/><path fill="#000000" fill-opacity="0.0" clip-path="url(#id_0)" d="M422.15 240.71512C422.15 242.37196 420.80685 243.71512 419.15 243.71512C417.49313 243.71512 416.15 242.37196 416.15 240.71512C416.15 239.05826 417.49313 237.71512 419.15 237.71512C420.80685 237.71512 422.15 239.05826 422.15 240.71512Z" fill-rule="nonzero"/><path fill="#000000" fill-opacity="0.0" clip-path="url(#id_0)" d="M442.4375 235.35161C442.4375 237.00847 441.09436 238.35161 439.4375 238.35161C437.78064 238.35161 436.4375 237.00847 436.4375 235.35161C436.4375 233.69476 437.78064 232.35161 439.4375 232.35161C441.09436 232.35161 442.4375 233.69476 442.4375 235.35161Z" fill-rule="nonzero"/><path fill="#000000" fill-opacity="0.0" clip-path="url(#id_0)" d="M462.725 228.72765C462.725 230.3845 461.38187 231.72765 459.725 231.72765C458.06815 231.72765 456.725 230.3845 456.725 228.72765C456.725 227.0708 458.06815 225.72765 459.725 225.72765C461.38187 225.72765 462.725 227.0708 462.725 228.72765Z" fill-rule="nonzero"/><path fill="#000000" fill-opacity="0.0" clip-path="url(#id_0)" d="M483.0125 221.02083C483.0125 222.67767 481.66934 224.02083 480.0125 224.02083C478.35565 224.02083 477.0125 222.67767 477.0125 221.02083C477.0125 219.36397 478.35565 218.02083 480.0125 218.02083C481.66934 218.02083 483.0125 219.36397 483.0125 221.02083Z" fill-rule="nonzero"/><path fill="#000000" fill-opacity="0.0" clip-path="url(#id_0)" d="M503.3 214.16592C503.3 215.82277 501.95685 217.16592 500.3 217.16592C498.64316 217.16592 497.3 215.82277 497.3 214.16592C497.3 212.50906 498.64316 211.16592 500.3 211.16592C501.95685 211.16592 503.3 212.50906 503.3 214.16592Z" fill-rule="nonzero"/><path fill="#000000" fill-opacity="0.0" clip-path="url(#id_0)" d="M523.5875 206.78331C523.5875 208.44016 522.2444 209.78331 520.5875 209.78331C518.93066 209.78331 517.5875 208.44016 517.5875 206.78331C517.5875 205.12645 518.93066 203.78331 520.5875 203.78331C522.2444 203.78331 523.5875 205.12645 523.5875 206.78331Z" fill-rule="nonzero"/><path fill="#000000" fill-opacity="0.0" clip-path="url(#id_0)" d="M543.875 198.63603C543.875 200.29288 542.53186 201.63603 540.875 201.63603C539.21814 201.63603 537.875 200.29288 537.875 198.63603C537.875 196.97917 539.21814 195.63603 540.875 195.63603C542.53186 195.63603 543.875 196.97917 543.875 198.63603Z" fill-rule="nonzero"/><path fill="#000000" fill-opacity="0.0" clip-path="url(#id_0)" d="M564.1625 184.72838C564.1625 186.38524 562.81934 187.72838 561.1625 187.72838C559.5056 187.72838 558.1625 186.38524 558.1625 184.72838C558.1625 183.07153 559.5056 181.72838 561.1625 181.72838C562.81934 181.72838 564.1625 183.07153 564.1625 184.72838Z" fill-rule="nonzero"/><path fill="#000000" fill-opacity="0.0" clip-path="url(#id_0)" d="M584.45 179.48094C584.45 181.1378 583.1069 182.48094 581.45 182.48094C579.79315 182.48094 578.45 181.1378 578.45 179.48094C578.45 177.82408 579.79315 176.48094 581.45 176.48094C583.1069 176.48094 584.45 177.82408 584.45 179.48094Z" fill-rule="nonzero"/><path fill="#000000" fill-opacity="0.0" clip-path="url(#id_0)" d="M97.55 287.45C97.55 289.10684 96.206856 290.45 94.55 290.45C92.89314 290.45 91.55 289.10684 91.55 287.45C91.55 285.79315 92.89314 284.45 94.55 284.45C96.206856 284.45 97.55 285.79315 97.55 287.45Z" fill-rule="nonzero"/><path fill="#000000" fill-opacity="0.0" clip-path="url(#id_0)" d="M117.8375 287.36224C117.8375 289.0191 116.494354 290.36224 114.8375 290.36224C113.18065 290.36224 111.8375 289.0191 111.8375 287.36224C111.8375 285.7054 113.18065 284.36224 114.8375 284.36224C116.494354 284.36224 117.8375 285.7054 117.8375 287.36224Z" fill-rule="nonzero"/><path fill="#000000" fill-opacity="0.0" clip-path="url(#id_0)" d="M138.125 287.13516C138.125 288.792 136.78186 290.13516 135.125 290.13516C133.46814 290.13516 132.125 288.792 132.125 287.13516C132.125 285.4783 133.46814 284.13516 135.125 284.13516C136.78186 284.13516 138.125 285.4783 138.125 287.13516Z" fill-rule="nonzero"/><path fill="#000000" fill-opacity="0.0" clip-path="url(#id_0)" d="M158.4125 286.7362C158.4125 288.39307 157.06935 289.7362 155.4125 289.7362C153.75565 289.7362 152.4125 288.39307 152.4125 286.7362C152.4125 285.07938 153.75565 283.7362 155.4125 283.7362C157.06935 283.7362 158.4125 285.07938 158.4125 286.7362Z" fill-rule="nonzero"/><path fill="#000000" fill-opacity="0.0" clip-path="url(#id_0)" d="M178.7 286.19833C178.7 287.85516 177.35686 289.19833 175.7 289.19833C174.04315 289.19833 172.7 287.85516 172.7 286.19833C172.7 284.54147 174.04315 283.19833 175.7 283.19833C177.35686 283.19833 178.7 284.54147 178.7 286.19833Z" fill-rule="nonzero"/><path fill="#000000" fill-opacity="0.0" clip-path="url(#id_0)" d="M198.9875 285.4651C198.9875 287.12195 197.64435 288.4651 195.9875 288.4651C194.33064 288.4651 192.9875 287.12195 192.9875 285.4651C192.9875 283.80826 194.33064 282.4651 195.9875 282.4651C197.64435 282.4651 198.9875 283.80826 198.9875 285.4651Z" fill-rule="nonzero"/><path fill="#000000" fill-opacity="0.0" clip-path="url(#id_0)" d="M219.275 284.74915C219.275 286.406 217.93185 287.74915 216.275 287.74915C214.61815 287.74915 213.275 286.406 213.275 284.74915C213.275 283.0923 214.61815 281.74915 216.275 281.74915C217.93185 281.74915 219.275 283.0923 219.275 284.74915Z" fill-rule="nonzero"/><path fill="#000000" fill-opacity="0.0" clip-path="url(#id_0)" d="M239.5625 283.82254C239.5625 285.4794 238.21936 286.82254 236.5625 286.82254C234.90564 286.82254 233.5625 285.4794 233.5625 283.82254C233.5625 282.1657 234.90564 280.82254 236.5625 280.82254C238.21936 280.82254 239.5625 282.1657 239.5625 283.82254Z" fill-rule="nonzero"/><path fill="#000000" fill-opacity="0.0" clip-path="url(#id_0)" d="M259.85 282.54254C259.85 284.1994 258.50687 285.54254 256.85 285.54254C255.19315 285.54254 253.85 284.1994 253.85 282.54254C253.85 280.8857 255.19315 279.54254 256.85 279.54254C258.50687 279.54254 259.85 280.8857 259.85 282.54254Z" fill-rule="nonzero"/><path fill="#000000" fill-opacity="0.0" clip-path="url(#id_0)" d="M280.1375 281.3975C280.1375 283.05435 278.79434 284.3975 277.1375 284.3975C275.48065 284.3975 274.1375 283.05435 274.1375 281.3975C274.1375 279.74066 275.48065 278.3975 277.1375 278.3975C278.79434 278.3975 280.1375 279.74066 280.1375 281.3975Z" fill-rule="nonzero"/><path fill="#000000" fill-opacity="0.0" clip-path="url(#id_0)" d="M300.425 279.77893C300.425 281.43576 299.08185 282.77893 297.425 282.77893C295.76816 282.77893 294.425 281.43576 294.425 279.77893C294.425 278.12207 295.76816 276.77893 297.425 276.77893C299.08185 276.77893 300.425 278.12207 300.425 279.77893Z" fill-rule="nonzero"/><path fill="#000000" fill-opacity="0.0" clip-path="url(#id_0)" d="M320.7125 278.552C320.7125 280.20886 319.36935 281.552 317.7125 281.552C316.05563 281.552 314.7125 280.20886 314.7125 278.552C314.7125 276.89517 316.05563 275.552 317.7125 275.552C319.36935 275.552 320.7125 276.89517 320.7125 278.552Z" fill-rule="nonzero"/><path fill="#000000" fill-opacity="0.0" clip-path="url(#id_0)" d="M341.0 277.06375C341.0 278.7206 339.65686 280.06375 338.0 280.06375C336.34314 280.06375 335.0 278.7206 335.0 277.06375C335.0 275.4069 336.34314 274.06375 338.0 274.06375C339.65686 274.06375 341.0 275.4069 341.0 277.06375Z" fill-rule="nonzero"/><path fill="#000000" fill-opacity="0.0" clip-path="url(#id_0)" d="M361.2875 275.37415C361.2875 277.031 359.94437 278.37415 358.2875 278.37415C356.63065 278.37415 355.2875 277.031 355.2875 275.37415C355.2875 273.7173 356.63065 272.37415 358.2875 272.37415C359.94437 272.37415 361.2875 273.7173 361.2875 275.37415Z" fill-rule="nonzero"/><path fill="#000000" fill-opacity="0.0" clip-path="url(#id_0)" d="M381.575 273.2746C381.575 274.93146 380.23184 276.2746 378.575 276.2746C376.91815 276.2746 375.575 274.93146 375.575 273.2746C375.575 271.61774 376.91815 270.2746 378.575 270.2746C380.23184 270.2746 381.575 271.61774 381.575 273.2746Z" fill-rule="nonzero"/><path fill="#000000" fill-opacity="0.0" clip-path="url(#id_0)" d="M401.8625 270.77554C401.8625 272.43237 400.51935 273.77554 398.8625 273.77554C397.20566 273.77554 395.8625 272.43237 395.8625 270.77554C395.8625 269.11868 397.20566 267.77554 398.8625 267.77554C400.51935 267.77554 401.8625 269.11868 401.8625 270.77554Z" fill-rule="nonzero"/><path fill="#000000" fill-opacity="0.0" clip-path="url(#id_0)" d="M422.15 268.7589C422.15 270.41574 420.80685 271.7589 419.15 271.7589C417.49313 271.7589 416.15 270.41574 416.15 268.7589C416.15 267.10205 417.49313 265.7589 419.15 265.7589C420.80685 265.7589 422.15 267.10205 422.15 268.7589Z" fill-rule="nonzero"/><path fill="#000000" fill-opacity="0.0" clip-path="url(#id_0)" d="M442.4375 266.34122C442.4375 267.99808 441.09436 269.34122 439.4375 269.34122C437.78064 269.34122 436.4375 267.99808 436.4375 266.34122C436.4375 264.68436 437.78064 263.34122 439.4375 263.34122C441.09436 263.34122 442.4375 264.68436 442.4375 266.34122Z" fill-rule="nonzero"/><path fill="#000000" fill-opacity="0.0" clip-path="url(#id_0)" d="M462.725 263.3103C462.725 264.96716 461.38187 266.3103 459.725 266.3103C458.06815 266.3103 456.725 264.96716 456.725 263.3103C456.725 261.65347 458.06815 260.3103 459.725 260.3103C461.38187 260.3103 462.725 261.65347 462.725 263.3103Z" fill-rule="nonzero"/><path fill="#000000" fill-opacity="0.0" clip-path="url(#id_0)" d="M483.0125 260.74878C483.0125 262.4056 481.66934 263.74878 480.0125 263.74878C478.35565 263.74878 477.0125 262.4056 477.0125 260.74878C477.0125 259.09192 478.35565 257.74878 480.0125 257.74878C481.66934 257.74878 483.0125 259.09192 483.0125 260.74878Z" fill-rule="nonzero"/><path fill="#000000" fill-opacity="0.0" clip-path="url(#id_0)" d="M503.3 258.053C503.3 259.70987 501.95685 261.053 500.3 261.053C498.64316 261.053 497.3 259.70987 497.3 258.053C497.3 256.39618 498.64316 255.05302 500.3 255.05302C501.95685 255.05302 503.3 256.39618 503.3 258.053Z" fill-rule="nonzero"/><path fill="#000000" fill-opacity="0.0" clip-path="url(#id_0)" d="M523.5875 254.8642C523.5875 256.52106 522.2444 257.8642 520.5875 257.8642C518.93066 257.8642 517.5875 256.52106 517.5875 254.8642C517.5875 253.20735 518.93066 251.8642 520.5875 251.8642C522.2444 251.8642 523.5875 253.20735 523.5875 254.8642Z" fill-rule="nonzero"/><path fill="#000000" fill-opacity="0.0" clip-path="url(#id_0)" d="M543.875 250.95546C543.875 252.61232 542.53186 253.95546 540.875 253.95546C539.21814 253.95546 537.875 252.61232 537.875 250.95546C537.875 249.29861 539.21814 247.95546 540.875 247.95546C542.53186 247.95546 543.875 249.29861 543.875 250.95546Z" fill-rule="nonzero"/><path fill="#000000" fill-opacity="0.0" clip-path="url(#id_0)" d="M564.1625 246.66093C564.1625 248.31778 562.81934 249.66093 561.1625 249.66093C559.5056 249.66093 558.1625 248.31778 558.1625 246.66093C558.1625 245.00407 559.5056 243.66093 561.1625 243.66093C562.81934 243.66093 564.1625 245.00407 564.1625 246.66093Z" fill-rule="nonzero"/><path fill="#000000" fill-opacity="0.0" clip-path="url(#id_0)" d="M584.45 243.72466C584.45 245.38152 583.1069 246.72466 581.45 246.72466C579.79315 246.72466 578.45 245.38152 578.45 243.72466C578.45 242.06781 579.79315 240.72466 581.45 240.72466C583.1069 240.72466 584.45 242.06781 584.45 243.72466Z" fill-rule="nonzero"/><path fill="#000000" fill-opacity="0.0" clip-path="url(#id_0)" d="M97.55 287.45C97.55 289.10684 96.206856 290.45 94.55 290.45C92.89314 290.45 91.55 289.10684 91.55 287.45C91.55 285.79315 92.89314 284.45 94.55 284.45C96.206856 284.45 97.55 285.79315 97.55 287.45Z" fill-rule="nonzero"/><path fill="#000000" fill-opacity="0.0" clip-path="url(#id_0)" d="M117.8375 287.4079C117.8375 289.06476 116.494354 290.4079 114.8375 290.4079C113.18065 290.4079 111.8375 289.06476 111.8375 287.4079C111.8375 285.75104 113.18065 284.4079 114.8375 284.4079C116.494354 284.4079 117.8375 285.75104 117.8375 287.4079Z" fill-rule="nonzero"/><path fill="#000000" fill-opacity="0.0" clip-path="url(#id_0)" d="M138.125 287.2973C138.125 288.95416 136.78186 290.2973 135.125 290.2973C133.46814 290.2973 132.125 288.95416 132.125 287.2973C132.125 285.64047 133.46814 284.2973 135.125 284.2973C136.78186 284.2973 138.125 285.64047 138.125 287.2973Z" fill-rule="nonzero"/><path fill="#000000" fill-opacity="0.0" clip-path="url(#id_0)" d="M158.4125 287.1034C158.4125 288.76025 157.06935 290.1034 155.4125 290.1034C153.75565 290.1034 152.4125 288.76025 152.4125 287.1034C152.4125 285.44656 153.75565 284.1034 155.4125 284.1034C157.06935 284.1034 158.4125 285.44656 158.4125 287.1034Z" fill-rule="nonzero"/><path fill="#000000" fill-opacity="0.0" clip-path="url(#id_0)" d="M178.7 286.83972C178.7 288.49658 177.35686 289.83972 175.7 289.83972C174.04315 289.83972 172.7 288.49658 172.7 286.83972C172.7 285.18286 174.04315 283.83972 175.7 283.83972C177.35686 283.83972 178.7 285.18286 178.7 286.83972Z" fill-rule="nonzero"/><path fill="#000000" fill-opacity="0.0" clip-path="url(#id_0)" d="M198.9875 286.44806C198.9875 288.1049 197.64435 289.44806 195.9875 289.44806C194.33064 289.44806 192.9875 288.1049 192.9875 286.44806C192.9875 284.7912 194.33064 283.44806 195.9875 283.44806C197.64435 283.44806 198.9875 284.7912 198.9875 286.44806Z" fill-rule="nonzero"/><path fill="#000000" fill-opacity="0.0" clip-path="url(#id_0)" d="M219.275 286.08038C219.275 287.73724 217.93185 289.08038 216.275 289.08038C214.61815 289.08038 213.275 287.73724 213.275 286.08038C213.275 284.42352 214.61815 283.08038 216.275 283.08038C217.93185 283.08038 219.275 284.42352 219.275 286.08038Z" fill-rule="nonzero"/><path fill="#000000" fill-opacity="0.0" clip-path="url(#id_0)" d="M239.5625 285.3646C239.5625 287.02145 238.21936 288.3646 236.5625 288.3646C234.90564 288.3646 233.5625 287.02145 233.5625 285.3646C233.5625 283.70773 234.90564 282.3646 236.5625 282.3646C238.21936 282.3646 239.5625 283.70773 239.5625 285.3646Z" fill-rule="nonzero"/><path fill="#000000" fill-opacity="0.0" clip-path="url(#id_0)" d="M259.85 284.9305C259.85 286.58734 258.50687 287.9305 256.85 287.9305C255.19315 287.9305 253.85 286.58734 253.85 284.9305C253.85 283.27365 255.19315 281.9305 256.85 281.9305C258.50687 281.9305 259.85 283.27365 259.85 284.9305Z" fill-rule="nonzero"/><path fill="#000000" fill-opacity="0.0" clip-path="url(#id_0)" d="M280.1375 284.23145C280.1375 285.88828 278.79434 287.23145 277.1375 287.23145C275.48065 287.23145 274.1375 285.88828 274.1375 284.23145C274.1375 282.5746 275.48065 281.23145 277.1375 281.23145C278.79434 281.23145 280.1375 282.5746 280.1375 284.23145Z" fill-rule="nonzero"/><path fill="#000000" fill-opacity="0.0" clip-path="url(#id_0)" d="M300.425 283.63013C300.425 285.287 299.08185 286.63013 297.425 286.63013C295.76816 286.63013 294.425 285.287 294.425 283.63013C294.425 281.97327 295.76816 280.63013 297.425 280.63013C299.08185 280.63013 300.425 281.97327 300.425 283.63013Z" fill-rule="nonzero"/><path fill="#000000" fill-opacity="0.0" clip-path="url(#id_0)" d="M320.7125 282.86145C320.7125 284.5183 319.36935 285.86145 317.7125 285.86145C316.05563 285.86145 314.7125 284.5183 314.7125 282.86145C314.7125 281.20462 316.05563 279.86145 317.7125 279.86145C319.36935 279.86145 320.7125 281.20462 320.7125 282.86145Z" fill-rule="nonzero"/><path fill="#000000" fill-opacity="0.0" clip-path="url(#id_0)" d="M341.0 282.07858C341.0 283.73544 339.65686 285.07858 338.0 285.07858C336.34314 285.07858 335.0 283.73544 335.0 282.07858C335.0 280.42175 336.34314 279.07858 338.0 279.07858C339.65686 279.07858 341.0 280.42175 341.0 282.07858Z" fill-rule="nonzero"/><path fill="#000000" fill-opacity="0.0" clip-path="url(#id_0)" d="M361.2875 281.27985C361.2875 282.9367 359.94437 284.27985 358.2875 284.27985C356.63065 284.27985 355.2875 282.9367 355.2875 281.27985C355.2875 279.62302 356.63065 278.27985 358.2875 278.27985C359.94437 278.27985 361.2875 279.62302 361.2875 281.27985Z" fill-rule="nonzero"/><path fill="#000000" fill-opacity="0.0" clip-path="url(#id_0)" d="M381.575 280.11868C381.575 281.7755 380.23184 283.11868 378.575 283.11868C376.91815 283.11868 375.575 281.7755 375.575 280.11868C375.575 278.46182 376.91815 277.11868 378.575 277.11868C380.23184 277.11868 381.575 278.46182 381.575 280.11868Z" fill-rule="nonzero"/><path fill="#000000" fill-opacity="0.0" clip-path="url(#id_0)" d="M401.8625 279.0426C401.8625 280.69943 400.51935 282.0426 398.8625 282.0426C397.20566 282.0426 395.8625 280.69943 395.8625 279.0426C395.8625 277.38574 397.20566 276.0426 398.8625 276.0426C400.51935 276.0426 401.8625 277.38574 401.8625 279.0426Z" fill-rule="nonzero"/><path fill="#000000" fill-opacity="0.0" clip-path="url(#id_0)" d="M422.15 278.06918C422.15 279.72604 420.80685 281.06918 419.15 281.06918C417.49313 281.06918 416.15 279.72604 416.15 278.06918C416.15 276.41232 417.49313 275.06918 419.15 275.06918C420.80685 275.06918 422.15 276.41232 422.15 278.06918Z" fill-rule="nonzero"/><path fill="#000000" fill-opacity="0.0" clip-path="url(#id_0)" d="M442.4375 276.81067C442.4375 278.46753 441.09436 279.81067 439.4375 279.81067C437.78064 279.81067 436.4375 278.46753 436.4375 276.81067C436.4375 275.1538 437.78064 273.81067 439.4375 273.81067C441.09436 273.81067 442.4375 275.1538 442.4375 276.81067Z" fill-rule="nonzero"/><path fill="#000000" fill-opacity="0.0" clip-path="url(#id_0)" d="M462.725 274.70572C462.725 276.36258 461.38187 277.70572 459.725 277.70572C458.06815 277.70572 456.725 276.36258 456.725 274.70572C456.725 273.04886 458.06815 271.70572 459.725 271.70572C461.38187 271.70572 462.725 273.04886 462.725 274.70572Z" fill-rule="nonzero"/><path fill="#000000" fill-opacity="0.0" clip-path="url(#id_0)" d="M483.0125 274.18704C483.0125 275.8439 481.66934 277.18704 480.0125 277.18704C478.35565 277.18704 477.0125 275.8439 477.0125 274.18704C477.0125 272.53018 478.35565 271.18704 480.0125 271.18704C481.66934 271.18704 483.0125 272.53018 483.0125 274.18704Z" fill-rule="nonzero"/><path fill="#000000" fill-opacity="0.0" clip-path="url(#id_0)" d="M503.3 272.64136C503.3 274.29822 501.95685 275.64136 500.3 275.64136C498.64316 275.64136 497.3 274.29822 497.3 272.64136C497.3 270.98453 498.64316 269.64136 500.3 269.64136C501.95685 269.64136 503.3 270.98453 503.3 272.64136Z" fill-rule="nonzero"/><path fill="#000000" fill-opacity="0.0" clip-path="url(#id_0)" d="M523.5875 271.06476C523.5875 272.72162 522.2444 274.06476 520.5875 274.06476C518.93066 274.06476 517.5875 272.72162 517.5875 271.06476C517.5875 269.40793 518.93066 268.06476 520.5875 268.06476C522.2444 268.06476 523.5875 269.40793 523.5875 271.06476Z" fill-rule="nonzero"/><path fill="#000000" fill-opacity="0.0" clip-path="url(#id_0)" d="M543.875 269.6521C543.875 271.30896 542.53186 272.6521 540.875 272.6521C539.21814 272.6521 537.875 271.30896 537.875 269.6521C537.875 267.99524 539.21814 266.6521 540.875 266.6521C542.53186 266.6521 543.875 267.99524 543.875 269.6521Z" fill-rule="nonzero"/><path fill="#000000" fill-opacity="0.0" clip-path="url(#id_0)" d="M564.1625 266.36328C564.1625 268.02014 562.81934 269.36328 561.1625 269.36328C559.5056 269.36328 558.1625 268.02014 558.1625 266.36328C558.1625 264.70645 559.5056 263.36328 561.1625 263.36328C562.81934 263.36328 564.1625 264.70645 564.1625 266.36328Z" fill-rule="nonzero"/><path fill="#000000" fill-opacity="0.0" clip-path="url(#id_0)" d="M584.45 265.8497C584.45 267.50656 583.1069 268.8497 581.45 268.8497C579.79315 268.8497 578.45 267.50656 578.45 265.8497C578.45 264.19284 579.79315 262.8497 581.45 262.8497C583.1069 262.8497 584.45 264.19284 584.45 265.8497Z" fill-rule="nonzero"/><path fill="#000000" fill-opacity="0.0" clip-path="url(#id_0)" d="M97.55 287.45C97.55 289.10684 96.206856 290.45 94.55 290.45C92.89314 290.45 91.55 289.10684 91.55 287.45C91.55 285.79315 92.89314 284.45 94.55 284.45C96.206856 284.45 97.55 285.79315 97.55 287.45Z" fill-rule="nonzero"/><path fill="#000000" fill-opacity="0.0" clip-path="url(#id_0)" d="M117.8375 287.44348C117.8375 289.1003 116.494354 290.44348 114.8375 290.44348C113.18065 290.44348 111.8375 289.1003 111.8375 287.44348C111.8375 285.78662 113.18065 284.44348 114.8375 284.44348C116.494354 284.44348 117.8375 285.78662 117.8375 287.44348Z" fill-rule="nonzero"/><path fill="#000000" fill-opacity="0.0" clip-path="url(#id_0)" d="M138.125 287.4368C138.125 289.09366 136.78186 290.4368 135.125 290.4368C133.46814 290.4368 132.125 289.09366 132.125 287.4368C132.125 285.77994 133.46814 284.4368 135.125 284.4368C136.78186 284.4368 138.125 285.77994 138.125 287.4368Z" fill-rule="nonzero"/><path fill="#000000" fill-opacity="0.0" clip-path="url(#id_0)" d="M158.4125 287.4302C158.4125 289.08707 157.06935 290.4302 155.4125 290.4302C153.75565 290.4302 152.4125 289.08707 152.4125 287.4302C152.4125 285.77338 153.75565 284.4302 155.4125 284.4302C157.06935 284.4302 158.4125 285.77338 158.4125 287.4302Z" fill-rule="nonzero"/><path fill="#000000" fill-opacity="0.0" clip-path="url(#id_0)" d="M178.7 287.41974C178.7 289.0766 177.35686 290.41974 175.7 290.41974C174.04315 290.41974 172.7 289.0766 172.7 287.41974C172.7 285.76288 174.04315 284.41974 175.7 284.41974C177.35686 284.41974 178.7 285.76288 178.7 287.41974Z" fill-rule="nonzero"/><path fill="#000000" fill-opacity="0.0" clip-path="url(#id_0)" d="M198.9875 287.38864C198.9875 289.0455 197.64435 290.38864 195.9875 290.38864C194.33064 290.38864 192.9875 289.0455 192.9875 287.38864C192.9875 285.73178 194.33064 284.38864 195.9875 284.38864C197.64435 284.38864 198.9875 285.73178 198.9875 287.38864Z" fill-rule="nonzero"/><path fill="#000000" fill-opacity="0.0" clip-path="url(#id_0)" d="M219.275 287.3896C219.275 289.04645 217.93185 290.3896 216.275 290.3896C214.61815 290.3896 213.275 289.04645 213.275 287.3896C213.275 285.73273 214.61815 284.3896 216.275 284.3896C217.93185 284.3896 219.275 285.73273 219.275 287.3896Z" fill-rule="nonzero"/><path fill="#000000" fill-opacity="0.0" clip-path="url(#id_0)" d="M239.5625 287.385C239.5625 289.04184 238.21936 290.385 236.5625 290.385C234.90564 290.385 233.5625 289.04184 233.5625 287.385C233.5625 285.72815 234.90564 284.385 236.5625 284.385C238.21936 284.385 239.5625 285.72815 239.5625 287.385Z" fill-rule="nonzero"/><path fill="#000000" fill-opacity="0.0" clip-path="url(#id_0)" d="M259.85 287.38028C259.85 289.03714 258.50687 290.38028 256.85 290.38028C255.19315 290.38028 253.85 289.03714 253.85 287.38028C253.85 285.72342 255.19315 284.38028 256.85 284.38028C258.50687 284.38028 259.85 285.72342 259.85 287.38028Z" fill-rule="nonzero"/><path fill="#000000" fill-opacity="0.0" clip-path="url(#id_0)" d="M280.1375 287.3642C280.1375 289.02106 278.79434 290.3642 277.1375 290.3642C275.48065 290.3642 274.1375 289.02106 274.1375 287.3642C274.1375 285.70737 275.48065 284.3642 277.1375 284.3642C278.79434 284.3642 280.1375 285.70737 280.1375 287.3642Z" fill-rule="nonzero"/><path fill="#000000" fill-opacity="0.0" clip-path="url(#id_0)" d="M300.425 287.3689C300.425 289.02576 299.08185 290.3689 297.425 290.3689C295.76816 290.3689 294.425 289.02576 294.425 287.3689C294.425 285.71207 295.76816 284.3689 297.425 284.3689C299.08185 284.3689 300.425 285.71207 300.425 287.3689Z" fill-rule="nonzero"/><path fill="#000000" fill-opacity="0.0" clip-path="url(#id_0)" d="M320.7125 287.3245C320.7125 288.98135 319.36935 290.3245 317.7125 290.3245C316.05563 290.3245 314.7125 288.98135 314.7125 287.3245C314.7125 285.66766 316.05563 284.3245 317.7125 284.3245C319.36935 284.3245 320.7125 285.66766 320.7125 287.3245Z" fill-rule="nonzero"/><path fill="#000000" fill-opacity="0.0" clip-path="url(#id_0)" d="M341.0 287.34436C341.0 289.00122 339.65686 290.34436 338.0 290.34436C336.34314 290.34436 335.0 289.00122 335.0 287.34436C335.0 285.6875 336.34314 284.34436 338.0 284.34436C339.65686 284.34436 341.0 285.6875 341.0 287.34436Z" fill-rule="nonzero"/><path fill="#000000" fill-opacity="0.0" clip-path="url(#id_0)" d="M361.2875 287.341C361.2875 288.99786 359.94437 290.341 358.2875 290.341C356.63065 290.341 355.2875 288.99786 355.2875 287.341C355.2875 285.68414 356.63065 284.341 358.2875 284.341C359.94437 284.341 361.2875 285.68414 361.2875 287.341Z" fill-rule="nonzero"/><path fill="#000000" fill-opacity="0.0" clip-path="url(#id_0)" d="M381.575 287.3298C381.575 288.98666 380.23184 290.3298 378.575 290.3298C376.91815 290.3298 375.575 288.98666 375.575 287.3298C375.575 285.67297 376.91815 284.3298 378.575 284.3298C380.23184 284.3298 381.575 285.67297 381.575 287.3298Z" fill-rule="nonzero"/><path fill="#000000" fill-opacity="0.0" clip-path="url(#id_0)" d="M401.8625 287.31625C401.8625 288.9731 400.51935 290.31625 398.8625 290.31625C397.20566 290.31625 395.8625 288.9731 395.8625 287.31625C395.8625 285.65942 397.20566 284.31625 398.8625 284.31625C400.51935 284.31625 401.8625 285.65942 401.8625 287.31625Z" fill-rule="nonzero"/><path fill="#000000" fill-opacity="0.0" clip-path="url(#id_0)" d="M422.15 287.3227C422.15 288.97955 420.80685 290.3227 419.15 290.3227C417.49313 290.3227 416.15 288.97955 416.15 287.3227C416.15 285.66583 417.49313 284.3227 419.15 284.3227C420.80685 284.3227 422.15 285.66583 422.15 287.3227Z" fill-rule="nonzero"/><path fill="#000000" fill-opacity="0.0" clip-path="url(#id_0)" d="M442.4375 287.30304C442.4375 288.95987 441.09436 290.30304 439.4375 290.30304C437.78064 290.30304 436.4375 288.95987 436.4375 287.30304C436.4375 285.64618 437.78064 284.30304 439.4375 284.30304C441.09436 284.30304 442.4375 285.64618 442.4375 287.30304Z" fill-rule="nonzero"/><path fill="#000000" fill-opacity="0.0" clip-path="url(#id_0)" d="M462.725 287.30133C462.725 288.9582 461.38187 290.30133 459.725 290.30133C458.06815 290.30133 456.725 288.9582 456.725 287.30133C456.725 285.64447 458.06815 284.30133 459.725 284.30133C461.38187 284.30133 462.725 285.64447 462.725 287.30133Z" fill-rule="nonzero"/><path fill="#000000" fill-opacity="0.0" clip-path="url(#id_0)" d="M483.0125 287.2899C483.0125 288.94675 481.66934 290.2899 480.0125 290.2899C478.35565 290.2899 477.0125 288.94675 477.0125 287.2899C477.0125 285.63306 478.35565 284.2899 480.0125 284.2899C481.66934 284.2899 483.0125 285.63306 483.0125 287.2899Z" fill-rule="nonzero"/><path fill="#000000" fill-opacity="0.0" clip-path="url(#id_0)" d="M503.3 287.28552C503.3 288.94238 501.95685 290.28552 500.3 290.28552C498.64316 290.28552 497.3 288.94238 497.3 287.28552C497.3 285.6287 498.64316 284.28552 500.3 284.28552C501.95685 284.28552 503.3 285.6287 503.3 287.28552Z" fill-rule="nonzero"/><path fill="#000000" fill-opacity="0.0" clip-path="url(#id_0)" d="M523.5875 287.272C523.5875 288.92886 522.2444 290.272 520.5875 290.272C518.93066 290.272 517.5875 288.92886 517.5875 287.272C517.5875 285.61514 518.93066 284.272 520.5875 284.272C522.2444 284.272 523.5875 285.61514 523.5875 287.272Z" fill-rule="nonzero"/><path fill="#000000" fill-opacity="0.0" clip-path="url(#id_0)" d="M543.875 287.25034C543.875 288.90717 542.53186 290.25034 540.875 290.25034C539.21814 290.25034 537.875 288.90717 537.875 287.25034C537.875 285.59348 539.21814 284.25034 540.875 284.25034C542.53186 284.25034 543.875 285.59348 543.875 287.25034Z" fill-rule="nonzero"/><path fill="#000000" fill-opacity="0.0" clip-path="url(#id_0)" d="M564.1625 287.24097C564.1625 288.89783 562.81934 290.24097 561.1625 290.24097C559.5056 290.24097 558.1625 288.89783 558.1625 287.24097C558.1625 285.5841 559.5056 284.24097 561.1625 284.24097C562.81934 284.24097 564.1625 285.5841 564.1625 287.24097Z" fill-rule="nonzero"/><path fill="#000000" fill-opacity="0.0" clip-path="url(#id_0)" d="M584.45 287.2422C584.45 288.89905 583.1069 290.2422 581.45 290.2422C579.79315 290.2422 578.45 288.89905 578.45 287.2422C578.45 285.58533 579.79315 284.2422 581.45 284.2422C583.1069 284.2422 584.45 285.58533 584.45 287.2422Z" fill-rule="nonzero"/><path fill="#000000" d="M270.33887 351.45L268.63574 351.45L262.19824 341.59064L262.19824 351.45L260.49512 351.45L260.49512 338.65314L262.19824 338.65314L268.65137 348.5594L268.65137 338.65314L270.33887 338.65314L270.33887 351.45ZM279.12012 350.5125Q278.167 351.6219 276.32324 351.6219Q274.80762 351.6219 274.01074 350.7469Q273.21387 349.85626 273.21387 348.1219L273.21387 341.9344L274.83887 341.9344L274.83887 348.09064Q274.83887 350.2469 276.58887 350.2469Q278.44824 350.2469 279.07324 348.85626L279.07324 341.9344L280.69824 341.9344L280.69824 351.45L279.15137 351.45L279.12012 350.5125ZM284.77637 341.9344L284.80762 342.9969Q285.8545 341.7625 287.63574 341.7625Q289.63574 341.7625 290.3545 343.29376Q290.82324 342.60626 291.58887 342.1844Q292.3545 341.7625 293.38574 341.7625Q296.51074 341.7625 296.57324 345.075L296.57324 351.45L294.93262 351.45L294.93262 345.16876Q294.93262 344.15314 294.46387 343.65314Q294.01074 343.1375 292.917 343.1375Q292.01074 343.1375 291.40137 343.6844Q290.80762 344.23126 290.71387 345.1375L290.71387 351.45L289.07324 351.45L289.07324 345.21564Q289.07324 343.1375 287.042 343.1375Q285.44824 343.1375 284.8545 344.5125L284.8545 351.45L283.2295 351.45L283.2295 341.9344L284.77637 341.9344ZM307.292 346.79376Q307.292 348.98126 306.292 350.3094Q305.292 351.6219 303.6045 351.6219Q301.792 351.6219 300.80762 350.35626L300.7295 351.45L299.24512 351.45L299.24512 337.95L300.87012 337.95L300.87012 342.98126Q301.8545 341.7625 303.57324 341.7625Q305.30762 341.7625 306.292 343.075Q307.292 344.3875 307.292 346.65314L307.292 346.79376ZM305.667 346.6219Q305.667 344.95 305.02637 344.04376Q304.38574 343.1375 303.18262 343.1375Q301.57324 343.1375 300.87012 344.6375L300.87012 348.7469Q301.62012 350.2469 303.19824 350.2469Q304.37012 350.2469 305.01074 349.34064Q305.667 348.4344 305.667 346.6219ZM313.18262 351.6219Q311.26074 351.6219 310.042 350.35626Q308.82324 349.09064 308.82324 346.96564L308.82324 346.65314Q308.82324 345.2469 309.37012 344.1375Q309.917 343.02814 310.88574 342.40314Q311.8545 341.7625 312.9795 341.7625Q314.83887 341.7625 315.87012 342.98126Q316.90137 344.2 316.90137 346.48126L316.90137 347.15314L310.44824 347.15314Q310.49512 348.5594 311.27637 349.4344Q312.05762 350.29376 313.27637 350.29376Q314.13574 350.29376 314.7295 349.95Q315.33887 349.59064 315.77637 349.0125L316.77637 349.79376Q315.57324 351.6219 313.18262 351.6219ZM312.9795 343.10626Q311.99512 343.10626 311.32324 343.825Q310.667 344.52814 310.51074 345.825L315.27637 345.825L315.27637 345.7Q315.19824 344.46564 314.6045 343.79376Q314.01074 343.10626 312.9795 343.10626ZM323.83887 343.40314Q323.46387 343.34064 323.042 343.34064Q321.43262 343.34064 320.87012 344.7L320.87012 351.45L319.24512 351.45L319.24512 341.9344L320.82324 341.9344L320.8545 343.04376Q321.65137 341.7625 323.12012 341.7625Q323.58887 341.7625 323.83887 341.8875L323.83887 343.40314ZM328.80762 346.60626Q328.80762 345.21564 329.3545 344.10626Q329.917 342.98126 330.88574 342.3719Q331.87012 341.7625 333.12012 341.7625Q335.07324 341.7625 336.26074 343.10626Q337.46387 344.45 337.46387 346.6844L337.46387 346.79376Q337.46387 348.1844 336.93262 349.29376Q336.40137 350.3875 335.417 351.0125Q334.43262 351.6219 333.15137 351.6219Q331.21387 351.6219 330.01074 350.27814Q328.80762 348.9344 328.80762 346.71564L328.80762 346.60626ZM330.44824 346.79376Q330.44824 348.3875 331.18262 349.34064Q331.917 350.29376 333.15137 350.29376Q334.38574 350.29376 335.1045 349.325Q335.83887 348.35626 335.83887 346.60626Q335.83887 345.04376 335.08887 344.075Q334.3545 343.10626 333.12012 343.10626Q331.917 343.10626 331.18262 344.0594Q330.44824 345.0125 330.44824 346.79376ZM340.042 351.45L340.042 343.2L338.542 343.2L338.542 341.9344L340.042 341.9344L340.042 340.96564Q340.042 339.4344 340.8545 338.60626Q341.68262 337.7625 343.167 337.7625Q343.7295 337.7625 344.292 337.91876L344.19824 339.23126Q343.792 339.15314 343.32324 339.15314Q342.52637 339.15314 342.08887 339.6219Q341.667 340.075 341.667 340.9344L341.667 341.9344L343.69824 341.9344L343.69824 343.2L341.667 343.2L341.667 351.45L340.042 351.45ZM351.90137 347.04376L350.87012 348.10626L350.87012 351.45L349.24512 351.45L349.24512 337.95L350.87012 337.95L350.87012 346.1219L351.74512 345.075L354.71387 341.9344L356.68262 341.9344L352.9795 345.91876L357.12012 351.45L355.21387 351.45L351.90137 347.04376ZM362.18262 351.6219Q360.26074 351.6219 359.042 350.35626Q357.82324 349.09064 357.82324 346.96564L357.82324 346.65314Q357.82324 345.2469 358.37012 344.1375Q358.917 343.02814 359.88574 342.40314Q360.8545 341.7625 361.9795 341.7625Q363.83887 341.7625 364.87012 342.98126Q365.90137 344.2 365.90137 346.48126L365.90137 347.15314L359.44824 347.15314Q359.49512 348.5594 360.27637 349.4344Q361.05762 350.29376 362.27637 350.29376Q363.13574 350.29376 363.7295 349.95Q364.33887 349.59064 364.77637 349.0125L365.77637 349.79376Q364.57324 351.6219 362.18262 351.6219ZM361.9795 343.10626Q360.99512 343.10626 360.32324 343.825Q359.667 344.52814 359.51074 345.825L364.27637 345.825L364.27637 345.7Q364.19824 344.46564 363.6045 343.79376Q363.01074 343.10626 361.9795 343.10626ZM371.3545 349.075L373.57324 341.9344L375.30762 341.9344L371.4795 352.91876Q370.6045 355.29376 368.667 355.29376L368.3545 355.2625L367.74512 355.15314L367.74512 353.825L368.18262 353.8719Q369.01074 353.8719 369.46387 353.52814Q369.93262 353.2 370.2295 352.3094L370.6045 351.34064L367.19824 341.9344L368.9795 341.9344L371.3545 349.075ZM382.77637 348.9344Q382.77637 348.2625 382.27637 347.90314Q381.792 347.54376 380.55762 347.27814Q379.32324 347.0125 378.58887 346.65314Q377.87012 346.27814 377.51074 345.7625Q377.167 345.2469 377.167 344.54376Q377.167 343.3875 378.15137 342.575Q379.15137 341.7625 380.68262 341.7625Q382.30762 341.7625 383.30762 342.60626Q384.32324 343.4344 384.32324 344.73126L382.68262 344.73126Q382.68262 344.0594 382.1045 343.59064Q381.542 343.10626 380.68262 343.10626Q379.792 343.10626 379.292 343.4969Q378.792 343.8719 378.792 344.4969Q378.792 345.09064 379.26074 345.3875Q379.7295 345.6844 380.94824 345.96564Q382.167 346.23126 382.917 346.60626Q383.68262 346.98126 384.042 347.5125Q384.40137 348.04376 384.40137 348.8094Q384.40137 350.09064 383.38574 350.85626Q382.37012 351.6219 380.74512 351.6219Q379.6045 351.6219 378.71387 351.21564Q377.83887 350.8094 377.33887 350.09064Q376.83887 349.3719 376.83887 348.52814L378.4795 348.52814Q378.51074 349.34064 379.12012 349.825Q379.74512 350.29376 380.74512 350.29376Q381.667 350.29376 382.21387 349.91876Q382.77637 349.54376 382.77637 348.9344ZM390.18262 346.2625Q390.18262 344.2625 390.71387 342.4344Q391.24512 340.60626 392.292 339.1219Q393.3545 337.6219 394.4795 337.0125L394.82324 338.075Q393.542 339.0594 392.71387 341.09064Q391.90137 343.10626 391.80762 345.60626L391.80762 346.35626Q391.80762 349.7469 393.042 352.2469Q393.792 353.7469 394.82324 354.59064L394.4795 355.575Q393.32324 354.9344 392.26074 353.40314Q390.18262 350.41876 390.18262 346.2625ZM398.90137 347.04376L397.87012 348.10626L397.87012 351.45L396.24512 351.45L396.24512 337.95L397.87012 337.95L397.87012 346.1219L398.74512 345.075L401.71387 341.9344L403.68262 341.9344L399.9795 345.91876L404.12012 351.45L402.21387 351.45L398.90137 347.04376ZM408.99512 346.34064Q408.99512 348.3094 408.4795 350.10626Q407.96387 351.90314 406.90137 353.41876Q405.8545 354.9344 404.68262 355.575L404.33887 354.59064Q405.69824 353.54376 406.51074 351.3719Q407.33887 349.1844 407.3545 346.5125L407.3545 346.23126Q407.3545 344.3875 406.96387 342.8094Q406.58887 341.21564 405.90137 339.96564Q405.21387 338.7 404.33887 337.9969L404.68262 337.0125Q405.8545 337.65314 406.90137 339.15314Q407.94824 340.65314 408.46387 342.46564Q408.99512 344.27814 408.99512 346.34064Z" fill-rule="nonzero"/><path fill="#000000" d="M35.55001 269.38647L35.55001 271.07397L22.753138 271.07397L22.753138 269.38647L35.55001 269.38647ZM26.034388 264.91772L27.237513 264.85522Q25.862513 263.7771 25.862513 262.01147Q25.862513 258.99585 29.268763 258.98022L35.55001 258.98022L35.55001 260.60522L29.253138 260.60522Q28.221888 260.60522 27.737513 261.07397Q27.237513 261.5271 27.237513 262.51147Q27.237513 263.29272 27.659388 263.9021Q28.081263 264.49585 28.768763 264.82397L35.55001 264.82397L35.55001 266.44897L26.034388 266.44897L26.034388 264.91772ZM33.034386 250.91771Q32.36251 250.91771 32.003136 251.41771Q31.643763 251.90208 31.378138 253.13646Q31.112513 254.37083 30.753138 255.10521Q30.378138 255.82396 29.862513 256.18335Q29.346888 256.5271 28.643763 256.5271Q27.487513 256.5271 26.675013 255.54271Q25.862513 254.54271 25.862513 253.01146Q25.862513 251.38646 26.706263 250.38646Q27.534388 249.37083 28.831263 249.37083L28.831263 251.01146Q28.159388 251.01146 27.690638 251.58958Q27.206263 252.15208 27.206263 253.01146Q27.206263 253.90208 27.596888 254.40208Q27.971888 254.90208 28.596888 254.90208Q29.190638 254.90208 29.487513 254.43333Q29.784388 253.96458 30.065638 252.74583Q30.331263 251.52708 30.706263 250.77708Q31.081263 250.01146 31.612513 249.65208Q32.14376 249.29271 32.909386 249.29271Q34.190636 249.29271 34.95626 250.30833Q35.721886 251.32396 35.721886 252.94896Q35.721886 254.08958 35.315636 254.98021Q34.909386 255.85521 34.190636 256.35522Q33.471886 256.85522 32.628136 256.85522L32.628136 255.21458Q33.440636 255.18333 33.92501 254.57396Q34.39376 253.94896 34.39376 252.94896Q34.39376 252.02708 34.01876 251.48021Q33.64376 250.91771 33.034386 250.91771ZM35.721886 243.51146Q35.721886 245.43333 34.45626 246.65208Q33.190636 247.87083 31.065638 247.87083L30.753138 247.87083Q29.346888 247.87083 28.237513 247.32396Q27.128138 246.77708 26.503138 245.80833Q25.862513 244.83958 25.862513 243.71458Q25.862513 241.85521 27.081263 240.82396Q28.300013 239.79271 30.581263 239.79271L31.253138 239.79271L31.253138 246.24583Q32.659386 246.19896 33.534386 245.41771Q34.39376 244.63646 34.39376 243.41771Q34.39376 242.55833 34.05001 241.96458Q33.690636 241.35521 33.11251 240.91771L33.89376 239.91771Q35.721886 241.12083 35.721886 243.51146ZM27.206263 243.71458Q27.206263 244.69896 27.925013 245.37083Q28.628138 246.02708 29.925013 246.18333L29.925013 241.41771L29.800013 241.41771Q28.565638 241.49583 27.893763 242.08958Q27.206263 242.68333 27.206263 243.71458ZM27.503138 232.85521Q27.440638 233.23021 27.440638 233.65208Q27.440638 235.26146 28.800013 235.82396L35.55001 235.82396L35.55001 237.44896L26.034388 237.44896L26.034388 235.87083L27.143763 235.83958Q25.862513 235.04271 25.862513 233.57396Q25.862513 233.10521 25.987513 232.85521L27.503138 232.85521ZM23.737513 229.24583L26.034388 229.24583L26.034388 227.46458L27.300013 227.46458L27.300013 229.24583L33.190636 229.24583Q33.76876 229.24583 34.05001 229.01146Q34.33126 228.77708 34.33126 228.19896Q34.33126 227.91771 34.23751 227.43333L35.55001 227.43333Q35.721886 228.07396 35.721886 228.66771Q35.721886 229.76146 35.065636 230.32396Q34.409386 230.87083 33.190636 230.87083L27.300013 230.87083L27.300013 232.60521L26.034388 232.60521L26.034388 230.87083L23.737513 230.87083L23.737513 229.24583ZM35.55001 223.68333L35.55001 225.30833L26.034388 225.30833L26.034388 223.68333L35.55001 223.68333ZM23.518763 225.44896Q23.128138 225.44896 22.862513 225.21458Q22.581263 224.96458 22.581263 224.49583Q22.581263 224.01146 22.862513 223.76146Q23.128138 223.51146 23.518763 223.51146Q23.909388 223.51146 24.175013 223.76146Q24.440638 224.01146 24.440638 224.49583Q24.440638 224.96458 24.175013 225.21458Q23.909388 225.44896 23.518763 225.44896ZM30.706263 221.88646Q29.315638 221.88646 28.206263 221.33958Q27.081263 220.77708 26.471888 219.80833Q25.862513 218.82396 25.862513 217.57396Q25.862513 215.62083 27.206263 214.43333Q28.550013 213.23021 30.784388 213.23021L30.893763 213.23021Q32.284386 213.23021 33.39376 213.76146Q34.48751 214.29271 35.11251 215.27708Q35.721886 216.26146 35.721886 217.54271Q35.721886 219.48021 34.378136 220.68333Q33.034386 221.88646 30.815638 221.88646L30.706263 221.88646ZM30.893763 220.24583Q32.48751 220.24583 33.440636 219.51146Q34.39376 218.77708 34.39376 217.54271Q34.39376 216.30833 33.42501 215.58958Q32.45626 214.85521 30.706263 214.85521Q29.143763 214.85521 28.175013 215.60521Q27.206263 216.33958 27.206263 217.57396Q27.206263 218.77708 28.159388 219.51146Q29.112513 220.24583 30.893763 220.24583ZM26.034388 209.91771L27.237513 209.85521Q25.862513 208.77708 25.862513 207.01146Q25.862513 203.99583 29.268763 203.98021L35.55001 203.98021L35.55001 205.60521L29.253138 205.60521Q28.221888 205.60521 27.737513 206.07396Q27.237513 206.52708 27.237513 207.51146Q27.237513 208.29271 27.659388 208.90208Q28.081263 209.49583 28.768763 209.82396L35.55001 209.82396L35.55001 211.44896L26.034388 211.44896L26.034388 209.91771ZM23.737513 195.24583L26.034388 195.24583L26.034388 193.46458L27.300013 193.46458L27.300013 195.24583L33.190636 195.24583Q33.76876 195.24583 34.05001 195.01146Q34.33126 194.77708 34.33126 194.19896Q34.33126 193.91771 34.23751 193.43333L35.55001 193.43333Q35.721886 194.07396 35.721886 194.66771Q35.721886 195.76146 35.065636 196.32396Q34.409386 196.87083 33.190636 196.87083L27.300013 196.87083L27.300013 198.60521L26.034388 198.60521L26.034388 196.87083L23.737513 196.87083L23.737513 195.24583ZM35.55001 189.68333L35.55001 191.30833L26.034388 191.30833L26.034388 189.68333L35.55001 189.68333ZM23.518763 191.44896Q23.128138 191.44896 22.862513 191.21458Q22.581263 190.96458 22.581263 190.49583Q22.581263 190.01146 22.862513 189.76146Q23.128138 189.51146 23.518763 189.51146Q23.909388 189.51146 24.175013 189.76146Q24.440638 190.01146 24.440638 190.49583Q24.440638 190.96458 24.175013 191.21458Q23.909388 191.44896 23.518763 191.44896ZM26.034388 185.91771L27.096888 185.88646Q25.862513 184.83958 25.862513 183.05833Q25.862513 181.05833 27.393763 180.33958Q26.706263 179.87083 26.284388 179.10521Q25.862513 178.33958 25.862513 177.30833Q25.862513 174.18333 29.175013 174.12083L35.55001 174.12083L35.55001 175.76146L29.268763 175.76146Q28.253138 175.76146 27.753138 176.23021Q27.237513 176.68333 27.237513 177.77708Q27.237513 178.68333 27.784388 179.29271Q28.331263 179.88646 29.237513 179.98021L35.55001 179.98021L35.55001 181.62083L29.315638 181.62083Q27.237513 181.62083 27.237513 183.65208Q27.237513 185.24583 28.612513 185.83958L35.55001 185.83958L35.55001 187.46458L26.034388 187.46458L26.034388 185.91771ZM35.721886 167.51146Q35.721886 169.43333 34.45626 170.65208Q33.190636 171.87083 31.065638 171.87083L30.753138 171.87083Q29.346888 171.87083 28.237513 171.32396Q27.128138 170.77708 26.503138 169.80833Q25.862513 168.83958 25.862513 167.71458Q25.862513 165.85521 27.081263 164.82396Q28.300013 163.79271 30.581263 163.79271L31.253138 163.79271L31.253138 170.24583Q32.659386 170.19896 33.534386 169.41771Q34.39376 168.63646 34.39376 167.41771Q34.39376 166.55833 34.05001 165.96458Q33.690636 165.35521 33.11251 164.91771L33.89376 163.91771Q35.721886 165.12083 35.721886 167.51146ZM27.206263 167.71458Q27.206263 168.69896 27.925013 169.37083Q28.628138 170.02708 29.925013 170.18333L29.925013 165.41771L29.800013 165.41771Q28.565638 165.49583 27.893763 166.08958Q27.206263 166.68333 27.206263 167.71458ZM30.362513 157.51146Q28.362513 157.51146 26.534388 156.98021Q24.706263 156.44896 23.221888 155.40208Q21.721888 154.33958 21.112513 153.21458L22.175013 152.87083Q23.159388 154.15208 25.190638 154.98021Q27.206263 155.79271 29.706263 155.88646L30.456263 155.88646Q33.846886 155.88646 36.346886 154.65208Q37.846886 153.90208 38.690636 152.87083L39.67501 153.21458Q39.034386 154.37083 37.503136 155.43333Q34.51876 157.51146 30.362513 157.51146ZM33.034386 145.91771Q32.36251 145.91771 32.003136 146.41771Q31.643763 146.90208 31.378138 148.13646Q31.112513 149.37083 30.753138 150.10521Q30.378138 150.82396 29.862513 151.18333Q29.346888 151.52708 28.643763 151.52708Q27.487513 151.52708 26.675013 150.54271Q25.862513 149.54271 25.862513 148.01146Q25.862513 146.38646 26.706263 145.38646Q27.534388 144.37083 28.831263 144.37083L28.831263 146.01146Q28.159388 146.01146 27.690638 146.58958Q27.206263 147.15208 27.206263 148.01146Q27.206263 148.90208 27.596888 149.40208Q27.971888 149.90208 28.596888 149.90208Q29.190638 149.90208 29.487513 149.43333Q29.784388 148.96458 30.065638 147.74583Q30.331263 146.52708 30.706263 145.77708Q31.081263 145.01146 31.612513 144.65208Q32.14376 144.29271 32.909386 144.29271Q34.190636 144.29271 34.95626 145.30833Q35.721886 146.32396 35.721886 147.94896Q35.721886 149.08958 35.315636 149.98021Q34.909386 150.85521 34.190636 151.35521Q33.471886 151.85521 32.628136 151.85521L32.628136 150.21458Q33.440636 150.18333 33.92501 149.57396Q34.39376 148.94896 34.39376 147.94896Q34.39376 147.02708 34.01876 146.48021Q33.64376 145.91771 33.034386 145.91771ZM35.721886 138.51146Q35.721886 140.43333 34.45626 141.65208Q33.190636 142.87083 31.065638 142.87083L30.753138 142.87083Q29.346888 142.87083 28.237513 142.32396Q27.128138 141.77708 26.503138 140.80833Q25.862513 139.83958 25.862513 138.71458Q25.862513 136.85521 27.081263 135.82396Q28.300013 134.79271 30.581263 134.79271L31.253138 134.79271L31.253138 141.24583Q32.659386 141.19896 33.534386 140.41771Q34.39376 139.63646 34.39376 138.41771Q34.39376 137.55833 34.05001 136.96458Q33.690636 136.35521 33.11251 135.91771L33.89376 134.91771Q35.721886 136.12083 35.721886 138.51146ZM27.206263 138.71458Q27.206263 139.69896 27.925013 140.37083Q28.628138 141.02708 29.925013 141.18333L29.925013 136.41771L29.800013 136.41771Q28.565638 136.49583 27.893763 137.08958Q27.206263 137.68333 27.206263 138.71458ZM34.39376 128.63646Q34.39376 127.76146 33.878136 127.120834Q33.346886 126.464584 32.55001 126.402084L32.55001 124.85521Q33.36251 124.902084 34.11251 125.41771Q34.846886 125.933334 35.284386 126.808334Q35.721886 127.66771 35.721886 128.63646Q35.721886 130.57396 34.42501 131.73021Q33.128136 132.87083 30.878138 132.87083L30.612513 132.87083Q29.221888 132.87083 28.143763 132.37083Q27.065638 131.85521 26.471888 130.90208Q25.862513 129.94896 25.862513 128.65208Q25.862513 127.04271 26.831263 125.995834Q27.784388 124.933334 29.315638 124.85521L29.315638 126.402084Q28.393763 126.464584 27.800013 127.10521Q27.206263 127.73021 27.206263 128.65208Q27.206263 129.88646 28.096888 130.57396Q28.987513 131.24583 30.675013 131.24583L30.971888 131.24583Q32.628136 131.24583 33.51876 130.57396Q34.39376 129.90208 34.39376 128.63646ZM30.706263 123.88646Q29.315638 123.88646 28.206263 123.339584Q27.081263 122.777084 26.471888 121.808334Q25.862513 120.82396 25.862513 119.57396Q25.862513 117.620834 27.206263 116.433334Q28.550013 115.23021 30.784388 115.23021L30.893763 115.23021Q32.284386 115.23021 33.39376 115.76146Q34.48751 116.29271 35.11251 117.277084Q35.721886 118.26146 35.721886 119.54271Q35.721886 121.48021 34.378136 122.683334Q33.034386 123.88646 30.815638 123.88646L30.706263 123.88646ZM30.893763 122.245834Q32.48751 122.245834 33.440636 121.51146Q34.39376 120.777084 34.39376 119.54271Q34.39376 118.308334 33.42501 117.589584Q32.45626 116.85521 30.706263 116.85521Q29.143763 116.85521 28.175013 117.60521Q27.206263 118.339584 27.206263 119.57396Q27.206263 120.777084 28.159388 121.51146Q29.112513 122.245834 30.893763 122.245834ZM26.034388 111.91771L27.237513 111.85521Q25.862513 110.777084 25.862513 109.01146Q25.862513 105.995834 29.268763 105.98021L35.55001 105.98021L35.55001 107.60521L29.253138 107.60521Q28.221888 107.60521 27.737513 108.07396Q27.237513 108.527084 27.237513 109.51146Q27.237513 110.29271 27.659388 110.902084Q28.081263 111.495834 28.768763 111.82396L35.55001 111.82396L35.55001 113.44896L26.034388 113.44896L26.034388 111.91771ZM30.721888 103.85521Q28.534388 103.85521 27.206263 102.82396Q25.862513 101.777084 25.862513 100.089584Q25.862513 98.41771 27.003138 97.44896L22.050013 97.44896L22.050013 95.82396L35.55001 95.82396L35.55001 97.32396L34.534386 97.402084Q35.721886 98.370834 35.721886 100.10521Q35.721886 101.76146 34.378136 102.808334Q33.01876 103.85521 30.831263 103.85521L30.721888 103.85521ZM30.893763 102.214584Q32.51876 102.214584 33.440636 101.558334Q34.346886 100.88646 34.346886 99.714584Q34.346886 98.16771 32.95626 97.44896L28.581263 97.44896Q27.237513 98.183334 27.237513 99.683334Q27.237513 100.88646 28.175013 101.558334Q29.096888 102.214584 30.893763 102.214584ZM33.034386 87.91771Q32.36251 87.91771 32.003136 88.41771Q31.643763 88.902084 31.378138 90.13646Q31.112513 91.370834 30.753138 92.10521Q30.378138 92.82396 29.862513 93.183334Q29.346888 93.527084 28.643763 93.527084Q27.487513 93.527084 26.675013 92.54271Q25.862513 91.54271 25.862513 90.01146Q25.862513 88.38646 26.706263 87.38646Q27.534388 86.370834 28.831263 86.370834L28.831263 88.01146Q28.159388 88.01146 27.690638 88.589584Q27.206263 89.152084 27.206263 90.01146Q27.206263 90.902084 27.596888 91.402084Q27.971888 91.902084 28.596888 91.902084Q29.190638 91.902084 29.487513 91.433334Q29.784388 90.964584 30.065638 89.745834Q30.331263 88.527084 30.706263 87.777084Q31.081263 87.01146 31.612513 86.652084Q32.14376 86.29271 32.909386 86.29271Q34.190636 86.29271 34.95626 87.308334Q35.721886 88.32396 35.721886 89.94896Q35.721886 91.089584 35.315636 91.98021Q34.909386 92.85521 34.190636 93.35521Q33.471886 93.85521 32.628136 93.85521L32.628136 92.214584Q33.440636 92.183334 33.92501 91.57396Q34.39376 90.94896 34.39376 89.94896Q34.39376 89.027084 34.01876 88.48021Q33.64376 87.91771 33.034386 87.91771ZM30.440638 80.69896Q32.409386 80.69896 34.20626 81.214584Q36.003136 81.73021 37.51876 82.79271Q39.034386 83.839584 39.67501 85.01146L38.690636 85.35521Q37.64376 83.995834 35.471886 83.183334Q33.284386 82.35521 30.612513 82.339584L30.331263 82.339584Q28.487513 82.339584 26.909388 82.73021Q25.315638 83.10521 24.065638 83.79271Q22.800013 84.48021 22.096888 85.35521L21.112513 85.01146Q21.753138 83.839584 23.253138 82.79271Q24.753138 81.745834 26.565638 81.23021Q28.378138 80.69896 30.440638 80.69896Z" fill-rule="nonzero"/><path fill="#000000" d="M82.05 287.21564Q82.05 285.6844 82.3625 284.7625Q82.675 283.825 83.28438 283.325Q83.90938 282.825 84.84688 282.825Q85.53438 282.825 86.05 283.10626Q86.58125 283.3875 86.925 283.91876Q87.26875 284.4344 87.45625 285.1844Q87.64375 285.9344 87.64375 287.21564Q87.64375 288.73126 87.33125 289.65314Q87.03438 290.575 86.40938 291.09064Q85.8 291.59064 84.84688 291.59064Q83.6125 291.59064 82.89375 290.7Q82.05 289.6375 82.05 287.21564ZM83.12813 287.21564Q83.12813 289.325 83.62813 290.02814Q84.12813 290.73126 84.84688 290.73126Q85.58125 290.73126 86.06563 290.02814Q86.56563 289.325 86.56563 287.21564Q86.56563 285.09064 86.06563 284.40314Q85.58125 283.7 84.83125 283.7Q84.1125 283.7 83.675 284.3094Q83.12813 285.09064 83.12813 287.21564Z" fill-rule="nonzero"/><path fill="#000000" d="M86.01875 232.56667L84.97188 232.56667L84.97188 225.84792Q84.58125 226.20729 83.95625 226.58229Q83.34688 226.94167 82.8625 227.11354L82.8625 226.09792Q83.7375 225.67604 84.39375 225.09792Q85.06563 224.50417 85.34688 223.94167L86.01875 223.94167L86.01875 232.56667Z" fill-rule="nonzero"/><path fill="#000000" d="M87.59688 172.66771L87.59688 173.68333L81.90938 173.68333Q81.90938 173.30833 82.03438 172.94896Q82.25313 172.37083 82.72188 171.80833Q83.20625 171.24583 84.1125 170.51146Q85.51875 169.35521 86.00313 168.68333Q86.50313 168.01146 86.50313 167.41771Q86.50313 166.79271 86.05 166.37083Q85.59688 165.93333 84.87813 165.93333Q84.1125 165.93333 83.65938 166.38646Q83.20625 166.83958 83.19063 167.65208L82.1125 167.54271Q82.22188 166.32396 82.94063 165.69896Q83.675 165.05833 84.90938 165.05833Q86.14375 165.05833 86.8625 165.74583Q87.58125 166.43333 87.58125 167.44896Q87.58125 167.96458 87.3625 168.46458Q87.15938 168.94896 86.65938 169.51146Q86.175 170.05833 85.05 171.01146Q84.09688 171.80833 83.81563 172.10521Q83.55 172.38646 83.37813 172.66771L87.59688 172.66771Z" fill-rule="nonzero"/><path fill="#000000" d="M82.05 112.53438L83.1125 112.39375Q83.28438 113.28438 83.72188 113.69063Q84.15938 114.08125 84.78438 114.08125Q85.53438 114.08125 86.05 113.56563Q86.56563 113.05 86.56563 112.28438Q86.56563 111.56563 86.08125 111.09688Q85.6125 110.6125 84.87813 110.6125Q84.58125 110.6125 84.12813 110.7375L84.25313 109.8Q84.3625 109.81563 84.425 109.81563Q85.09688 109.81563 85.62813 109.47188Q86.175 109.1125 86.175 108.37813Q86.175 107.8 85.78438 107.425Q85.39375 107.03438 84.76875 107.03438Q84.15938 107.03438 83.7375 107.425Q83.33125 107.81563 83.22188 108.58125L82.15938 108.39375Q82.34688 107.34688 83.03438 106.76875Q83.72188 106.175 84.7375 106.175Q85.44063 106.175 86.03438 106.4875Q86.62813 106.78438 86.94063 107.3Q87.25313 107.81563 87.25313 108.40938Q87.25313 108.95625 86.95625 109.425Q86.65938 109.87813 86.08125 110.14375Q86.83125 110.31563 87.25313 110.87813Q87.675 111.425 87.675 112.26875Q87.675 113.39375 86.84688 114.175Q86.03438 114.95625 84.78438 114.95625Q83.65938 114.95625 82.90938 114.28438Q82.15938 113.59688 82.05 112.53438Z" fill-rule="nonzero"/><path fill="#000000" d="M85.425 55.916668L85.425 53.854168L81.70625 53.854168L81.70625 52.885418L85.62813 47.322918L86.4875 47.322918L86.4875 52.885418L87.64375 52.885418L87.64375 53.854168L86.4875 53.854168L86.4875 55.916668L85.425 55.916668ZM85.425 52.885418L85.425 49.026043L82.7375 52.885418L85.425 52.885418Z" fill-rule="nonzero"/><path fill="#000000" d="M91.55 300.21564Q91.55 298.6844 91.8625 297.7625Q92.175 296.825 92.78438 296.325Q93.40938 295.825 94.34688 295.825Q95.03438 295.825 95.55 296.10626Q96.08125 296.3875 96.425 296.91876Q96.76875 297.4344 96.95625 298.1844Q97.14375 298.9344 97.14375 300.21564Q97.14375 301.73126 96.83125 302.65314Q96.53438 303.575 95.90938 304.09064Q95.3 304.59064 94.34688 304.59064Q93.1125 304.59064 92.39375 303.7Q91.55 302.6375 91.55 300.21564ZM92.62813 300.21564Q92.62813 302.325 93.12813 303.02814Q93.62813 303.73126 94.34688 303.73126Q95.08125 303.73126 95.56563 303.02814Q96.06563 302.325 96.06563 300.21564Q96.06563 298.09064 95.56563 297.40314Q95.08125 296.7 94.33125 296.7Q93.6125 296.7 93.175 297.3094Q92.62813 298.09064 92.62813 300.21564Z" fill-rule="nonzero"/><path fill="#000000" d="M185.9875 302.2L187.09688 302.10626Q187.22188 302.91876 187.65938 303.325Q188.1125 303.73126 188.75313 303.73126Q189.50313 303.73126 190.03438 303.15314Q190.56563 302.575 190.56563 301.6375Q190.56563 300.73126 190.05 300.21564Q189.55 299.6844 188.72188 299.6844Q188.22188 299.6844 187.8 299.91876Q187.39375 300.15314 187.15938 300.5125L186.175 300.3875L187.00313 295.98126L191.28438 295.98126L191.28438 296.98126L187.84688 296.98126L187.39375 299.29376Q188.15938 298.7469 189.00313 298.7469Q190.12813 298.7469 190.89375 299.52814Q191.675 300.3094 191.675 301.54376Q191.675 302.7 191.00313 303.5594Q190.175 304.59064 188.75313 304.59064Q187.58125 304.59064 186.83125 303.9344Q186.09688 303.27814 185.9875 302.2ZM192.9875 300.21564Q192.9875 298.6844 193.3 297.7625Q193.6125 296.825 194.22188 296.325Q194.84688 295.825 195.78438 295.825Q196.47188 295.825 196.9875 296.10626Q197.51875 296.3875 197.8625 296.91876Q198.20625 297.4344 198.39375 298.1844Q198.58125 298.9344 198.58125 300.21564Q198.58125 301.73126 198.26875 302.65314Q197.97188 303.575 197.34688 304.09064Q196.7375 304.59064 195.78438 304.59064Q194.55 304.59064 193.83125 303.7Q192.9875 302.6375 192.9875 300.21564ZM194.06563 300.21564Q194.06563 302.325 194.56563 303.02814Q195.06563 303.73126 195.78438 303.73126Q196.51875 303.73126 197.00313 303.02814Q197.50313 302.325 197.50313 300.21564Q197.50313 298.09064 197.00313 297.40314Q196.51875 296.7 195.76875 296.7Q195.05 296.7 194.6125 297.3094Q194.06563 298.09064 194.06563 300.21564ZM199.9875 300.21564Q199.9875 298.6844 200.3 297.7625Q200.6125 296.825 201.22188 296.325Q201.84688 295.825 202.78438 295.825Q203.47188 295.825 203.9875 296.10626Q204.51875 296.3875 204.8625 296.91876Q205.20625 297.4344 205.39375 298.1844Q205.58125 298.9344 205.58125 300.21564Q205.58125 301.73126 205.26875 302.65314Q204.97188 303.575 204.34688 304.09064Q203.7375 304.59064 202.78438 304.59064Q201.55 304.59064 200.83125 303.7Q199.9875 302.6375 199.9875 300.21564ZM201.06563 300.21564Q201.06563 302.325 201.56563 303.02814Q202.06563 303.73126 202.78438 303.73126Q203.51875 303.73126 204.00313 303.02814Q204.50313 302.325 204.50313 300.21564Q204.50313 298.09064 204.00313 297.40314Q203.51875 296.7 202.76875 296.7Q202.05 296.7 201.6125 297.3094Q201.06563 298.09064 201.06563 300.21564Z" fill-rule="nonzero"/><path fill="#000000" d="M287.89374 304.45L286.84686 304.45L286.84686 297.73126Q286.45624 298.09064 285.83124 298.46564Q285.22186 298.825 284.7375 298.9969L284.7375 297.98126Q285.6125 297.5594 286.26874 296.98126Q286.9406 296.3875 287.22186 295.825L287.89374 295.825L287.89374 304.45ZM290.925 300.21564Q290.925 298.6844 291.2375 297.7625Q291.55 296.825 292.15936 296.325Q292.78436 295.825 293.72186 295.825Q294.40936 295.825 294.925 296.10626Q295.45624 296.3875 295.8 296.91876Q296.14374 297.4344 296.33124 298.1844Q296.51874 298.9344 296.51874 300.21564Q296.51874 301.73126 296.20624 302.65314Q295.90936 303.575 295.28436 304.09064Q294.675 304.59064 293.72186 304.59064Q292.4875 304.59064 291.76874 303.7Q290.925 302.6375 290.925 300.21564ZM292.0031 300.21564Q292.0031 302.325 292.5031 303.02814Q293.0031 303.73126 293.72186 303.73126Q294.45624 303.73126 294.9406 303.02814Q295.4406 302.325 295.4406 300.21564Q295.4406 298.09064 294.9406 297.40314Q294.45624 296.7 293.70624 296.7Q292.9875 296.7 292.55 297.3094Q292.0031 298.09064 292.0031 300.21564ZM297.925 300.21564Q297.925 298.6844 298.2375 297.7625Q298.55 296.825 299.15936 296.325Q299.78436 295.825 300.72186 295.825Q301.40936 295.825 301.925 296.10626Q302.45624 296.3875 302.8 296.91876Q303.14374 297.4344 303.33124 298.1844Q303.51874 298.9344 303.51874 300.21564Q303.51874 301.73126 303.20624 302.65314Q302.90936 303.575 302.28436 304.09064Q301.675 304.59064 300.72186 304.59064Q299.4875 304.59064 298.76874 303.7Q297.925 302.6375 297.925 300.21564ZM299.0031 300.21564Q299.0031 302.325 299.5031 303.02814Q300.0031 303.73126 300.72186 303.73126Q301.45624 303.73126 301.9406 303.02814Q302.4406 302.325 302.4406 300.21564Q302.4406 298.09064 301.9406 297.40314Q301.45624 296.7 300.70624 296.7Q299.9875 296.7 299.55 297.3094Q299.0031 298.09064 299.0031 300.21564ZM304.925 300.21564Q304.925 298.6844 305.2375 297.7625Q305.55 296.825 306.15936 296.325Q306.78436 295.825 307.72186 295.825Q308.40936 295.825 308.925 296.10626Q309.45624 296.3875 309.8 296.91876Q310.14374 297.4344 310.33124 298.1844Q310.51874 298.9344 310.51874 300.21564Q310.51874 301.73126 310.20624 302.65314Q309.90936 303.575 309.28436 304.09064Q308.675 304.59064 307.72186 304.59064Q306.4875 304.59064 305.76874 303.7Q304.925 302.6375 304.925 300.21564ZM306.0031 300.21564Q306.0031 302.325 306.5031 303.02814Q307.0031 303.73126 307.72186 303.73126Q308.45624 303.73126 308.9406 303.02814Q309.4406 302.325 309.4406 300.21564Q309.4406 298.09064 308.9406 297.40314Q308.45624 296.7 307.70624 296.7Q306.9875 296.7 306.55 297.3094Q306.0031 298.09064 306.0031 300.21564Z" fill-rule="nonzero"/><path fill="#000000" d="M389.33124 304.45L388.28436 304.45L388.28436 297.73126Q387.89374 298.09064 387.26874 298.46564Q386.65936 298.825 386.175 298.9969L386.175 297.98126Q387.05 297.5594 387.70624 296.98126Q388.3781 296.3875 388.65936 295.825L389.33124 295.825L389.33124 304.45ZM392.3625 302.2L393.47186 302.10626Q393.59686 302.91876 394.03436 303.325Q394.4875 303.73126 395.1281 303.73126Q395.8781 303.73126 396.40936 303.15314Q396.9406 302.575 396.9406 301.6375Q396.9406 300.73126 396.425 300.21564Q395.925 299.6844 395.09686 299.6844Q394.59686 299.6844 394.175 299.91876Q393.76874 300.15314 393.53436 300.5125L392.55 300.3875L393.3781 295.98126L397.65936 295.98126L397.65936 296.98126L394.22186 296.98126L393.76874 299.29376Q394.53436 298.7469 395.3781 298.7469Q396.5031 298.7469 397.26874 299.52814Q398.05 300.3094 398.05 301.54376Q398.05 302.7 397.3781 303.5594Q396.55 304.59064 395.1281 304.59064Q393.95624 304.59064 393.20624 303.9344Q392.47186 303.27814 392.3625 302.2ZM399.3625 300.21564Q399.3625 298.6844 399.675 297.7625Q399.9875 296.825 400.59686 296.325Q401.22186 295.825 402.15936 295.825Q402.84686 295.825 403.3625 296.10626Q403.89374 296.3875 404.2375 296.91876Q404.58124 297.4344 404.76874 298.1844Q404.95624 298.9344 404.95624 300.21564Q404.95624 301.73126 404.64374 302.65314Q404.34686 303.575 403.72186 304.09064Q403.1125 304.59064 402.15936 304.59064Q400.925 304.59064 400.20624 303.7Q399.3625 302.6375 399.3625 300.21564ZM400.4406 300.21564Q400.4406 302.325 400.9406 303.02814Q401.4406 303.73126 402.15936 303.73126Q402.89374 303.73126 403.3781 303.02814Q403.8781 302.325 403.8781 300.21564Q403.8781 298.09064 403.3781 297.40314Q402.89374 296.7 402.14374 296.7Q401.425 296.7 400.9875 297.3094Q400.4406 298.09064 400.4406 300.21564ZM406.3625 300.21564Q406.3625 298.6844 406.675 297.7625Q406.9875 296.825 407.59686 296.325Q408.22186 295.825 409.15936 295.825Q409.84686 295.825 410.3625 296.10626Q410.89374 296.3875 411.2375 296.91876Q411.58124 297.4344 411.76874 298.1844Q411.95624 298.9344 411.95624 300.21564Q411.95624 301.73126 411.64374 302.65314Q411.34686 303.575 410.72186 304.09064Q410.1125 304.59064 409.15936 304.59064Q407.925 304.59064 407.20624 303.7Q406.3625 302.6375 406.3625 300.21564ZM407.4406 300.21564Q407.4406 302.325 407.9406 303.02814Q408.4406 303.73126 409.15936 303.73126Q409.89374 303.73126 410.3781 303.02814Q410.8781 302.325 410.8781 300.21564Q410.8781 298.09064 410.3781 297.40314Q409.89374 296.7 409.14374 296.7Q408.425 296.7 407.9875 297.3094Q407.4406 298.09064 407.4406 300.21564Z" fill-rule="nonzero"/><path fill="#000000" d="M492.34686 303.4344L492.34686 304.45L486.65936 304.45Q486.65936 304.075 486.78436 303.71564Q487.0031 303.1375 487.47186 302.575Q487.95624 302.0125 488.8625 301.27814Q490.26874 300.1219 490.7531 299.45Q491.2531 298.77814 491.2531 298.1844Q491.2531 297.5594 490.8 297.1375Q490.34686 296.7 489.6281 296.7Q488.8625 296.7 488.40936 297.15314Q487.95624 297.60626 487.9406 298.41876L486.8625 298.3094Q486.97186 297.09064 487.6906 296.46564Q488.425 295.825 489.65936 295.825Q490.89374 295.825 491.6125 296.5125Q492.33124 297.2 492.33124 298.21564Q492.33124 298.73126 492.1125 299.23126Q491.90936 299.71564 491.40936 300.27814Q490.925 300.825 489.8 301.77814Q488.84686 302.575 488.5656 302.8719Q488.3 303.15314 488.1281 303.4344L492.34686 303.4344ZM493.8 300.21564Q493.8 298.6844 494.1125 297.7625Q494.425 296.825 495.03436 296.325Q495.65936 295.825 496.59686 295.825Q497.28436 295.825 497.8 296.10626Q498.33124 296.3875 498.675 296.91876Q499.01874 297.4344 499.20624 298.1844Q499.39374 298.9344 499.39374 300.21564Q499.39374 301.73126 499.08124 302.65314Q498.78436 303.575 498.15936 304.09064Q497.55 304.59064 496.59686 304.59064Q495.3625 304.59064 494.64374 303.7Q493.8 302.6375 493.8 300.21564ZM494.8781 300.21564Q494.8781 302.325 495.3781 303.02814Q495.8781 303.73126 496.59686 303.73126Q497.33124 303.73126 497.8156 303.02814Q498.3156 302.325 498.3156 300.21564Q498.3156 298.09064 497.8156 297.40314Q497.33124 296.7 496.58124 296.7Q495.8625 296.7 495.425 297.3094Q494.8781 298.09064 494.8781 300.21564ZM500.8 300.21564Q500.8 298.6844 501.1125 297.7625Q501.425 296.825 502.03436 296.325Q502.65936 295.825 503.59686 295.825Q504.28436 295.825 504.8 296.10626Q505.33124 296.3875 505.675 296.91876Q506.01874 297.4344 506.20624 298.1844Q506.39374 298.9344 506.39374 300.21564Q506.39374 301.73126 506.08124 302.65314Q505.78436 303.575 505.15936 304.09064Q504.55 304.59064 503.59686 304.59064Q502.3625 304.59064 501.64374 303.7Q500.8 302.6375 500.8 300.21564ZM501.8781 300.21564Q501.8781 302.325 502.3781 303.02814Q502.8781 303.73126 503.59686 303.73126Q504.33124 303.73126 504.8156 303.02814Q505.3156 302.325 505.3156 300.21564Q505.3156 298.09064 504.8156 297.40314Q504.33124 296.7 503.58124 296.7Q502.8625 296.7 502.425 297.3094Q501.8781 298.09064 501.8781 300.21564ZM507.8 300.21564Q507.8 298.6844 508.1125 297.7625Q508.425 296.825 509.03436 296.325Q509.65936 295.825 510.59686 295.825Q511.28436 295.825 511.8 296.10626Q512.33124 296.3875 512.675 296.91876Q513.01874 297.4344 513.20624 298.1844Q513.39374 298.9344 513.39374 300.21564Q513.39374 301.73126 513.08124 302.65314Q512.78436 303.575 512.15936 304.09064Q511.55 304.59064 510.59686 304.59064Q509.3625 304.59064 508.64374 303.7Q507.8 302.6375 507.8 300.21564ZM508.8781 300.21564Q508.8781 302.325 509.3781 303.02814Q509.8781 303.73126 510.59686 303.73126Q511.33124 303.73126 511.8156 303.02814Q512.3156 302.325 512.3156 300.21564Q512.3156 298.09064 511.8156 297.40314Q511.33124 296.7 510.58124 296.7Q509.8625 296.7 509.425 297.3094Q508.8781 298.09064 508.8781 300.21564Z" fill-rule="nonzero"/><path stroke="#4285f4" stroke-width="4.0" stroke-linecap="butt" d="M133.0 25.55L145.0 25.55" fill-rule="nonzero"/><path fill="#1a1a1a" d="M153.79688 29.55L153.79688 23.33125L154.73438 23.33125L154.73438 24.20625Q155.42188 23.190624 156.71875 23.190624Q157.28125 23.190624 157.75 23.39375Q158.23438 23.596874 158.46875 23.925Q158.70312 24.253124 158.79688 24.690624Q158.84375 24.9875 158.84375 25.721874L158.84375 29.55L157.79688 29.55L157.79688 25.76875Q157.79688 25.1125 157.67188 24.8Q157.54688 24.4875 157.23438 24.3Q156.92188 24.096874 156.5 24.096874Q155.82812 24.096874 155.32812 24.534374Q154.84375 24.95625 154.84375 26.14375L154.84375 29.55L153.79688 29.55ZM169.34375 24.503124L163.67188 24.503124L163.67188 23.51875L169.34375 23.51875L169.34375 24.503124ZM169.34375 27.1125L163.67188 27.1125L163.67188 26.128124L169.34375 26.128124L169.34375 27.1125ZM177.46875 29.55L176.42188 29.55L176.42188 22.83125Q176.03125 23.190624 175.40625 23.565624Q174.79688 23.925 174.3125 24.096874L174.3125 23.08125Q175.1875 22.659374 175.84375 22.08125Q176.51562 21.4875 176.79688 20.925L177.46875 20.925L177.46875 29.55Z" fill-rule="nonzero"/><path stroke="#ea4335" stroke-width="4.0" stroke-linecap="butt" d="M196.0 25.55L208.0 25.55" fill-rule="nonzero"/><path fill="#1a1a1a" d="M216.79688 29.55L216.79688 23.33125L217.73438 23.33125L217.73438 24.20625Q218.42188 23.190624 219.71875 23.190624Q220.28125 23.190624 220.75 23.39375Q221.23438 23.596874 221.46875 23.925Q221.70312 24.253124 221.79688 24.690624Q221.84375 24.9875 221.84375 25.721874L221.84375 29.55L220.79688 29.55L220.79688 25.76875Q220.79688 25.1125 220.67188 24.8Q220.54688 24.4875 220.23438 24.3Q219.92188 24.096874 219.5 24.096874Q218.82812 24.096874 218.32812 24.534374Q217.84375 24.95625 217.84375 26.14375L217.84375 29.55L216.79688 29.55ZM232.34375 24.503124L226.67188 24.503124L226.67188 23.51875L232.34375 23.51875L232.34375 24.503124ZM232.34375 27.1125L226.67188 27.1125L226.67188 26.128124L232.34375 26.128124L232.34375 27.1125ZM242.04688 28.534374L242.04688 29.55L236.35938 29.55Q236.35938 29.175 236.48438 28.815624Q236.70312 28.2375 237.17188 27.675Q237.65625 27.1125 238.5625 26.378124Q239.96875 25.221874 240.45312 24.55Q240.95312 23.878124 240.95312 23.284374Q240.95312 22.659374 240.5 22.2375Q240.04688 21.8 239.32812 21.8Q238.5625 21.8 238.10938 22.253124Q237.65625 22.70625 237.64062 23.51875L236.5625 23.409374Q236.67188 22.190624 237.39062 21.565624Q238.125 20.925 239.35938 20.925Q240.59375 20.925 241.3125 21.6125Q242.03125 22.3 242.03125 23.315624Q242.03125 23.83125 241.8125 24.33125Q241.60938 24.815624 241.10938 25.378124Q240.625 25.925 239.5 26.878124Q238.54688 27.675 238.26562 27.971874Q238.0 28.253124 237.82812 28.534374L242.04688 28.534374Z" fill-rule="nonzero"/><path stroke="#fbbc04" stroke-width="4.0" stroke-linecap="butt" d="M259.0 25.55L271.0 25.55" fill-rule="nonzero"/><path fill="#1a1a1a" d="M279.79688 29.55L279.79688 23.33125L280.73438 23.33125L280.73438 24.20625Q281.42188 23.190624 282.71875 23.190624Q283.28125 23.190624 283.75 23.39375Q284.23438 23.596874 284.46875 23.925Q284.70312 24.253124 284.79688 24.690624Q284.84375 24.9875 284.84375 25.721874L284.84375 29.55L283.79688 29.55L283.79688 25.76875Q283.79688 25.1125 283.67188 24.8Q283.54688 24.4875 283.23438 24.3Q282.92188 24.096874 282.5 24.096874Q281.82812 24.096874 281.32812 24.534374Q280.84375 24.95625 280.84375 26.14375L280.84375 29.55L279.79688 29.55ZM295.34375 24.503124L289.67188 24.503124L289.67188 23.51875L295.34375 23.51875L295.34375 24.503124ZM295.34375 27.1125L289.67188 27.1125L289.67188 26.128124L295.34375 26.128124L295.34375 27.1125ZM299.5 27.3L300.60938 27.20625Q300.73438 28.01875 301.17188 28.425Q301.625 28.83125 302.26562 28.83125Q303.01562 28.83125 303.54688 28.253124Q304.07812 27.675 304.07812 26.7375Q304.07812 25.83125 303.5625 25.315624Q303.0625 24.784374 302.23438 24.784374Q301.73438 24.784374 301.3125 25.01875Q300.90625 25.253124 300.67188 25.6125L299.6875 25.4875L300.51562 21.08125L304.79688 21.08125L304.79688 22.08125L301.35938 22.08125L300.90625 24.39375Q301.67188 23.846874 302.51562 23.846874Q303.64062 23.846874 304.40625 24.628124Q305.1875 25.409374 305.1875 26.64375Q305.1875 27.8 304.51562 28.659374Q303.6875 29.690624 302.26562 29.690624Q301.09375 29.690624 300.34375 29.034374Q299.60938 28.378124 299.5 27.3Z" fill-rule="nonzero"/><path stroke="#34a853" stroke-width="4.0" stroke-linecap="butt" d="M322.0 25.55L334.0 25.55" fill-rule="nonzero"/><path fill="#1a1a1a" d="M342.79688 29.55L342.79688 23.33125L343.73438 23.33125L343.73438 24.20625Q344.42188 23.190624 345.71875 23.190624Q346.28125 23.190624 346.75 23.39375Q347.23438 23.596874 347.46875 23.925Q347.70312 24.253124 347.79688 24.690624Q347.84375 24.9875 347.84375 25.721874L347.84375 29.55L346.79688 29.55L346.79688 25.76875Q346.79688 25.1125 346.67188 24.8Q346.54688 24.4875 346.23438 24.3Q345.92188 24.096874 345.5 24.096874Q344.82812 24.096874 344.32812 24.534374Q343.84375 24.95625 343.84375 26.14375L343.84375 29.55L342.79688 29.55ZM358.34375 24.503124L352.67188 24.503124L352.67188 23.51875L358.34375 23.51875L358.34375 24.503124ZM358.34375 27.1125L352.67188 27.1125L352.67188 26.128124L358.34375 26.128124L358.34375 27.1125ZM366.46875 29.55L365.42188 29.55L365.42188 22.83125Q365.03125 23.190624 364.40625 23.565624Q363.79688 23.925 363.3125 24.096874L363.3125 23.08125Q364.1875 22.659374 364.84375 22.08125Q365.51562 21.4875 365.79688 20.925L366.46875 20.925L366.46875 29.55ZM369.5 25.315624Q369.5 23.784374 369.8125 22.8625Q370.125 21.925 370.73438 21.425Q371.35938 20.925 372.29688 20.925Q372.98438 20.925 373.5 21.20625Q374.03125 21.4875 374.375 22.01875Q374.71875 22.534374 374.90625 23.284374Q375.09375 24.034374 375.09375 25.315624Q375.09375 26.83125 374.78125 27.753124Q374.48438 28.675 373.85938 29.190624Q373.25 29.690624 372.29688 29.690624Q371.0625 29.690624 370.34375 28.8Q369.5 27.7375 369.5 25.315624ZM370.57812 25.315624Q370.57812 27.425 371.07812 28.128124Q371.57812 28.83125 372.29688 28.83125Q373.03125 28.83125 373.51562 28.128124Q374.01562 27.425 374.01562 25.315624Q374.01562 23.190624 373.51562 22.503124Q373.03125 21.8 372.28125 21.8Q371.5625 21.8 371.125 22.409374Q370.57812 23.190624 370.57812 25.315624Z" fill-rule="nonzero"/><path stroke="#ff6d01" stroke-width="4.0" stroke-linecap="butt" d="M392.0 25.55L404.0 25.55" fill-rule="nonzero"/><path fill="#1a1a1a" d="M412.79688 29.55L412.79688 23.33125L413.73438 23.33125L413.73438 24.20625Q414.42188 23.190624 415.71875 23.190624Q416.28125 23.190624 416.75 23.39375Q417.23438 23.596874 417.46875 23.925Q417.70312 24.253124 417.79688 24.690624Q417.84375 24.9875 417.84375 25.721874L417.84375 29.55L416.79688 29.55L416.79688 25.76875Q416.79688 25.1125 416.67188 24.8Q416.54688 24.4875 416.23438 24.3Q415.92188 24.096874 415.5 24.096874Q414.82812 24.096874 414.32812 24.534374Q413.84375 24.95625 413.84375 26.14375L413.84375 29.55L412.79688 29.55ZM428.34375 24.503124L422.67188 24.503124L422.67188 23.51875L428.34375 23.51875L428.34375 24.503124ZM428.34375 27.1125L422.67188 27.1125L422.67188 26.128124L428.34375 26.128124L428.34375 27.1125ZM436.46875 29.55L435.42188 29.55L435.42188 22.83125Q435.03125 23.190624 434.40625 23.565624Q433.79688 23.925 433.3125 24.096874L433.3125 23.08125Q434.1875 22.659374 434.84375 22.08125Q435.51562 21.4875 435.79688 20.925L436.46875 20.925L436.46875 29.55ZM439.5 25.315624Q439.5 23.784374 439.8125 22.8625Q440.125 21.925 440.73438 21.425Q441.35938 20.925 442.29688 20.925Q442.98438 20.925 443.5 21.20625Q444.03125 21.4875 444.375 22.01875Q444.71875 22.534374 444.90625 23.284374Q445.09375 24.034374 445.09375 25.315624Q445.09375 26.83125 444.78125 27.753124Q444.48438 28.675 443.85938 29.190624Q443.25 29.690624 442.29688 29.690624Q441.0625 29.690624 440.34375 28.8Q439.5 27.7375 439.5 25.315624ZM440.57812 25.315624Q440.57812 27.425 441.07812 28.128124Q441.57812 28.83125 442.29688 28.83125Q443.03125 28.83125 443.51562 28.128124Q444.01562 27.425 444.01562 25.315624Q444.01562 23.190624 443.51562 22.503124Q443.03125 21.8 442.28125 21.8Q441.5625 21.8 441.125 22.409374Q440.57812 23.190624 440.57812 25.315624ZM446.5 25.315624Q446.5 23.784374 446.8125 22.8625Q447.125 21.925 447.73438 21.425Q448.35938 20.925 449.29688 20.925Q449.98438 20.925 450.5 21.20625Q451.03125 21.4875 451.375 22.01875Q451.71875 22.534374 451.90625 23.284374Q452.09375 24.034374 452.09375 25.315624Q452.09375 26.83125 451.78125 27.753124Q451.48438 28.675 450.85938 29.190624Q450.25 29.690624 449.29688 29.690624Q448.0625 29.690624 447.34375 28.8Q446.5 27.7375 446.5 25.315624ZM447.57812 25.315624Q447.57812 27.425 448.07812 28.128124Q448.57812 28.83125 449.29688 28.83125Q450.03125 28.83125 450.51562 28.128124Q451.01562 27.425 451.01562 25.315624Q451.01562 23.190624 450.51562 22.503124Q450.03125 21.8 449.28125 21.8Q448.5625 21.8 448.125 22.409374Q447.57812 23.190624 447.57812 25.315624ZM453.5 25.315624Q453.5 23.784374 453.8125 22.8625Q454.125 21.925 454.73438 21.425Q455.35938 20.925 456.29688 20.925Q456.98438 20.925 457.5 21.20625Q458.03125 21.4875 458.375 22.01875Q458.71875 22.534374 458.90625 23.284374Q459.09375 24.034374 459.09375 25.315624Q459.09375 26.83125 458.78125 27.753124Q458.48438 28.675 457.85938 29.190624Q457.25 29.690624 456.29688 29.690624Q455.0625 29.690624 454.34375 28.8Q453.5 27.7375 453.5 25.315624ZM454.57812 25.315624Q454.57812 27.425 455.07812 28.128124Q455.57812 28.83125 456.29688 28.83125Q457.03125 28.83125 457.51562 28.128124Q458.01562 27.425 458.01562 25.315624Q458.01562 23.190624 457.51562 22.503124Q457.03125 21.8 456.28125 21.8Q455.5625 21.8 455.125 22.409374Q454.57812 23.190624 454.57812 25.315624ZM460.5 25.315624Q460.5 23.784374 460.8125 22.8625Q461.125 21.925 461.73438 21.425Q462.35938 20.925 463.29688 20.925Q463.98438 20.925 464.5 21.20625Q465.03125 21.4875 465.375 22.01875Q465.71875 22.534374 465.90625 23.284374Q466.09375 24.034374 466.09375 25.315624Q466.09375 26.83125 465.78125 27.753124Q465.48438 28.675 464.85938 29.190624Q464.25 29.690624 463.29688 29.690624Q462.0625 29.690624 461.34375 28.8Q460.5 27.7375 460.5 25.315624ZM461.57812 25.315624Q461.57812 27.425 462.07812 28.128124Q462.57812 28.83125 463.29688 28.83125Q464.03125 28.83125 464.51562 28.128124Q465.01562 27.425 465.01562 25.315624Q465.01562 23.190624 464.51562 22.503124Q464.03125 21.8 463.28125 21.8Q462.5625 21.8 462.125 22.409374Q461.57812 23.190624 461.57812 25.315624Z" fill-rule="nonzero"/></svg>