<svg version="1.1" viewBox="0.0 0.0 851.0 526.0" fill="none" stroke="none" stroke-linecap="square" stroke-miterlimit="10" width="851" height="526" xmlns:xlink="http://www.w3.org/1999/xlink" xmlns="http://www.w3.org/2000/svg"><path fill="#ffffff" d="M0 0L851.0 0L851.0 526.0L0 526.0L0 0Z" fill-rule="nonzero"/><path stroke="#333333" stroke-width="1.0" stroke-linecap="butt" d="M108.5 106.5L108.5 430.5" fill-rule="nonzero"/><path stroke="#cccccc" stroke-width="1.0" stroke-linecap="butt" d="M315.5 106.5L315.5 430.5" fill-rule="nonzero"/><path stroke="#cccccc" stroke-width="1.0" stroke-linecap="butt" d="M522.5 106.5L522.5 430.5" fill-rule="nonzero"/><path stroke="#cccccc" stroke-width="1.0" stroke-linecap="butt" d="M729.5 106.5L729.5 430.5" fill-rule="nonzero"/><path stroke="#333333" stroke-width="1.0" stroke-linecap="butt" d="M102.5 430.5L824.5 430.5" fill-rule="nonzero"/><path stroke="#cccccc" stroke-width="1.0" stroke-linecap="butt" d="M102.5 365.5L824.5 365.5" fill-rule="nonzero"/><path stroke="#cccccc" stroke-width="1.0" stroke-linecap="butt" d="M102.5 300.5L824.5 300.5" fill-rule="nonzero"/><path stroke="#cccccc" stroke-width="1.0" stroke-linecap="butt" d="M102.5 236.5L824.5 236.5" fill-rule="nonzero"/><path stroke="#cccccc" stroke-width="1.0" stroke-linecap="butt" d="M102.5 171.5L824.5 171.5" fill-rule="nonzero"/><path stroke="#cccccc" stroke-width="1.0" stroke-linecap="butt" d="M102.5 106.5L824.5 106.5" fill-rule="nonzero"/><clipPath id="id_0"><path d="M102.3 106.36667L824.7 106.36667L824.7 430.7L102.3 430.7L102.3 106.36667Z" clip-rule="nonzero"/></clipPath><path stroke="#4285f4" stroke-width="2.0" stroke-linecap="butt" stroke-opacity="0.4" clip-path="url(#id_0)" d="M0 477.01163L824.7 147.74985" fill-rule="nonzero"/><path fill="#4285f4" clip-path="url(#id_0)" d="M115.48826 429.7502C115.48826 432.2355 113.47354 434.2502 110.98826 434.2502C108.502975 434.2502 106.48826 432.2355 106.48826 429.7502C106.48826 427.26492 108.502975 425.2502 110.98826 425.2502C113.47354 425.2502 115.48826 427.26492 115.48826 429.7502Z" fill-rule="nonzero"/><path fill="#4285f4" clip-path="url(#id_0)" d="M114.46375 430.3243C114.46375 432.8096 112.449036 434.8243 109.96375 434.8243C107.47848 434.8243 105.46375 432.8096 105.46375 430.3243C105.46375 427.83905 107.47848 425.8243 109.96375 425.8243C112.449036 425.8243 114.46375 427.83905 114.46375 430.3243Z" fill-rule="nonzero"/><path fill="#4285f4" clip-path="url(#id_0)" d="M114.12225 430.45395C114.12225 432.9392 112.10754 434.95395 109.62225 434.95395C107.13697 434.95395 105.12225 432.9392 105.12225 430.45395C105.12225 427.96866 107.13697 425.95395 109.62225 425.95395C112.10754 425.95395 114.12225 427.96866 114.12225 430.45395Z" fill-rule="nonzero"/><path fill="#4285f4" clip-path="url(#id_0)" d="M113.951294 430.53238C113.951294 433.01767 111.93658 435.03238 109.451294 435.03238C106.96602 435.03238 104.951294 433.01767 104.951294 430.53238C104.951294 428.04712 106.96602 426.03238 109.451294 426.03238C111.93658 426.03238 113.951294 428.04712 113.951294 430.53238Z" fill-rule="nonzero"/><path fill="#4285f4" clip-path="url(#id_0)" d="M113.84905 430.5616C113.84905 433.0469 111.834335 435.0616 109.34905 435.0616C106.86377 435.0616 104.84905 433.0469 104.84905 430.5616C104.84905 428.07635 106.86377 426.0616 109.34905 426.0616C111.834335 426.0616 113.84905 428.07635 113.84905 430.5616Z" fill-rule="nonzero"/><path fill="#4285f4" clip-path="url(#id_0)" d="M113.780754 430.58228C113.780754 433.06757 111.76604 435.08228 109.280754 435.08228C106.79547 435.08228 104.780754 433.06757 104.780754 430.58228C104.780754 428.097 106.79547 426.08228 109.280754 426.08228C111.76604 426.08228 113.780754 428.097 113.780754 430.58228Z" fill-rule="nonzero"/><path fill="#4285f4" clip-path="url(#id_0)" d="M113.73191 430.61035C113.73191 433.0956 111.71719 435.11035 109.23191 435.11035C106.74663 435.11035 104.73191 433.0956 104.73191 430.61035C104.73191 428.12506 106.74663 426.11035 109.23191 426.11035C111.71719 426.11035 113.73191 428.12506 113.73191 430.61035Z" fill-rule="nonzero"/><path fill="#4285f4" clip-path="url(#id_0)" d="M113.69507 430.62192C113.69507 433.10718 111.68035 435.12192 109.19507 435.12192C106.709785 435.12192 104.69507 433.10718 104.69507 430.62192C104.69507 428.13663 106.709785 426.12192 109.19507 426.12192C111.68035 426.12192 113.69507 428.13663 113.69507 430.62192Z" fill-rule="nonzero"/><path fill="#4285f4" clip-path="url(#id_0)" d="M113.66692 430.62198C113.66692 433.10727 111.6522 435.12198 109.16692 435.12198C106.68164 435.12198 104.66692 433.10727 104.66692 430.62198C104.66692 428.13672 106.68164 426.12198 109.16692 426.12198C111.6522 426.12198 113.66692 428.13672 113.66692 430.62198Z" fill-rule="nonzero"/><path fill="#4285f4" clip-path="url(#id_0)" d="M129.91408 424.37988C129.91408 426.86514 127.89937 428.87988 125.414085 428.87988C122.9288 428.87988 120.914085 426.86514 120.914085 424.37988C120.914085 421.8946 122.9288 419.87988 125.414085 419.87988C127.89937 419.87988 129.91408 421.8946 129.91408 424.37988Z" fill-rule="nonzero"/><path fill="#4285f4" clip-path="url(#id_0)" d="M121.67667 428.01492C121.67667 430.50018 119.66195 432.51492 117.17667 432.51492C114.69139 432.51492 112.67667 430.50018 112.67667 428.01492C112.67667 425.52963 114.69139 423.51492 117.17667 423.51492C119.66195 423.51492 121.67667 425.52963 121.67667 428.01492Z" fill-rule="nonzero"/><path fill="#4285f4" clip-path="url(#id_0)" d="M118.93059 428.99802C118.93059 431.4833 116.91587 433.49802 114.43059 433.49802C111.945305 433.49802 109.93059 431.4833 109.93059 428.99802C109.93059 426.51276 111.945305 424.49802 114.43059 424.49802C116.91587 424.49802 118.93059 426.51276 118.93059 428.99802Z" fill-rule="nonzero"/><path fill="#4285f4" clip-path="url(#id_0)" d="M117.55796 429.46368C117.55796 431.94894 115.54324 433.96368 113.05796 433.96368C110.57268 433.96368 108.55796 431.94894 108.55796 429.46368C108.55796 426.9784 110.57268 424.96368 113.05796 424.96368C115.54324 424.96368 117.55796 426.9784 117.55796 429.46368Z" fill-rule="nonzero"/><path fill="#4285f4" clip-path="url(#id_0)" d="M116.73422 429.7165C116.73422 432.20178 114.7195 434.2165 112.23422 434.2165C109.74894 434.2165 107.73422 432.20178 107.73422 429.7165C107.73422 427.23123 109.74894 425.2165 112.23422 425.2165C114.7195 425.2165 116.73422 427.23123 116.73422 429.7165Z" fill-rule="nonzero"/><path fill="#4285f4" clip-path="url(#id_0)" d="M116.18451 429.8867C116.18451 432.37195 114.169785 434.3867 111.68451 434.3867C109.19923 434.3867 107.18451 432.37195 107.18451 429.8867C107.18451 427.4014 109.19923 425.3867 111.68451 425.3867C114.169785 425.3867 116.18451 427.4014 116.18451 429.8867Z" fill-rule="nonzero"/><path fill="#4285f4" clip-path="url(#id_0)" d="M115.79209 429.9953C115.79209 432.48056 113.777374 434.4953 111.29209 434.4953C108.80681 434.4953 106.79209 432.48056 106.79209 429.9953C106.79209 427.51 108.80681 425.4953 111.29209 425.4953C113.777374 425.4953 115.79209 427.51 115.79209 429.9953Z" fill-rule="nonzero"/><path fill="#4285f4" clip-path="url(#id_0)" d="M115.49819 430.01425C115.49819 432.4995 113.483475 434.51425 110.99819 434.51425C108.51291 434.51425 106.49819 432.4995 106.49819 430.01425C106.49819 427.52896 108.51291 425.51425 110.99819 425.51425C113.483475 425.51425 115.49819 427.52896 115.49819 430.01425Z" fill-rule="nonzero"/><path fill="#4285f4" clip-path="url(#id_0)" d="M115.2697 430.09396C115.2697 432.57925 113.25498 434.59396 110.7697 434.59396C108.28442 434.59396 106.2697 432.57925 106.2697 430.09396C106.2697 427.6087 108.28442 425.59396 110.7697 425.59396C113.25498 425.59396 115.2697 427.6087 115.2697 430.09396Z" fill-rule="nonzero"/><path fill="#4285f4" clip-path="url(#id_0)" d="M169.13495 408.4263C169.13495 410.91156 167.12022 412.9263 164.63495 412.9263C162.14967 412.9263 160.13495 410.91156 160.13495 408.4263C160.13495 405.941 162.14967 403.9263 164.63495 403.9263C167.12022 403.9263 169.13495 405.941 169.13495 408.4263Z" fill-rule="nonzero"/><path fill="#4285f4" clip-path="url(#id_0)" d="M141.2871 420.73972C141.2871 423.225 139.27238 425.23972 136.7871 425.23972C134.30182 425.23972 132.2871 423.225 132.2871 420.73972C132.2871 418.25446 134.30182 416.23972 136.7871 416.23972C139.27238 416.23972 141.2871 418.25446 141.2871 420.73972Z" fill-rule="nonzero"/><path fill="#4285f4" clip-path="url(#id_0)" d="M132.00449 423.99234C132.00449 426.4776 129.98976 428.49234 127.504486 428.49234C125.0192 428.49234 123.004486 426.4776 123.004486 423.99234C123.004486 421.50705 125.0192 419.49234 127.504486 419.49234C129.98976 419.49234 132.00449 421.50705 132.00449 423.99234Z" fill-rule="nonzero"/><path fill="#4285f4" clip-path="url(#id_0)" d="M127.36256 425.68097C127.36256 428.16626 125.34784 430.18097 122.86256 430.18097C120.37727 430.18097 118.36256 428.16626 118.36256 425.68097C118.36256 423.1957 120.37727 421.18097 122.86256 421.18097C125.34784 421.18097 127.36256 423.1957 127.36256 425.68097Z" fill-rule="nonzero"/><path fill="#4285f4" clip-path="url(#id_0)" d="M124.57839 426.60223C124.57839 429.08752 122.563675 431.10223 120.07839 431.10223C117.59311 431.10223 115.57839 429.08752 115.57839 426.60223C115.57839 424.11697 117.59311 422.10223 120.07839 422.10223C122.563675 422.10223 124.57839 424.11697 124.57839 426.60223Z" fill-rule="nonzero"/><path fill="#4285f4" clip-path="url(#id_0)" d="M122.72187 426.39285C122.72187 428.8781 120.70715 430.89285 118.22187 430.89285C115.73659 430.89285 113.72187 428.8781 113.72187 426.39285C113.72187 423.90756 115.73659 421.89285 118.22187 421.89285C120.70715 421.89285 122.72187 423.90756 122.72187 426.39285Z" fill-rule="nonzero"/><path fill="#4285f4" clip-path="url(#id_0)" d="M121.39561 427.36166C121.39561 429.84692 119.38088 431.86166 116.89561 431.86166C114.410324 431.86166 112.39561 429.84692 112.39561 427.36166C112.39561 424.87637 114.410324 422.86166 116.89561 422.86166C119.38088 422.86166 121.39561 424.87637 121.39561 427.36166Z" fill-rule="nonzero"/><path fill="#4285f4" clip-path="url(#id_0)" d="M120.4009 428.15994C120.4009 430.64523 118.386185 432.65994 115.9009 432.65994C113.41563 432.65994 111.4009 430.64523 111.4009 428.15994C111.4009 425.67468 113.41563 423.65994 115.9009 423.65994C118.386185 423.65994 120.4009 425.67468 120.4009 428.15994Z" fill-rule="nonzero"/><path fill="#4285f4" clip-path="url(#id_0)" d="M119.62725 428.4782C119.62725 430.9635 117.61253 432.9782 115.12725 432.9782C112.64197 432.9782 110.62725 430.9635 110.62725 428.4782C110.62725 425.99292 112.64197 423.9782 115.12725 423.9782C117.61253 423.9782 119.62725 425.99292 119.62725 428.4782Z" fill-rule="nonzero"/><path fill="#4285f4" clip-path="url(#id_0)" d="M245.56906 372.47186C245.56906 374.95715 243.55435 376.97186 241.06906 376.97186C238.58379 376.97186 236.56906 374.95715 236.56906 372.47186C236.56906 369.9866 238.58379 367.97186 241.06906 367.97186C243.55435 367.97186 245.56906 369.9866 245.56906 372.47186Z" fill-rule="nonzero"/><path fill="#4285f4" clip-path="url(#id_0)" d="M179.50417 407.9519C179.50417 410.43716 177.48944 412.4519 175.00417 412.4519C172.51888 412.4519 170.50417 410.43716 170.50417 407.9519C170.50417 405.4666 172.51888 403.4519 175.00417 403.4519C177.48944 403.4519 179.50417 405.4666 179.50417 407.9519Z" fill-rule="nonzero"/><path fill="#4285f4" clip-path="url(#id_0)" d="M157.48253 416.52286C157.48253 419.00812 155.4678 421.02286 152.98253 421.02286C150.49724 421.02286 148.48253 419.00812 148.48253 416.52286C148.48253 414.03757 150.49724 412.02286 152.98253 412.02286C155.4678 412.02286 157.48253 414.03757 157.48253 416.52286Z" fill-rule="nonzero"/><path fill="#4285f4" clip-path="url(#id_0)" d="M146.47171 420.06693C146.47171 422.55222 144.45699 424.56693 141.97171 424.56693C139.48642 424.56693 137.47171 422.55222 137.47171 420.06693C137.47171 417.58163 139.48642 415.56693 141.97171 415.56693C144.45699 415.56693 146.47171 417.58163 146.47171 420.06693Z" fill-rule="nonzero"/><path fill="#4285f4" clip-path="url(#id_0)" d="M139.86522 421.98404C139.86522 424.46933 137.8505 426.48404 135.36522 426.48404C132.87993 426.48404 130.86522 424.46933 130.86522 421.98404C130.86522 419.49878 132.87993 417.48404 135.36522 417.48404C137.8505 417.48404 139.86522 419.49878 139.86522 421.98404Z" fill-rule="nonzero"/><path fill="#4285f4" clip-path="url(#id_0)" d="M135.46089 421.5652C135.46089 424.05048 133.44617 426.0652 130.96089 426.0652C128.4756 426.0652 126.46089 424.05048 126.46089 421.5652C126.46089 419.0799 128.4756 417.0652 130.96089 417.0652C133.44617 417.0652 135.46089 419.0799 135.46089 421.5652Z" fill-rule="nonzero"/><path fill="#4285f4" clip-path="url(#id_0)" d="M132.31494 423.20117C132.31494 425.68646 130.30022 427.70117 127.81494 427.70117C125.32966 427.70117 123.31494 425.68646 123.31494 423.20117C123.31494 420.7159 125.32966 418.70117 127.81494 418.70117C130.30022 418.70117 132.31494 420.7159 132.31494 423.20117Z" fill-rule="nonzero"/><path fill="#4285f4" clip-path="url(#id_0)" d="M129.95547 425.21252C129.95547 427.6978 127.94076 429.71252 125.45548 429.71252C122.9702 429.71252 120.95548 427.6978 120.95548 425.21252C120.95548 422.72726 122.9702 420.71252 125.45548 420.71252C127.94076 420.71252 129.95547 422.72726 129.95547 425.21252Z" fill-rule="nonzero"/><path fill="#4285f4" clip-path="url(#id_0)" d="M128.11923 425.58197C128.11923 428.06726 126.10452 430.08197 123.61924 430.08197C121.13396 430.08197 119.11924 428.06726 119.11924 425.58197C119.11924 423.0967 121.13396 421.08197 123.61924 421.08197C126.10452 421.08197 128.11923 423.0967 128.11923 425.58197Z" fill-rule="nonzero"/><path fill="#4285f4" clip-path="url(#id_0)" d="M371.63464 316.72287C371.63464 319.20813 369.61993 321.22287 367.13464 321.22287C364.64935 321.22287 362.63464 319.20813 362.63464 316.72287C362.63464 314.23758 364.64935 312.22287 367.13464 312.22287C369.61993 312.22287 371.63464 314.23758 371.63464 316.72287Z" fill-rule="nonzero"/><path fill="#4285f4" clip-path="url(#id_0)" d="M242.53696 385.88626C242.53696 388.37155 240.52223 390.38626 238.03696 390.38626C235.55167 390.38626 233.53696 388.37155 233.53696 385.88626C233.53696 383.40097 235.55167 381.38626 238.03696 381.38626C240.52223 381.38626 242.53696 383.40097 242.53696 385.88626Z" fill-rule="nonzero"/><path fill="#4285f4" clip-path="url(#id_0)" d="M199.5037 398.41974C199.5037 400.905 197.48898 402.91974 195.0037 402.91974C192.51842 402.91974 190.5037 400.905 190.5037 398.41974C190.5037 395.93445 192.51842 393.91974 195.0037 393.91974C197.48898 393.91974 199.5037 395.93445 199.5037 398.41974Z" fill-rule="nonzero"/><path fill="#4285f4" clip-path="url(#id_0)" d="M177.98706 406.24472C177.98706 408.73 175.97235 410.74472 173.48706 410.74472C171.00179 410.74472 168.98706 408.73 168.98706 406.24472C168.98706 403.75946 171.00179 401.74472 173.48706 401.74472C175.97235 401.74472 177.98706 403.75946 177.98706 406.24472Z" fill-rule="nonzero"/><path fill="#4285f4" clip-path="url(#id_0)" d="M165.07834 415.02612C165.07834 417.5114 163.06361 419.52612 160.57834 419.52612C158.09305 419.52612 156.07834 417.5114 156.07834 415.02612C156.07834 412.54083 158.09305 410.52612 160.57834 410.52612C163.06361 410.52612 165.07834 412.54083 165.07834 415.02612Z" fill-rule="nonzero"/><path fill="#4285f4" clip-path="url(#id_0)" d="M156.47044 416.2214C156.47044 418.7067 154.45572 420.7214 151.97044 420.7214C149.48515 420.7214 147.47044 418.7067 147.47044 416.2214C147.47044 413.7361 149.48515 411.7214 151.97044 411.7214C154.45572 411.7214 156.47044 413.7361 156.47044 416.2214Z" fill-rule="nonzero"/><path fill="#4285f4" clip-path="url(#id_0)" d="M150.32343 418.25024C150.32343 420.73553 148.3087 422.75024 145.82343 422.75024C143.33813 422.75024 141.32343 420.73553 141.32343 418.25024C141.32343 415.76495 143.33813 413.75024 145.82343 413.75024C148.3087 413.75024 150.32343 415.76495 150.32343 418.25024Z" fill-rule="nonzero"/><path fill="#4285f4" clip-path="url(#id_0)" d="M145.71213 421.1546C145.71213 423.6399 143.6974 425.6546 141.21213 425.6546C138.72684 425.6546 136.71213 423.6399 136.71213 421.1546C136.71213 418.66934 138.72684 416.6546 141.21213 416.6546C143.6974 416.6546 145.71213 418.66934 145.71213 421.1546Z" fill-rule="nonzero"/><path fill="#4285f4" clip-path="url(#id_0)" d="M142.1274 422.42245C142.1274 424.9077 140.11269 426.92245 137.6274 426.92245C135.14212 426.92245 133.1274 424.9077 133.1274 422.42245C133.1274 419.93716 135.14212 417.92245 137.6274 417.92245C140.11269 417.92245 142.1274 419.93716 142.1274 422.42245Z" fill-rule="nonzero"/><path fill="#4285f4" clip-path="url(#id_0)" d="M559.74994 244.68295C559.74994 247.16823 557.73517 249.18295 555.24994 249.18295C552.76465 249.18295 550.74994 247.16823 550.74994 244.68295C550.74994 242.19766 552.76465 240.18295 555.24994 240.18295C557.73517 240.18295 559.74994 242.19766 559.74994 244.68295Z" fill-rule="nonzero"/><path fill="#4285f4" clip-path="url(#id_0)" d="M336.59457 350.79892C336.59457 353.2842 334.57986 355.29892 332.09457 355.29892C329.6093 355.29892 327.59457 353.2842 327.59457 350.79892C327.59457 348.31366 329.6093 346.29892 332.09457 346.29892C334.57986 346.29892 336.59457 348.31366 336.59457 350.79892Z" fill-rule="nonzero"/><path fill="#4285f4" clip-path="url(#id_0)" d="M262.20947 381.46057C262.20947 383.94583 260.19476 385.96057 257.70947 385.96057C255.2242 385.96057 253.20947 383.94583 253.20947 381.46057C253.20947 378.97528 255.2242 376.96057 257.70947 376.96057C260.19476 376.96057 262.20947 378.97528 262.20947 381.46057Z" fill-rule="nonzero"/><path fill="#4285f4" clip-path="url(#id_0)" d="M225.01692 394.67014C225.01692 397.15543 223.0022 399.17014 220.51692 399.17014C218.03163 399.17014 216.01692 397.15543 216.01692 394.67014C216.01692 392.18488 218.03163 390.17014 220.51692 390.17014C223.0022 390.17014 225.01692 392.18488 225.01692 394.67014Z" fill-rule="nonzero"/><path fill="#4285f4" clip-path="url(#id_0)" d="M202.70139 401.83206C202.70139 404.31732 200.68666 406.33206 198.20139 406.33206C195.71611 406.33206 193.70139 404.31732 193.70139 401.83206C193.70139 399.34677 195.71611 397.33206 198.20139 397.33206C200.68666 397.33206 202.70139 399.34677 202.70139 401.83206Z" fill-rule="nonzero"/><path fill="#4285f4" clip-path="url(#id_0)" d="M187.82436 408.94043C187.82436 411.42572 185.80965 413.44043 183.32436 413.44043C180.83908 413.44043 178.82436 411.42572 178.82436 408.94043C178.82436 406.45514 180.83908 404.44043 183.32436 404.44043C185.80965 404.44043 187.82436 406.45514 187.82436 408.94043Z" fill-rule="nonzero"/><path fill="#4285f4" clip-path="url(#id_0)" d="M177.19685 411.4502C177.19685 413.93546 175.18213 415.9502 172.69685 415.9502C170.21158 415.9502 168.19685 413.93546 168.19685 411.4502C168.19685 408.9649 170.21158 406.9502 172.69685 406.9502C175.18213 406.9502 177.19685 408.9649 177.19685 411.4502Z" fill-rule="nonzero"/><path fill="#4285f4" clip-path="url(#id_0)" d="M169.22684 414.7089C169.22684 417.19418 167.21213 419.2089 164.72684 419.2089C162.24156 419.2089 160.22684 417.19418 160.22684 414.7089C160.22684 412.2236 162.24156 410.2089 164.72684 410.2089C167.21213 410.2089 169.22684 412.2236 169.22684 414.7089Z" fill-rule="nonzero"/><path fill="#4285f4" clip-path="url(#id_0)" d="M163.02766 416.74573C163.02766 419.231 161.01295 421.24573 158.52766 421.24573C156.04239 421.24573 154.02766 419.231 154.02766 416.74573C154.02766 414.26044 156.04239 412.24573 158.52766 412.24573C161.01295 412.24573 163.02766 414.26044 163.02766 416.74573Z" fill-rule="nonzero"/><path fill="#4285f4" clip-path="url(#id_0)" d="M822.33307 135.13354C822.33307 137.61882 820.31836 139.63354 817.83307 139.63354C815.3478 139.63354 813.33307 137.61882 813.33307 135.13354C813.33307 132.64825 815.3478 130.63354 817.83307 130.63354C820.31836 130.63354 822.33307 132.64825 822.33307 135.13354Z" fill-rule="nonzero"/><path fill="#4285f4" clip-path="url(#id_0)" d="M467.88617 306.21124C467.88617 308.69653 465.87146 310.71124 463.38617 310.71124C460.90088 310.71124 458.88617 308.69653 458.88617 306.21124C458.88617 303.72595 460.90088 301.71124 463.38617 301.71124C465.87146 301.71124 467.88617 303.72595 467.88617 306.21124Z" fill-rule="nonzero"/><path fill="#4285f4" clip-path="url(#id_0)" d="M349.73718 355.72385C349.73718 358.20914 347.72247 360.22385 345.23718 360.22385C342.75192 360.22385 340.73718 358.20914 340.73718 355.72385C340.73718 353.23856 342.75192 351.22385 345.23718 351.22385C347.72247 351.22385 349.73718 353.23856 349.73718 355.72385Z" fill-rule="nonzero"/><path fill="#4285f4" clip-path="url(#id_0)" d="M290.66125 377.1832C290.66125 379.6685 288.64655 381.6832 286.16125 381.6832C283.67596 381.6832 281.66125 379.6685 281.66125 377.1832C281.66125 374.69794 283.67596 372.6832 286.16125 372.6832C288.64655 372.6832 290.66125 374.69794 290.66125 377.1832Z" fill-rule="nonzero"/><path fill="#4285f4" clip-path="url(#id_0)" d="M255.21802 388.38715C255.21802 390.87244 253.2033 392.88715 250.71802 392.88715C248.23274 392.88715 246.21802 390.87244 246.21802 388.38715C246.21802 385.90186 248.23274 383.88715 250.71802 383.88715C253.2033 383.88715 255.21802 385.90186 255.21802 388.38715Z" fill-rule="nonzero"/><path fill="#4285f4" clip-path="url(#id_0)" d="M231.58823 395.51306C231.58823 397.99832 229.5735 400.01306 227.08823 400.01306C224.60294 400.01306 222.58823 397.99832 222.58823 395.51306C222.58823 393.02777 224.60294 391.01306 227.08823 391.01306C229.5735 391.01306 231.58823 393.02777 231.58823 395.51306Z" fill-rule="nonzero"/><path fill="#4285f4" clip-path="url(#id_0)" d="M214.7098 401.10995C214.7098 403.5952 212.69508 405.60995 210.2098 405.60995C207.72452 405.60995 205.7098 403.5952 205.7098 401.10995C205.7098 398.62466 207.72452 396.60995 210.2098 396.60995C212.69508 396.60995 214.7098 398.62466 214.7098 401.10995Z" fill-rule="nonzero"/><path fill="#4285f4" clip-path="url(#id_0)" d="M202.05026 404.35233C202.05026 406.83762 200.03554 408.85233 197.55026 408.85233C195.06497 408.85233 193.05026 406.83762 193.05026 404.35233C193.05026 401.86707 195.06497 399.85233 197.55026 399.85233C200.03554 399.85233 202.05026 401.86707 202.05026 404.35233Z" fill-rule="nonzero"/><path fill="#4285f4" clip-path="url(#id_0)" d="M192.20427 407.8951C192.20427 410.38037 190.18954 412.3951 187.70427 412.3951C185.21898 412.3951 183.20427 410.38037 183.20427 407.8951C183.20427 405.40982 185.21898 403.3951 187.70427 403.3951C190.18954 403.3951 192.20427 405.40982 192.20427 407.8951Z" fill-rule="nonzero"/><path fill="#000000" d="M458.71875 492.46564L462.375 481.90314L464.21875 481.90314L459.48438 494.7L457.98438 494.7L453.25 481.90314L455.07812 481.90314L458.71875 492.46564ZM472.71875 488.77814L467.17188 488.77814L467.17188 493.325L473.60938 493.325L473.60938 494.7L465.48438 494.7L465.48438 481.90314L473.53125 481.90314L473.53125 483.29376L467.17188 483.29376L467.17188 487.40314L472.71875 487.40314L472.71875 488.77814Z" fill-rule="nonzero"/><path fill="#000000" d="M31.893763 326.7052L31.893763 330.81458L43.30001 330.81458L43.30001 332.50208L31.893763 332.50208L31.893763 336.59583L30.503138 336.59583L30.503138 326.7052L31.893763 326.7052ZM43.30001 323.03333L43.30001 324.65833L33.784386 324.65833L33.784386 323.03333L43.30001 323.03333ZM31.268763 324.79895Q30.878138 324.79895 30.612513 324.56458Q30.331263 324.31458 30.331263 323.84583Q30.331263 323.36145 30.612513 323.11145Q30.878138 322.86145 31.268763 322.86145Q31.659388 322.86145 31.925013 323.11145Q32.190636 323.36145 32.190636 323.84583Q32.190636 324.31458 31.925013 324.56458Q31.659388 324.79895 31.268763 324.79895ZM33.784386 319.2677L34.846886 319.23645Q33.61251 318.18958 33.61251 316.40833Q33.61251 314.40833 35.14376 313.68958Q34.45626 313.22083 34.034386 312.4552Q33.61251 311.68958 33.61251 310.65833Q33.61251 307.53333 36.92501 307.47083L43.30001 307.47083L43.30001 309.11145L37.01876 309.11145Q36.003136 309.11145 35.503136 309.5802Q34.98751 310.03333 34.98751 311.12708Q34.98751 312.03333 35.534386 312.6427Q36.08126 313.23645 36.98751 313.3302L43.30001 313.3302L43.30001 314.97083L37.065636 314.97083Q34.98751 314.97083 34.98751 317.00208Q34.98751 318.59583 36.36251 319.18958L43.30001 319.18958L43.30001 320.81458L33.784386 320.81458L33.784386 319.2677ZM43.471886 300.86145Q43.471886 302.78333 42.20626 304.00208Q40.940636 305.22083 38.815636 305.22083L38.503136 305.22083Q37.096886 305.22083 35.98751 304.67395Q34.878136 304.12708 34.253136 303.15833Q33.61251 302.18958 33.61251 301.06458Q33.61251 299.2052 34.83126 298.17395Q36.05001 297.1427 38.33126 297.1427L39.003136 297.1427L39.003136 303.59583Q40.409386 303.54895 41.284386 302.7677Q42.14376 301.98645 42.14376 300.7677Q42.14376 299.90833 41.80001 299.31458Q41.440636 298.7052 40.86251 298.2677L41.64376 297.2677Q43.471886 298.47083 43.471886 300.86145ZM34.95626 301.06458Q34.95626 302.04895 35.67501 302.72083Q36.378136 303.37708 37.67501 303.53333L37.67501 298.7677L37.55001 298.7677Q36.315636 298.84583 35.64376 299.43958Q34.95626 300.03333 34.95626 301.06458ZM38.11251 290.86145Q36.11251 290.86145 34.284386 290.3302Q32.45626 289.79895 30.971888 288.75208Q29.471888 287.68958 28.862513 286.56458L29.925013 286.22083Q30.909388 287.50208 32.940636 288.3302Q34.95626 289.1427 37.45626 289.23645L38.20626 289.23645Q41.596886 289.23645 44.096886 288.00208Q45.596886 287.25208 46.440636 286.22083L47.42501 286.56458Q46.784386 287.72083 45.253136 288.78333Q42.26876 290.86145 38.11251 290.86145ZM40.784386 279.2677Q40.11251 279.2677 39.753136 279.7677Q39.39376 280.25208 39.128136 281.48645Q38.86251 282.72083 38.503136 283.4552Q38.128136 284.17395 37.61251 284.53333Q37.096886 284.87708 36.39376 284.87708Q35.23751 284.87708 34.42501 283.8927Q33.61251 282.8927 33.61251 281.36145Q33.61251 279.73645 34.45626 278.73645Q35.284386 277.72083 36.58126 277.72083L36.58126 279.36145Q35.909386 279.36145 35.440636 279.93958Q34.95626 280.50208 34.95626 281.36145Q34.95626 282.25208 35.346886 282.75208Q35.721886 283.25208 36.346886 283.25208Q36.940636 283.25208 37.23751 282.78333Q37.534386 282.31458 37.815636 281.09583Q38.08126 279.87708 38.45626 279.12708Q38.83126 278.36145 39.36251 278.00208Q39.89376 277.6427 40.659386 277.6427Q41.940636 277.6427 42.70626 278.65833Q43.471886 279.67395 43.471886 281.29895Q43.471886 282.43958 43.065636 283.3302Q42.659386 284.2052 41.940636 284.7052Q41.221886 285.2052 40.378136 285.2052L40.378136 283.56458Q41.190636 283.53333 41.67501 282.92395Q42.14376 282.29895 42.14376 281.29895Q42.14376 280.37708 41.76876 279.8302Q41.39376 279.2677 40.784386 279.2677ZM43.471886 271.86145Q43.471886 273.78333 42.20626 275.00208Q40.940636 276.22083 38.815636 276.22083L38.503136 276.22083Q37.096886 276.22083 35.98751 275.67395Q34.878136 275.12708 34.253136 274.15833Q33.61251 273.18958 33.61251 272.06458Q33.61251 270.2052 34.83126 269.17395Q36.05001 268.1427 38.33126 268.1427L39.003136 268.1427L39.003136 274.59583Q40.409386 274.54895 41.284386 273.7677Q42.14376 272.98645 42.14376 271.7677Q42.14376 270.90833 41.80001 270.31458Q41.440636 269.7052 40.86251 269.2677L41.64376 268.2677Q43.471886 269.47083 43.471886 271.86145ZM34.95626 272.06458Q34.95626 273.04895 35.67501 273.72083Q36.378136 274.37708 37.67501 274.53333L37.67501 269.7677L37.55001 269.7677Q36.315636 269.84583 35.64376 270.43958Q34.95626 271.03333 34.95626 272.06458ZM42.14376 261.98645Q42.14376 261.11145 41.628136 260.47083Q41.096886 259.81458 40.30001 259.75208L40.30001 258.2052Q41.11251 258.25208 41.86251 258.7677Q42.596886 259.28333 43.034386 260.15833Q43.471886 261.0177 43.471886 261.98645Q43.471886 263.92395 42.17501 265.0802Q40.878136 266.22083 38.628136 266.22083L38.36251 266.22083Q36.971886 266.22083 35.89376 265.72083Q34.815636 265.2052 34.221886 264.25208Q33.61251 263.29895 33.61251 262.00208Q33.61251 260.3927 34.58126 259.34583Q35.534386 258.28333 37.065636 258.2052L37.065636 259.75208Q36.14376 259.81458 35.55001 260.4552Q34.95626 261.0802 34.95626 262.00208Q34.95626 263.23645 35.846886 263.92395Q36.73751 264.59583 38.42501 264.59583L38.721886 264.59583Q40.378136 264.59583 41.26876 263.92395Q42.14376 263.25208 42.14376 261.98645ZM38.45626 257.23645Q37.065636 257.23645 35.95626 256.68958Q34.83126 256.12708 34.221886 255.15834Q33.61251 254.17397 33.61251 252.92397Q33.61251 250.97084 34.95626 249.78334Q36.30001 248.58022 38.534386 248.58022L38.64376 248.58022Q40.034386 248.58022 41.14376 249.11147Q42.23751 249.64272 42.86251 250.62709Q43.471886 251.61147 43.471886 252.89272Q43.471886 254.83022 42.128136 256.03333Q40.784386 257.23645 38.565636 257.23645L38.45626 257.23645ZM38.64376 255.59584Q40.23751 255.59584 41.190636 254.86147Q42.14376 254.12709 42.14376 252.89272Q42.14376 251.65834 41.17501 250.93959Q40.20626 250.20522 38.45626 250.20522Q36.89376 250.20522 35.92501 250.95522Q34.95626 251.68959 34.95626 252.92397Q34.95626 254.12709 35.909386 254.86147Q36.86251 255.59584 38.64376 255.59584ZM33.784386 245.26772L34.98751 245.20522Q33.61251 244.12709 33.61251 242.36147Q33.61251 239.34584 37.01876 239.33022L43.30001 239.33022L43.30001 240.95522L37.003136 240.95522Q35.971886 240.95522 35.48751 241.42397Q34.98751 241.87709 34.98751 242.86147Q34.98751 243.64272 35.409386 244.25209Q35.83126 244.84584 36.51876 245.17397L43.30001 245.17397L43.30001 246.79897L33.784386 246.79897L33.784386 245.26772ZM38.471886 237.20522Q36.284386 237.20522 34.95626 236.17397Q33.61251 235.12709 33.61251 233.43959Q33.61251 231.76772 34.753136 230.79897L29.800013 230.79897L29.800013 229.17397L43.30001 229.17397L43.30001 230.67397L42.284386 230.75209Q43.471886 231.72084 43.471886 233.45522Q43.471886 235.11147 42.128136 236.15834Q40.76876 237.20522 38.58126 237.20522L38.471886 237.20522ZM38.64376 235.56459Q40.26876 235.56459 41.190636 234.90834Q42.096886 234.23647 42.096886 233.06459Q42.096886 231.51772 40.70626 230.79897L36.33126 230.79897Q34.98751 231.53334 34.98751 233.03334Q34.98751 234.23647 35.92501 234.90834Q36.846886 235.56459 38.64376 235.56459ZM40.784386 221.26772Q40.11251 221.26772 39.753136 221.76772Q39.39376 222.25209 39.128136 223.48647Q38.86251 224.72084 38.503136 225.45522Q38.128136 226.17397 37.61251 226.53334Q37.096886 226.87709 36.39376 226.87709Q35.23751 226.87709 34.42501 225.89272Q33.61251 224.89272 33.61251 223.36147Q33.61251 221.73647 34.45626 220.73645Q35.284386 219.72083 36.58126 219.72083L36.58126 221.36147Q35.909386 221.36147 35.440636 221.93959Q34.95626 222.50209 34.95626 223.36147Q34.95626 224.25209 35.346886 224.75209Q35.721886 225.25209 36.346886 225.25209Q36.940636 225.25209 37.23751 224.78334Q37.534386 224.31459 37.815636 223.09584Q38.08126 221.87709 38.45626 221.12709Q38.83126 220.36145 39.36251 220.00208Q39.89376 219.6427 40.659386 219.6427Q41.940636 219.6427 42.70626 220.65833Q43.471886 221.67397 43.471886 223.29897Q43.471886 224.43959 43.065636 225.33022Q42.659386 226.20522 41.940636 226.70522Q41.221886 227.20522 40.378136 227.20522L40.378136 225.56459Q41.190636 225.53334 41.67501 224.92397Q42.14376 224.29897 42.14376 223.29897Q42.14376 222.37709 41.76876 221.83022Q41.39376 221.26772 40.784386 221.26772ZM38.190636 214.04895Q40.159386 214.04895 41.95626 214.56458Q43.753136 215.0802 45.26876 216.1427Q46.784386 217.18958 47.42501 218.36145L46.440636 218.7052Q45.39376 217.34583 43.221886 216.53333Q41.034386 215.7052 38.36251 215.68958L38.08126 215.68958Q36.23751 215.68958 34.659386 216.0802Q33.065636 216.4552 31.815638 217.1427Q30.550013 217.8302 29.846888 218.7052L28.862513 218.36145Q29.503138 217.18958 31.003138 216.1427Q32.503136 215.09583 34.315636 214.5802Q36.128136 214.04895 38.190636 214.04895Z" fill-rule="nonzero"/><path fill="#000000" d="M89.8 430.46564Q89.8 428.9344 90.1125 428.0125Q90.425 427.075 91.03438 426.575Q91.65938 426.075 92.59688 426.075Q93.28438 426.075 93.8 426.35626Q94.33125 426.6375 94.675 427.16876Q95.01875 427.6844 95.20625 428.4344Q95.39375 429.1844 95.39375 430.46564Q95.39375 431.98126 95.08125 432.90314Q94.78438 433.825 94.15938 434.34064Q93.55 434.84064 92.59688 434.84064Q91.3625 434.84064 90.64375 433.95Q89.8 432.8875 89.8 430.46564ZM90.87813 430.46564Q90.87813 432.575 91.37813 433.27814Q91.87813 433.98126 92.59688 433.98126Q93.33125 433.98126 93.81563 433.27814Q94.31563 432.575 94.31563 430.46564Q94.31563 428.34064 93.81563 427.65314Q93.33125 426.95 92.58125 426.95Q91.8625 426.95 91.425 427.5594Q90.87813 428.34064 90.87813 430.46564Z" fill-rule="nonzero"/><path fill="#000000" d="M89.8 367.58334L90.90938 367.4896Q91.03438 368.3021 91.47188 368.70834Q91.925 369.1146 92.56563 369.1146Q93.31563 369.1146 93.84688 368.53647Q94.37813 367.95834 94.37813 367.02084Q94.37813 366.1146 93.8625 365.59897Q93.3625 365.06772 92.53438 365.06772Q92.03438 365.06772 91.6125 365.3021Q91.20625 365.53647 90.97188 365.89584L89.9875 365.77084L90.81563 361.3646L95.09688 361.3646L95.09688 362.3646L91.65938 362.3646L91.20625 364.6771Q91.97188 364.13022 92.81563 364.13022Q93.94063 364.13022 94.70625 364.91147Q95.4875 365.69272 95.4875 366.9271Q95.4875 368.08334 94.81563 368.94272Q93.9875 369.97397 92.56563 369.97397Q91.39375 369.97397 90.64375 369.31772Q89.90938 368.66147 89.8 367.58334Z" fill-rule="nonzero"/><path fill="#000000" d="M86.76875 304.96667L85.72188 304.96667L85.72188 298.24792Q85.33125 298.6073 84.70625 298.9823Q84.09688 299.34167 83.6125 299.51355L83.6125 298.49792Q84.4875 298.07605 85.14375 297.49792Q85.81563 296.90417 86.09688 296.34167L86.76875 296.34167L86.76875 304.96667ZM89.8 300.7323Q89.8 299.20105 90.1125 298.27917Q90.425 297.34167 91.03438 296.84167Q91.65938 296.34167 92.59688 296.34167Q93.28438 296.34167 93.8 296.62292Q94.33125 296.90417 94.675 297.43542Q95.01875 297.95105 95.20625 298.70105Q95.39375 299.45105 95.39375 300.7323Q95.39375 302.24792 95.08125 303.1698Q94.78438 304.09167 94.15938 304.6073Q93.55 305.1073 92.59688 305.1073Q91.3625 305.1073 90.64375 304.21667Q89.8 303.15417 89.8 300.7323ZM90.87813 300.7323Q90.87813 302.84167 91.37813 303.5448Q91.87813 304.24792 92.59688 304.24792Q93.33125 304.24792 93.81563 303.5448Q94.31563 302.84167 94.31563 300.7323Q94.31563 298.6073 93.81563 297.9198Q93.33125 297.21667 92.58125 297.21667Q91.8625 297.21667 91.425 297.82605Q90.87813 298.6073 90.87813 300.7323Z" fill-rule="nonzero"/><path fill="#000000" d="M86.76875 240.1L85.72188 240.1L85.72188 233.38126Q85.33125 233.74063 84.70625 234.11563Q84.09688 234.475 83.6125 234.64688L83.6125 233.63126Q84.4875 233.20938 85.14375 232.63126Q85.81563 232.0375 86.09688 231.475L86.76875 231.475L86.76875 240.1ZM89.8 237.85L90.90938 237.75626Q91.03438 238.56876 91.47188 238.975Q91.925 239.38126 92.56563 239.38126Q93.31563 239.38126 93.84688 238.80313Q94.37813 238.225 94.37813 237.2875Q94.37813 236.38126 93.8625 235.86563Q93.3625 235.33438 92.53438 235.33438Q92.03438 235.33438 91.6125 235.56876Q91.20625 235.80313 90.97188 236.1625L89.9875 236.0375L90.81563 231.63126L95.09688 231.63126L95.09688 232.63126L91.65938 232.63126L91.20625 234.94376Q91.97188 234.39688 92.81563 234.39688Q93.94063 234.39688 94.70625 235.17813Q95.4875 235.95938 95.4875 237.19376Q95.4875 238.35 94.81563 239.20938Q93.9875 240.24063 92.56563 240.24063Q91.39375 240.24063 90.64375 239.58438Q89.90938 238.92813 89.8 237.85Z" fill-rule="nonzero"/><path fill="#000000" d="M88.34688 174.21771L88.34688 175.23334L82.65938 175.23334Q82.65938 174.85834 82.78438 174.49896Q83.00313 173.92084 83.47188 173.35834Q83.95625 172.79584 84.8625 172.06146Q86.26875 170.90521 86.75313 170.23334Q87.25313 169.56146 87.25313 168.96771Q87.25313 168.34271 86.8 167.92084Q86.34688 167.48334 85.62813 167.48334Q84.8625 167.48334 84.40938 167.93646Q83.95625 168.38959 83.94063 169.20209L82.8625 169.09271Q82.97188 167.87396 83.69063 167.24896Q84.425 166.60834 85.65938 166.60834Q86.89375 166.60834 87.6125 167.29584Q88.33125 167.98334 88.33125 168.99896Q88.33125 169.51459 88.1125 170.01459Q87.90938 170.49896 87.40938 171.06146Q86.925 171.60834 85.8 172.56146Q84.84688 173.35834 84.56563 173.65521Q84.3 173.93646 84.12813 174.21771L88.34688 174.21771ZM89.8 170.99896Q89.8 169.46771 90.1125 168.54584Q90.425 167.60834 91.03438 167.10834Q91.65938 166.60834 92.59688 166.60834Q93.28438 166.60834 93.8 166.88959Q94.33125 167.17084 94.675 167.70209Q95.01875 168.21771 95.20625 168.96771Q95.39375 169.71771 95.39375 170.99896Q95.39375 172.51459 95.08125 173.43646Q94.78438 174.35834 94.15938 174.87396Q93.55 175.37396 92.59688 175.37396Q91.3625 175.37396 90.64375 174.48334Q89.8 173.42084 89.8 170.99896ZM90.87813 170.99896Q90.87813 173.10834 91.37813 173.81146Q91.87813 174.51459 92.59688 174.51459Q93.33125 174.51459 93.81563 173.81146Q94.31563 173.10834 94.31563 170.99896Q94.31563 168.87396 93.81563 168.18646Q93.33125 167.48334 92.58125 167.48334Q91.8625 167.48334 91.425 168.09271Q90.87813 168.87396 90.87813 170.99896Z" fill-rule="nonzero"/><path fill="#000000" d="M88.34688 109.35104L88.34688 110.36667L82.65938 110.36667Q82.65938 109.99167 82.78438 109.63229Q83.00313 109.05417 83.47188 108.49167Q83.95625 107.92917 84.8625 107.19479Q86.26875 106.03854 86.75313 105.36667Q87.25313 104.69479 87.25313 104.10104Q87.25313 103.47604 86.8 103.05417Q86.34688 102.61667 85.62813 102.61667Q84.8625 102.61667 84.40938 103.06979Q83.95625 103.52292 83.94063 104.33542L82.8625 104.22604Q82.97188 103.00729 83.69063 102.38229Q84.425 101.74167 85.65938 101.74167Q86.89375 101.74167 87.6125 102.42917Q88.33125 103.11667 88.33125 104.13229Q88.33125 104.64792 88.1125 105.14792Q87.90938 105.63229 87.40938 106.19479Q86.925 106.74167 85.8 107.69479Q84.84688 108.49167 84.56563 108.78854Q84.3 109.06979 84.12813 109.35104L88.34688 109.35104ZM89.8 108.11667L90.90938 108.02292Q91.03438 108.83542 91.47188 109.24167Q91.925 109.64792 92.56563 109.64792Q93.31563 109.64792 93.84688 109.06979Q94.37813 108.49167 94.37813 107.55417Q94.37813 106.64792 93.8625 106.13229Q93.3625 105.60104 92.53438 105.60104Q92.03438 105.60104 91.6125 105.83542Q91.20625 106.06979 90.97188 106.42917L89.9875 106.30417L90.81563 101.89792L95.09688 101.89792L95.09688 102.89792L91.65938 102.89792L91.20625 105.21042Q91.97188 104.66354 92.81563 104.66354Q93.94063 104.66354 94.70625 105.44479Q95.4875 106.22604 95.4875 107.46042Q95.4875 108.61667 94.81563 109.47604Q93.9875 110.50729 92.56563 110.50729Q91.39375 110.50729 90.64375 109.85104Q89.90938 109.19479 89.8 108.11667Z" fill-rule="nonzero"/><path fill="#000000" d="M105.939255 443.46564Q105.939255 441.9344 106.251755 441.0125Q106.564255 440.075 107.17363 439.575Q107.79863 439.075 108.73613 439.075Q109.42363 439.075 109.939255 439.35626Q110.470505 439.6375 110.814255 440.16876Q111.158005 440.6844 111.345505 441.4344Q111.533005 442.1844 111.533005 443.46564Q111.533005 444.98126 111.220505 445.90314Q110.92363 446.825 110.29863 447.34064Q109.689255 447.84064 108.73613 447.84064Q107.501755 447.84064 106.783005 446.95Q105.939255 445.8875 105.939255 443.46564ZM107.01738 443.46564Q107.01738 445.575 107.51738 446.27814Q108.01738 446.98126 108.73613 446.98126Q109.470505 446.98126 109.95488 446.27814Q110.45488 445.575 110.45488 443.46564Q110.45488 441.34064 109.95488 440.65314Q109.470505 439.95 108.720505 439.95Q108.001755 439.95 107.564255 440.5594Q107.01738 441.34064 107.01738 443.46564Z" fill-rule="nonzero"/><path fill="#000000" d="M296.90952 445.45L298.0189 445.35626Q298.1439 446.16876 298.5814 446.575Q299.03452 446.98126 299.67514 446.98126Q300.42514 446.98126 300.9564 446.40314Q301.48764 445.825 301.48764 444.8875Q301.48764 443.98126 300.97202 443.46564Q300.47202 442.9344 299.6439 442.9344Q299.1439 442.9344 298.72202 443.16876Q298.31577 443.40314 298.0814 443.7625L297.09702 443.6375L297.92514 439.23126L302.2064 439.23126L302.2064 440.23126L298.7689 440.23126L298.31577 442.54376Q299.0814 441.9969 299.92514 441.9969Q301.05014 441.9969 301.81577 442.77814Q302.59702 443.5594 302.59702 444.79376Q302.59702 445.95 301.92514 446.8094Q301.09702 447.84064 299.67514 447.84064Q298.50327 447.84064 297.75327 447.1844Q297.0189 446.52814 296.90952 445.45ZM304.50327 447.7L304.50327 446.4969L305.7064 446.4969L305.7064 447.7L304.50327 447.7ZM306.90952 443.46564Q306.90952 441.9344 307.22202 441.0125Q307.53452 440.075 308.1439 439.575Q308.7689 439.075 309.7064 439.075Q310.3939 439.075 310.90952 439.35626Q311.44077 439.6375 311.78452 440.16876Q312.12827 440.6844 312.31577 441.4344Q312.50327 442.1844 312.50327 443.46564Q312.50327 444.98126 312.19077 445.90314Q311.8939 446.825 311.2689 447.34064Q310.65952 447.84064 309.7064 447.84064Q308.47202 447.84064 307.75327 446.95Q306.90952 445.8875 306.90952 443.46564ZM307.98764 443.46564Q307.98764 445.575 308.48764 446.27814Q308.98764 446.98126 309.7064 446.98126Q310.44077 446.98126 310.92514 446.27814Q311.42514 445.575 311.42514 443.46564Q311.42514 441.34064 310.92514 440.65314Q310.44077 439.95 309.69077 439.95Q308.97202 439.95 308.53452 440.5594Q307.98764 441.34064 307.98764 443.46564ZM314.36264 447.7L314.36264 439.10626L320.56577 439.10626L320.56577 440.1219L315.50327 440.1219L315.50327 442.7469L320.25327 442.7469L320.25327 443.7625L315.50327 443.7625L315.50327 446.6844L320.7689 446.6844L320.7689 447.7L314.36264 447.7ZM324.40952 446.3094L324.40952 443.95L322.0814 443.95L322.0814 442.96564L324.40952 442.96564L324.40952 440.6375L325.40952 440.6375L325.40952 442.96564L327.75327 442.96564L327.75327 443.95L325.40952 443.95L325.40952 446.3094L324.40952 446.3094ZM328.97202 440.23126L328.97202 439.21564L334.53452 439.21564L334.53452 440.04376Q333.72202 440.91876 332.90952 442.3719Q332.11264 443.8094 331.67514 445.34064Q331.34702 446.41876 331.2689 447.7L330.17514 447.7Q330.19077 446.6844 330.56577 445.2469Q330.9564 443.8094 331.65952 442.48126Q332.37827 441.15314 333.19077 440.23126L328.97202 440.23126Z" fill-rule="nonzero"/><path fill="#000000" d="M507.8485 447.7L506.80164 447.7L506.80164 440.98126Q506.411 441.34064 505.786 441.71564Q505.17664 442.075 504.69226 442.2469L504.69226 441.23126Q505.56726 440.8094 506.2235 440.23126Q506.8954 439.6375 507.17664 439.075L507.8485 439.075L507.8485 447.7ZM511.4735 447.7L511.4735 446.4969L512.67664 446.4969L512.67664 447.7L511.4735 447.7ZM513.87976 443.46564Q513.87976 441.9344 514.19226 441.0125Q514.50476 440.075 515.11414 439.575Q515.73914 439.075 516.67664 439.075Q517.36414 439.075 517.87976 439.35626Q518.411 439.6375 518.75476 440.16876Q519.0985 440.6844 519.286 441.4344Q519.4735 442.1844 519.4735 443.46564Q519.4735 444.98126 519.161 445.90314Q518.86414 446.825 518.23914 447.34064Q517.62976 447.84064 516.67664 447.84064Q515.44226 447.84064 514.7235 446.95Q513.87976 445.8875 513.87976 443.46564ZM514.9579 443.46564Q514.9579 445.575 515.4579 446.27814Q515.9579 446.98126 516.67664 446.98126Q517.411 446.98126 517.8954 446.27814Q518.3954 445.575 518.3954 443.46564Q518.3954 441.34064 517.8954 440.65314Q517.411 439.95 516.661 439.95Q515.94226 439.95 515.50476 440.5594Q514.9579 441.34064 514.9579 443.46564ZM521.3329 447.7L521.3329 439.10626L527.536 439.10626L527.536 440.1219L522.4735 440.1219L522.4735 442.7469L527.2235 442.7469L527.2235 443.7625L522.4735 443.7625L522.4735 446.6844L527.73914 446.6844L527.73914 447.7L521.3329 447.7ZM531.37976 446.3094L531.37976 443.95L529.05164 443.95L529.05164 442.96564L531.37976 442.96564L531.37976 440.6375L532.37976 440.6375L532.37976 442.96564L534.7235 442.96564L534.7235 443.95L532.37976 443.95L532.37976 446.3094L531.37976 446.3094ZM537.50476 443.04376Q536.8485 442.79376 536.5204 442.35626Q536.2079 441.90314 536.2079 441.29376Q536.2079 440.35626 536.87976 439.71564Q537.56726 439.075 538.67664 439.075Q539.80164 439.075 540.48914 439.73126Q541.17664 440.3875 541.17664 441.325Q541.17664 441.91876 540.86414 442.35626Q540.55164 442.79376 539.911 443.04376Q540.7079 443.29376 541.11414 443.8719Q541.5204 444.45 541.5204 445.2469Q541.5204 446.34064 540.73914 447.09064Q539.9735 447.84064 538.69226 447.84064Q537.42664 447.84064 536.6454 447.09064Q535.86414 446.34064 535.86414 445.21564Q535.86414 444.3719 536.286 443.8094Q536.7235 443.2469 537.50476 443.04376ZM537.286 441.2469Q537.286 441.85626 537.67664 442.2469Q538.0829 442.6375 538.7079 442.6375Q539.31726 442.6375 539.7079 442.2625Q540.0985 441.8719 540.0985 441.3094Q540.0985 440.73126 539.69226 440.34064Q539.286 439.9344 538.69226 439.9344Q538.0829 439.9344 537.67664 440.325Q537.286 440.71564 537.286 441.2469ZM536.9579 445.21564Q536.9579 445.66876 537.161 446.09064Q537.37976 446.5125 537.80164 446.7469Q538.2235 446.98126 538.7079 446.98126Q539.4579 446.98126 539.94226 446.4969Q540.44226 446.0125 540.44226 445.2625Q540.44226 444.4969 539.94226 443.9969Q539.44226 443.4969 538.67664 443.4969Q537.92664 443.4969 537.44226 443.9969Q536.9579 444.48126 536.9579 445.21564Z" fill-rule="nonzero"/><path fill="#000000" d="M714.8188 447.7L713.7719 447.7L713.7719 440.98126Q713.3813 441.34064 712.7563 441.71564Q712.1469 442.075 711.66254 442.2469L711.66254 441.23126Q712.53754 440.8094 713.1938 440.23126Q713.86566 439.6375 714.1469 439.075L714.8188 439.075L714.8188 447.7ZM718.4438 447.7L718.4438 446.4969L719.6469 446.4969L719.6469 447.7L718.4438 447.7ZM720.85004 445.45L721.9594 445.35626Q722.0844 446.16876 722.5219 446.575Q722.97504 446.98126 723.61566 446.98126Q724.36566 446.98126 724.8969 446.40314Q725.42816 445.825 725.42816 444.8875Q725.42816 443.98126 724.91254 443.46564Q724.41254 442.9344 723.5844 442.9344Q723.0844 442.9344 722.66254 443.16876Q722.2563 443.40314 722.0219 443.7625L721.03754 443.6375L721.86566 439.23126L726.1469 439.23126L726.1469 440.23126L722.7094 440.23126L722.2563 442.54376Q723.0219 441.9969 723.86566 441.9969Q724.99066 441.9969 725.7563 442.77814Q726.53754 443.5594 726.53754 444.79376Q726.53754 445.95 725.86566 446.8094Q725.03754 447.84064 723.61566 447.84064Q722.4438 447.84064 721.6938 447.1844Q720.9594 446.52814 720.85004 445.45ZM728.30316 447.7L728.30316 439.10626L734.5063 439.10626L734.5063 440.1219L729.4438 440.1219L729.4438 442.7469L734.1938 442.7469L734.1938 443.7625L729.4438 443.7625L729.4438 446.6844L734.7094 446.6844L734.7094 447.7L728.30316 447.7ZM738.35004 446.3094L738.35004 443.95L736.0219 443.95L736.0219 442.96564L738.35004 442.96564L738.35004 440.6375L739.35004 440.6375L739.35004 442.96564L741.6938 442.96564L741.6938 443.95L739.35004 443.95L739.35004 446.3094L738.35004 446.3094ZM744.47504 443.04376Q743.8188 442.79376 743.49066 442.35626Q743.17816 441.90314 743.17816 441.29376Q743.17816 440.35626 743.85004 439.71564Q744.53754 439.075 745.6469 439.075Q746.7719 439.075 747.4594 439.73126Q748.1469 440.3875 748.1469 441.325Q748.1469 441.91876 747.8344 442.35626Q747.5219 442.79376 746.8813 443.04376Q747.67816 443.29376 748.0844 443.8719Q748.49066 444.45 748.49066 445.2469Q748.49066 446.34064 747.7094 447.09064Q746.9438 447.84064 745.66254 447.84064Q744.3969 447.84064 743.61566 447.09064Q742.8344 446.34064 742.8344 445.21564Q742.8344 444.3719 743.2563 443.8094Q743.6938 443.2469 744.47504 443.04376ZM744.2563 441.2469Q744.2563 441.85626 744.6469 442.2469Q745.05316 442.6375 745.67816 442.6375Q746.28754 442.6375 746.67816 442.2625Q747.0688 441.8719 747.0688 441.3094Q747.0688 440.73126 746.66254 440.34064Q746.2563 439.9344 745.66254 439.9344Q745.05316 439.9344 744.6469 440.325Q744.2563 440.71564 744.2563 441.2469ZM743.92816 445.21564Q743.92816 445.66876 744.1313 446.09064Q744.35004 446.5125 744.7719 446.7469Q745.1938 446.98126 745.67816 446.98126Q746.42816 446.98126 746.91254 446.4969Q747.41254 446.0125 747.41254 445.2625Q747.41254 444.4969 746.91254 443.9969Q746.41254 443.4969 745.6469 443.4969Q744.8969 443.4969 744.41254 443.9969Q743.92816 444.48126 743.92816 445.21564Z" fill-rule="nonzero"/><path fill="#4285f4" d="M326.0 74.833336C326.0 78.14704 323.31372 80.833336 320.0 80.833336C316.68628 80.833336 314.0 78.14704 314.0 74.833336C314.0 71.51962 316.68628 68.833336 320.0 68.833336C323.31372 68.833336 326.0 71.51962 326.0 74.833336Z" fill-rule="nonzero"/><path stroke="#4285f4" stroke-width="4.0" stroke-linecap="butt" stroke-opacity="0.4" d="M342.0 74.833336L354.0 74.833336" fill-rule="nonzero"/><path fill="#1a1a1a" d="M365.10938 78.833336L365.10938 71.25521L362.28125 71.25521L362.28125 70.239586L369.09375 70.239586L369.09375 71.25521L366.25 71.25521L366.25 78.833336L365.10938 78.833336ZM369.78125 78.833336L369.78125 72.614586L370.73438 72.614586L370.73438 73.552086Q371.09375 72.895836 371.39062 72.69271Q371.70312 72.47396 372.07812 72.47396Q372.60938 72.47396 373.15625 72.802086L372.79688 73.78646Q372.40625 73.552086 372.03125 73.552086Q371.67188 73.552086 371.39062 73.770836Q371.125 73.97396 371.01562 74.34896Q370.82812 74.91146 370.82812 75.56771L370.82812 78.833336L369.78125 78.833336ZM378.04688 76.833336L379.14062 76.958336Q378.89062 77.91146 378.1875 78.44271Q377.48438 78.97396 376.40625 78.97396Q375.04688 78.97396 374.23438 78.13021Q373.4375 77.28646 373.4375 75.770836Q373.4375 74.208336 374.25 73.34896Q375.0625 72.47396 376.34375 72.47396Q377.59375 72.47396 378.375 73.31771Q379.17188 74.16146 379.17188 75.708336Q379.17188 75.802086 379.17188 75.989586L374.53125 75.989586Q374.59375 77.020836 375.10938 77.56771Q375.625 78.09896 376.40625 78.09896Q376.98438 78.09896 377.39062 77.802086Q377.8125 77.489586 378.04688 76.833336ZM374.59375 75.13021L378.0625 75.13021Q378.0 74.333336 377.67188 73.94271Q377.15625 73.333336 376.35938 73.333336Q375.625 73.333336 375.125 73.81771Q374.64062 74.302086 374.59375 75.13021ZM380.79688 78.833336L380.79688 72.614586L381.73438 72.614586L381.73438 73.489586Q382.42188 72.47396 383.71875 72.47396Q384.28125 72.47396 384.75 72.677086Q385.23438 72.88021 385.46875 73.208336Q385.70312 73.53646 385.79688 73.97396Q385.84375 74.270836 385.84375 75.00521L385.84375 78.833336L384.79688 78.833336L384.79688 75.052086Q384.79688 74.395836 384.67188 74.083336Q384.54688 73.770836 384.23438 73.583336Q383.92188 73.38021 383.5 73.38021Q382.82812 73.38021 382.32812 73.81771Q381.84375 74.239586 381.84375 75.427086L381.84375 78.833336L380.79688 78.833336ZM391.82812 78.833336L391.82812 78.052086Q391.23438 78.97396 390.09375 78.97396Q389.34375 78.97396 388.71875 78.56771Q388.09375 78.145836 387.75 77.41146Q387.40625 76.677086 387.40625 75.72396Q387.40625 74.802086 387.71875 74.03646Q388.03125 73.270836 388.65625 72.88021Q389.28125 72.47396 390.04688 72.47396Q390.60938 72.47396 391.04688 72.708336Q391.48438 72.94271 391.76562 73.31771L391.76562 70.239586L392.8125 70.239586L392.8125 78.833336L391.82812 78.833336ZM388.5 75.72396Q388.5 76.927086 389.0 77.520836Q389.5 78.09896 390.1875 78.09896Q390.875 78.09896 391.35938 77.53646Q391.84375 76.97396 391.84375 75.81771Q391.84375 74.53646 391.34375 73.94271Q390.85938 73.34896 390.14062 73.34896Q389.4375 73.34896 388.96875 73.927086Q388.5 74.489586 388.5 75.72396ZM394.76562 78.833336L394.76562 70.239586L395.82812 70.239586L395.82812 78.833336L394.76562 78.833336ZM397.79688 71.458336L397.79688 70.239586L398.85938 70.239586L398.85938 71.458336L397.79688 71.458336ZM397.79688 78.833336L397.79688 72.614586L398.85938 72.614586L398.85938 78.833336L397.79688 78.833336ZM400.79688 78.833336L400.79688 72.614586L401.73438 72.614586L401.73438 73.489586Q402.42188 72.47396 403.71875 72.47396Q404.28125 72.47396 404.75 72.677086Q405.23438 72.88021 405.46875 73.208336Q405.70312 73.53646 405.79688 73.97396Q405.84375 74.270836 405.84375 75.00521L405.84375 78.833336L404.79688 78.833336L404.79688 75.052086Q404.79688 74.395836 404.67188 74.083336Q404.54688 73.770836 404.23438 73.583336Q403.92188 73.38021 403.5 73.38021Q402.82812 73.38021 402.32812 73.81771Q401.84375 74.239586 401.84375 75.427086L401.84375 78.833336L400.79688 78.833336ZM412.04688 76.833336L413.14062 76.958336Q412.89062 77.91146 412.1875 78.44271Q411.48438 78.97396 410.40625 78.97396Q409.04688 78.97396 408.23438 78.13021Q407.4375 77.28646 407.4375 75.770836Q407.4375 74.208336 408.25 73.34896Q409.0625 72.47396 410.34375 72.47396Q411.59375 72.47396 412.375 73.31771Q413.17188 74.16146 413.17188 75.708336Q413.17188 75.802086 413.17188 75.989586L408.53125 75.989586Q408.59375 77.020836 409.10938 77.56771Q409.625 78.09896 410.40625 78.09896Q410.98438 78.09896 411.39062 77.802086Q411.8125 77.489586 412.04688 76.833336ZM408.59375 75.13021L412.0625 75.13021Q412.0 74.333336 411.67188 73.94271Q411.15625 73.333336 410.35938 73.333336Q409.625 73.333336 409.125 73.81771Q408.64062 74.302086 408.59375 75.13021ZM418.04688 78.833336L418.04688 73.427086L417.10938 73.427086L417.10938 72.614586L418.04688 72.614586L418.04688 71.94271Q418.04688 71.31771 418.15625 71.020836Q418.3125 70.59896 418.6875 70.34896Q419.07812 70.09896 419.76562 70.09896Q420.21875 70.09896 420.75 70.208336L420.59375 71.114586Q420.26562 71.06771 419.96875 71.06771Q419.48438 71.06771 419.28125 71.270836Q419.09375 71.47396 419.09375 72.03646L419.09375 72.614586L420.3125 72.614586L420.3125 73.427086L419.09375 73.427086L419.09375 78.833336L418.04688 78.833336ZM420.40625 75.72396Q420.40625 73.989586 421.35938 73.16146Q422.15625 72.47396 423.3125 72.47396Q424.59375 72.47396 425.40625 73.31771Q426.23438 74.145836 426.23438 75.63021Q426.23438 76.833336 425.875 77.520836Q425.51562 78.208336 424.8125 78.59896Q424.125 78.97396 423.3125 78.97396Q422.01562 78.97396 421.20312 78.145836Q420.40625 77.302086 420.40625 75.72396ZM421.48438 75.72396Q421.48438 76.91146 422.0 77.50521Q422.53125 78.09896 423.3125 78.09896Q424.10938 78.09896 424.625 77.50521Q425.14062 76.91146 425.14062 75.69271Q425.14062 74.53646 424.60938 73.94271Q424.09375 73.34896 423.3125 73.34896Q422.53125 73.34896 422.0 73.94271Q421.48438 74.520836 421.48438 75.72396ZM427.78125 78.833336L427.78125 72.614586L428.73438 72.614586L428.73438 73.552086Q429.09375 72.895836 429.39062 72.69271Q429.70312 72.47396 430.07812 72.47396Q430.60938 72.47396 431.15625 72.802086L430.79688 73.78646Q430.40625 73.552086 430.03125 73.552086Q429.67188 73.552086 429.39062 73.770836Q429.125 73.97396 429.01562 74.34896Q428.82812 74.91146 428.82812 75.56771L428.82812 78.833336L427.78125 78.833336ZM434.375 76.97396L435.40625 76.81771Q435.5 77.44271 435.89062 77.770836Q436.29688 78.09896 437.03125 78.09896Q437.75 78.09896 438.09375 77.81771Q438.45312 77.520836 438.45312 77.114586Q438.45312 76.75521 438.14062 76.552086Q437.92188 76.41146 437.0625 76.19271Q435.90625 75.895836 435.45312 75.69271Q435.01562 75.47396 434.78125 75.09896Q434.54688 74.72396 434.54688 74.25521Q434.54688 73.84896 434.73438 73.489586Q434.92188 73.13021 435.25 72.895836Q435.5 72.72396 435.92188 72.59896Q436.34375 72.47396 436.84375 72.47396Q437.5625 72.47396 438.10938 72.69271Q438.67188 72.895836 438.9375 73.25521Q439.20312 73.614586 439.29688 74.208336L438.26562 74.34896Q438.20312 73.88021 437.85938 73.614586Q437.53125 73.333336 436.90625 73.333336Q436.1875 73.333336 435.875 73.583336Q435.5625 73.81771 435.5625 74.145836Q435.5625 74.34896 435.6875 74.50521Q435.82812 74.677086 436.09375 74.78646Q436.25 74.84896 437.03125 75.052086Q438.15625 75.364586 438.59375 75.552086Q439.03125 75.739586 439.28125 76.09896Q439.53125 76.458336 439.53125 77.00521Q439.53125 77.53646 439.21875 78.00521Q438.92188 78.458336 438.34375 78.72396Q437.76562 78.97396 437.03125 78.97396Q435.8125 78.97396 435.17188 78.47396Q434.54688 77.958336 434.375 76.97396ZM445.04688 76.833336L446.14062 76.958336Q445.89062 77.91146 445.1875 78.44271Q444.48438 78.97396 443.40625 78.97396Q442.04688 78.97396 441.23438 78.13021Q440.4375 77.28646 440.4375 75.770836Q440.4375 74.208336 441.25 73.34896Q442.0625 72.47396 443.34375 72.47396Q444.59375 72.47396 445.375 73.31771Q446.17188 74.16146 446.17188 75.708336Q446.17188 75.802086 446.17188 75.989586L441.53125 75.989586Q441.59375 77.020836 442.10938 77.56771Q442.625 78.09896 443.40625 78.09896Q443.98438 78.09896 444.39062 77.802086Q444.8125 77.489586 445.04688 76.833336ZM441.59375 75.13021L445.0625 75.13021Q445.0 74.333336 444.67188 73.94271Q444.15625 73.333336 443.35938 73.333336Q442.625 73.333336 442.125 73.81771Q441.64062 74.302086 441.59375 75.13021ZM447.78125 78.833336L447.78125 72.614586L448.73438 72.614586L448.73438 73.552086Q449.09375 72.895836 449.39062 72.69271Q449.70312 72.47396 450.07812 72.47396Q450.60938 72.47396 451.15625 72.802086L450.79688 73.78646Q450.40625 73.552086 450.03125 73.552086Q449.67188 73.552086 449.39062 73.770836Q449.125 73.97396 449.01562 74.34896Q448.82812 74.91146 448.82812 75.56771L448.82812 78.833336L447.78125 78.833336ZM451.79688 71.458336L451.79688 70.239586L452.85938 70.239586L452.85938 71.458336L451.79688 71.458336ZM451.79688 78.833336L451.79688 72.614586L452.85938 72.614586L452.85938 78.833336L451.79688 78.833336ZM459.04688 76.833336L460.14062 76.958336Q459.89062 77.91146 459.1875 78.44271Q458.48438 78.97396 457.40625 78.97396Q456.04688 78.97396 455.23438 78.13021Q454.4375 77.28646 454.4375 75.770836Q454.4375 74.208336 455.25 73.34896Q456.0625 72.47396 457.34375 72.47396Q458.59375 72.47396 459.375 73.31771Q460.17188 74.16146 460.17188 75.708336Q460.17188 75.802086 460.17188 75.989586L455.53125 75.989586Q455.59375 77.020836 456.10938 77.56771Q456.625 78.09896 457.40625 78.09896Q457.98438 78.09896 458.39062 77.802086Q458.8125 77.489586 459.04688 76.833336ZM455.59375 75.13021L459.0625 75.13021Q459.0 74.333336 458.67188 73.94271Q458.15625 73.333336 457.35938 73.333336Q456.625 73.333336 456.125 73.81771Q455.64062 74.302086 455.59375 75.13021ZM461.375 76.97396L462.40625 76.81771Q462.5 77.44271 462.89062 77.770836Q463.29688 78.09896 464.03125 78.09896Q464.75 78.09896 465.09375 77.81771Q465.45312 77.520836 465.45312 77.114586Q465.45312 76.75521 465.14062 76.552086Q464.92188 76.41146 464.0625 76.19271Q462.90625 75.895836 462.45312 75.69271Q462.01562 75.47396 461.78125 75.09896Q461.54688 74.72396 461.54688 74.25521Q461.54688 73.84896 461.73438 73.489586Q461.92188 73.13021 462.25 72.895836Q462.5 72.72396 462.92188 72.59896Q463.34375 72.47396 463.84375 72.47396Q464.5625 72.47396 465.10938 72.69271Q465.67188 72.895836 465.9375 73.25521Q466.20312 73.614586 466.29688 74.208336L465.26562 74.34896Q465.20312 73.88021 464.85938 73.614586Q464.53125 73.333336 463.90625 73.333336Q463.1875 73.333336 462.875 73.583336Q462.5625 73.81771 462.5625 74.145836Q462.5625 74.34896 462.6875 74.50521Q462.82812 74.677086 463.09375 74.78646Q463.25 74.84896 464.03125 75.052086Q465.15625 75.364586 465.59375 75.552086Q466.03125 75.739586 466.28125 76.09896Q466.53125 76.458336 466.53125 77.00521Q466.53125 77.53646 466.21875 78.00521Q465.92188 78.458336 465.34375 78.72396Q464.76562 78.97396 464.03125 78.97396Q462.8125 78.97396 462.17188 78.47396Q461.54688 77.958336 461.375 76.97396ZM474.46875 78.833336L473.42188 78.833336L473.42188 72.114586Q473.03125 72.47396 472.40625 72.84896Q471.79688 73.208336 471.3125 73.38021L471.3125 72.364586Q472.1875 71.94271 472.84375 71.364586Q473.51562 70.770836 473.79688 70.208336L474.46875 70.208336L474.46875 78.833336ZM480.9375 78.833336L480.9375 70.239586L484.75 70.239586Q485.90625 70.239586 486.5 70.47396Q487.09375 70.708336 487.45312 71.302086Q487.8125 71.88021 487.8125 72.583336Q487.8125 73.50521 487.21875 74.13021Q486.625 74.75521 485.39062 74.927086Q485.84375 75.145836 486.07812 75.34896Q486.57812 75.802086 487.01562 76.489586L488.51562 78.833336L487.07812 78.833336L485.95312 77.052086Q485.45312 76.270836 485.125 75.864586Q484.8125 75.458336 484.54688 75.302086Q484.29688 75.13021 484.03125 75.052086Q483.84375 75.020836 483.40625 75.020836L482.07812 75.020836L482.07812 78.833336L480.9375 78.833336ZM482.07812 74.03646L484.53125 74.03646Q485.29688 74.03646 485.73438 73.88021Q486.1875 73.708336 486.40625 73.364586Q486.64062 73.00521 486.64062 72.583336Q486.64062 71.97396 486.1875 71.583336Q485.75 71.19271 484.79688 71.19271L482.07812 71.19271L482.07812 74.03646ZM489.14062 74.53646Q489.1875 74.208336 489.42188 73.864586Q489.79688 73.364586 490.64062 72.75521Q491.48438 72.145836 491.64062 71.958336Q491.85938 71.72396 491.85938 71.47396Q491.85938 71.19271 491.64062 71.020836Q491.4375 70.833336 491.04688 70.833336Q490.65625 70.833336 490.46875 70.97396Q490.28125 71.09896 490.15625 71.489586L489.26562 71.395836Q489.4375 70.75521 489.85938 70.44271Q490.28125 70.13021 491.0625 70.13021Q491.95312 70.13021 492.35938 70.489586Q492.78125 70.833336 492.78125 71.333336Q492.78125 71.81771 492.42188 72.25521Q492.17188 72.583336 491.23438 73.25521Q490.73438 73.614586 490.53125 73.833336L492.79688 73.833336L492.79688 74.53646L489.14062 74.53646ZM502.34375 73.78646L496.67188 73.78646L496.67188 72.802086L502.34375 72.802086L502.34375 73.78646ZM502.34375 76.395836L496.67188 76.395836L496.67188 75.41146L502.34375 75.41146L502.34375 76.395836ZM506.5 74.59896Q506.5 73.06771 506.8125 72.145836Q507.125 71.208336 507.73438 70.708336Q508.35938 70.208336 509.29688 70.208336Q509.98438 70.208336 510.5 70.489586Q511.03125 70.770836 511.375 71.302086Q511.71875 71.81771 511.90625 72.56771Q512.09375 73.31771 512.09375 74.59896Q512.09375 76.114586 511.78125 77.03646Q511.48438 77.958336 510.85938 78.47396Q510.25 78.97396 509.29688 78.97396Q508.0625 78.97396 507.34375 78.083336Q506.5 77.020836 506.5 74.59896ZM507.57812 74.59896Q507.57812 76.708336 508.07812 77.41146Q508.57812 78.114586 509.29688 78.114586Q510.03125 78.114586 510.51562 77.41146Q511.01562 76.708336 511.01562 74.59896Q511.01562 72.47396 510.51562 71.78646Q510.03125 71.083336 509.28125 71.083336Q508.5625 71.083336 508.125 71.69271Q507.57812 72.47396 507.57812 74.59896ZM514.09375 78.833336L514.09375 77.63021L515.2969 77.63021L515.2969 78.833336L514.09375 78.833336ZM516.65625 76.84896L517.6719 76.75521Q517.7969 77.47396 518.15625 77.802086Q518.53125 78.114586 519.09375 78.114586Q519.5781 78.114586 519.9375 77.895836Q520.3125 77.66146 520.5469 77.302086Q520.78125 76.927086 520.9375 76.302086Q521.09375 75.66146 521.09375 75.00521Q521.09375 74.927086 521.09375 74.78646Q520.78125 75.28646 520.2344 75.614586Q519.6875 75.927086 519.0469 75.927086Q517.96875 75.927086 517.2344 75.16146Q516.5 74.38021 516.5 73.114586Q516.5 71.802086 517.2656 71.00521Q518.0469 70.208336 519.2031 70.208336Q520.03125 70.208336 520.71875 70.66146Q521.4219 71.114586 521.78125 71.958336Q522.1406 72.78646 522.1406 74.364586Q522.1406 76.00521 521.78125 76.989586Q521.4375 77.958336 520.71875 78.47396Q520.0156 78.97396 519.0781 78.97396Q518.0625 78.97396 517.4219 78.427086Q516.78125 77.864586 516.65625 76.84896ZM520.96875 73.052086Q520.96875 72.145836 520.4844 71.614586Q520.0156 71.083336 519.3281 71.083336Q518.625 71.083336 518.09375 71.66146Q517.5781 72.22396 517.5781 73.145836Q517.5781 73.958336 518.0781 74.47396Q518.5781 74.989586 519.2969 74.989586Q520.03125 74.989586 520.5 74.47396Q520.96875 73.958336 520.96875 73.052086ZM525.125 74.177086Q524.46875 73.927086 524.1406 73.489586Q523.8281 73.03646 523.8281 72.427086Q523.8281 71.489586 524.5 70.84896Q525.1875 70.208336 526.2969 70.208336Q527.4219 70.208336 528.1094 70.864586Q528.7969 71.520836 528.7969 72.458336Q528.7969 73.052086 528.4844 73.489586Q528.1719 73.927086 527.53125 74.177086Q528.3281 74.427086 528.7344 75.00521Q529.1406 75.583336 529.1406 76.38021Q529.1406 77.47396 528.3594 78.22396Q527.59375 78.97396 526.3125 78.97396Q525.0469 78.97396 524.2656 78.22396Q523.4844 77.47396 523.4844 76.34896Q523.4844 75.50521 523.90625 74.94271Q524.34375 74.38021 525.125 74.177086ZM524.90625 72.38021Q524.90625 72.989586 525.2969 73.38021Q525.7031 73.770836 526.3281 73.770836Q526.9375 73.770836 527.3281 73.395836Q527.71875 73.00521 527.71875 72.44271Q527.71875 71.864586 527.3125 71.47396Q526.90625 71.06771 526.3125 71.06771Q525.7031 71.06771 525.2969 71.458336Q524.90625 71.84896 524.90625 72.38021ZM524.5781 76.34896Q524.5781 76.802086 524.78125 77.22396Q525.0 77.645836 525.4219 77.88021Q525.84375 78.114586 526.3281 78.114586Q527.0781 78.114586 527.5625 77.63021Q528.0625 77.145836 528.0625 76.395836Q528.0625 75.63021 527.5625 75.13021Q527.0625 74.63021 526.2969 74.63021Q525.5469 74.63021 525.0625 75.13021Q524.5781 75.614586 524.5781 76.34896ZM530.5 76.583336L531.6094 76.489586Q531.7344 77.302086 532.1719 77.708336Q532.625 78.114586 533.2656 78.114586Q534.0156 78.114586 534.5469 77.53646Q535.0781 76.958336 535.0781 76.020836Q535.0781 75.114586 534.5625 74.59896Q534.0625 74.06771 533.2344 74.06771Q532.7344 74.06771 532.3125 74.302086Q531.90625 74.53646 531.6719 74.895836L530.6875 74.770836L531.5156 70.364586L535.7969 70.364586L535.7969 71.364586L532.3594 71.364586L531.90625 73.677086Q532.6719 73.13021 533.5156 73.13021Q534.6406 73.13021 535.40625 73.91146Q536.1875 74.69271 536.1875 75.927086Q536.1875 77.083336 535.5156 77.94271Q534.6875 78.97396 533.2656 78.97396Q532.09375 78.97396 531.34375 78.31771Q530.6094 77.66146 530.5 76.583336Z" fill-rule="nonzero"/><path fill="#757575" d="M30.346874 45.3L26.55 30.9875L28.4875 30.9875L30.659374 40.3625Q31.01875 41.846874 31.26875 43.3Q31.815624 41.003124 31.909374 40.64375L34.64375 30.9875L36.925 30.9875L38.971874 38.221874Q39.753124 40.925 40.096874 43.3Q40.3625 41.940624 40.8 40.175L43.05 30.9875L44.95625 30.9875L41.034374 45.3L39.20625 45.3L36.190624 34.39375Q35.8 33.01875 35.7375 32.70625Q35.503124 33.690624 35.315624 34.39375L32.284374 45.3L30.346874 45.3ZM45.971874 40.1125Q45.971874 37.2375 47.565624 35.846874Q48.909374 34.690624 50.83125 34.690624Q52.971874 34.690624 54.315624 36.096874Q55.675 37.503124 55.675 39.971874Q55.675 41.971874 55.08125 43.128124Q54.4875 44.26875 53.33125 44.909374Q52.190624 45.534374 50.83125 45.534374Q48.64375 45.534374 47.3 44.14375Q45.971874 42.7375 45.971874 40.1125ZM47.76875 40.1125Q47.76875 42.1125 48.628124 43.096874Q49.503124 44.08125 50.83125 44.08125Q52.14375 44.08125 53.003124 43.096874Q53.878124 42.096874 53.878124 40.05Q53.878124 38.128124 53.003124 37.14375Q52.128124 36.14375 50.83125 36.14375Q49.503124 36.14375 48.628124 37.14375Q47.76875 38.128124 47.76875 40.1125ZM57.596874 45.3L57.596874 34.925L59.175 34.925L59.175 36.503124Q59.784374 35.39375 60.3 35.05Q60.815624 34.690624 61.425 34.690624Q62.315624 34.690624 63.2375 35.253124L62.628124 36.89375Q61.9875 36.503124 61.346874 36.503124Q60.76875 36.503124 60.3 36.8625Q59.846874 37.20625 59.64375 37.815624Q59.3625 38.753124 59.3625 39.8625L59.3625 45.3L57.596874 45.3ZM63.909374 42.20625L65.65938 41.925Q65.8 42.971874 66.47188 43.534374Q67.14375 44.08125 68.34688 44.08125Q69.55 44.08125 70.12813 43.596874Q70.72188 43.096874 70.72188 42.440624Q70.72188 41.846874 70.20625 41.503124Q69.84688 41.26875 68.40938 40.909374Q66.47188 40.409374 65.72188 40.065624Q64.9875 39.70625 64.59688 39.08125Q64.20625 38.440624 64.20625 37.675Q64.20625 36.9875 64.51875 36.39375Q64.84688 35.8 65.39375 35.409374Q65.8 35.1125 66.50313 34.909374Q67.22188 34.690624 68.03438 34.690624Q69.25313 34.690624 70.175 35.05Q71.09688 35.39375 71.53438 36.003124Q71.97188 36.596874 72.14375 37.596874L70.425 37.83125Q70.3 37.034374 69.7375 36.596874Q69.175 36.14375 68.15938 36.14375Q66.94063 36.14375 66.425 36.55Q65.90938 36.940624 65.90938 37.471874Q65.90938 37.815624 66.12813 38.096874Q66.33125 38.378124 66.8 38.565624Q67.06563 38.659374 68.34688 39.003124Q70.22188 39.503124 70.95625 39.83125Q71.69063 40.14375 72.1125 40.753124Q72.53438 41.346874 72.53438 42.253124Q72.53438 43.128124 72.01875 43.909374Q71.50313 44.690624 70.53438 45.1125Q69.56563 45.534374 68.34688 45.534374Q66.33125 45.534374 65.26875 44.690624Q64.20625 43.846874 63.909374 42.20625ZM78.45625 43.721874L78.70625 45.284374Q77.97188 45.440624 77.37813 45.440624Q76.425 45.440624 75.89375 45.14375Q75.37813 44.83125 75.15938 44.346874Q74.94063 43.846874 74.94063 42.26875L74.94063 36.3L73.65938 36.3L73.65938 34.925L74.94063 34.925L74.94063 32.3625L76.69063 31.3L76.69063 34.925L78.45625 34.925L78.45625 36.3L76.69063 36.3L76.69063 42.3625Q76.69063 43.1125 76.78438 43.33125Q76.87813 43.534374 77.08125 43.675Q77.3 43.8 77.69063 43.8Q77.97188 43.8 78.45625 43.721874ZM79.94063 41.003124L79.94063 39.2375L85.33125 39.2375L85.33125 41.003124L79.94063 41.003124ZM94.39375 41.503124L96.1125 41.721874Q95.83125 43.51875 94.65938 44.534374Q93.50313 45.534374 91.8 45.534374Q89.675 45.534374 88.37813 44.14375Q87.08125 42.753124 87.08125 40.159374Q87.08125 38.471874 87.62813 37.221874Q88.19063 35.95625 89.33125 35.33125Q90.47188 34.690624 91.81563 34.690624Q93.50313 34.690624 94.56563 35.55Q95.64375 36.409374 95.95625 37.971874L94.2375 38.2375Q94.00313 37.190624 93.37813 36.675Q92.75313 36.14375 91.87813 36.14375Q90.55 36.14375 89.72188 37.096874Q88.89375 38.05 88.89375 40.096874Q88.89375 42.190624 89.69063 43.14375Q90.4875 44.08125 91.78438 44.08125Q92.81563 44.08125 93.50313 43.45625Q94.20625 42.815624 94.39375 41.503124ZM104.39375 44.01875Q103.40938 44.846874 102.50313 45.190624Q101.59688 45.534374 100.56563 45.534374Q98.8625 45.534374 97.94063 44.70625Q97.01875 43.8625 97.01875 42.565624Q97.01875 41.8 97.3625 41.175Q97.72188 40.55 98.28438 40.175Q98.84688 39.784374 99.55 39.58125Q100.06563 39.45625 101.1125 39.315624Q103.2375 39.065624 104.2375 38.721874Q104.25313 38.3625 104.25313 38.253124Q104.25313 37.190624 103.75313 36.7375Q103.08125 36.14375 101.75313 36.14375Q100.50313 36.14375 99.90938 36.58125Q99.33125 37.01875 99.05 38.128124L97.33125 37.89375Q97.56563 36.784374 98.09688 36.1125Q98.62813 35.425 99.64375 35.065624Q100.65938 34.690624 102.00313 34.690624Q103.33125 34.690624 104.15938 35.003124Q104.9875 35.315624 105.37813 35.8Q105.76875 36.26875 105.925 36.9875Q106.01875 37.440624 106.01875 38.6125L106.01875 40.95625Q106.01875 43.409374 106.12813 44.065624Q106.2375 44.70625 106.58125 45.3L104.7375 45.3Q104.47188 44.753124 104.39375 44.01875ZM104.2375 40.096874Q103.28438 40.4875 101.3625 40.753124Q100.28438 40.909374 99.83125 41.1125Q99.39375 41.3 99.14375 41.675Q98.89375 42.05 98.89375 42.51875Q98.89375 43.221874 99.425 43.690624Q99.95625 44.159374 100.9875 44.159374Q102.00313 44.159374 102.78438 43.721874Q103.58125 43.26875 103.95625 42.503124Q104.2375 41.89375 104.2375 40.7375L104.2375 40.096874ZM107.90938 42.20625L109.65938 41.925Q109.8 42.971874 110.47188 43.534374Q111.14375 44.08125 112.34688 44.08125Q113.55 44.08125 114.12813 43.596874Q114.72188 43.096874 114.72188 42.440624Q114.72188 41.846874 114.20625 41.503124Q113.84688 41.26875 112.40938 40.909374Q110.47188 40.409374 109.72188 40.065624Q108.9875 39.70625 108.59688 39.08125Q108.20625 38.440624 108.20625 37.675Q108.20625 36.9875 108.51875 36.39375Q108.84688 35.8 109.39375 35.409374Q109.8 35.1125 110.50313 34.909374Q111.22188 34.690624 112.03438 34.690624Q113.25313 34.690624 114.175 35.05Q115.09688 35.39375 115.53438 36.003124Q115.97188 36.596874 116.14375 37.596874L114.425 37.83125Q114.3 37.034374 113.7375 36.596874Q113.175 36.14375 112.15938 36.14375Q110.94063 36.14375 110.425 36.55Q109.90938 36.940624 109.90938 37.471874Q109.90938 37.815624 110.12813 38.096874Q110.33125 38.378124 110.8 38.565624Q111.06563 38.659374 112.34688 39.003124Q114.22188 39.503124 114.95625 39.83125Q115.69063 40.14375 116.1125 40.753124Q116.53438 41.346874 116.53438 42.253124Q116.53438 43.128124 116.01875 43.909374Q115.50313 44.690624 114.53438 45.1125Q113.56563 45.534374 112.34688 45.534374Q110.33125 45.534374 109.26875 44.690624Q108.20625 43.846874 107.90938 42.20625ZM125.72188 41.95625L127.53438 42.190624Q127.1125 43.76875 125.94063 44.659374Q124.78438 45.534374 122.97188 45.534374Q120.70625 45.534374 119.3625 44.14375Q118.03438 42.7375 118.03438 40.20625Q118.03438 37.58125 119.37813 36.14375Q120.72188 34.690624 122.87813 34.690624Q124.95625 34.690624 126.26875 36.1125Q127.59688 37.51875 127.59688 40.096874Q127.59688 40.253124 127.58125 40.565624L119.84688 40.565624Q119.94063 42.26875 120.81563 43.175Q121.69063 44.08125 122.9875 44.08125Q123.95625 44.08125 124.62813 43.58125Q125.31563 43.065624 125.72188 41.95625ZM119.94063 39.1125L125.7375 39.1125Q125.62813 37.815624 125.08125 37.159374Q124.2375 36.14375 122.89375 36.14375Q121.69063 36.14375 120.8625 36.95625Q120.03438 37.753124 119.94063 39.1125ZM142.55 39.690624L142.55 38.003124L148.6125 37.9875L148.6125 43.3Q147.20625 44.425 145.72188 44.9875Q144.2375 45.55 142.675 45.55Q140.56563 45.55 138.84688 44.64375Q137.12813 43.7375 136.2375 42.034374Q135.3625 40.315624 135.3625 38.20625Q135.3625 36.1125 136.2375 34.315624Q137.1125 32.503124 138.75313 31.628124Q140.39375 30.7375 142.53438 30.7375Q144.08125 30.7375 145.33125 31.2375Q146.59688 31.7375 147.3 32.64375Q148.01875 33.534374 148.39375 34.9875L146.69063 35.45625Q146.3625 34.3625 145.87813 33.7375Q145.40938 33.1125 144.51875 32.7375Q143.62813 32.3625 142.55 32.3625Q141.2375 32.3625 140.28438 32.753124Q139.34688 33.14375 138.76875 33.8Q138.19063 34.440624 137.8625 35.20625Q137.31563 36.534374 137.31563 38.096874Q137.31563 40.003124 137.97188 41.3Q138.64375 42.58125 139.89375 43.20625Q141.15938 43.83125 142.56563 43.83125Q143.8 43.83125 144.97188 43.3625Q146.14375 42.89375 146.75313 42.346874L146.75313 39.690624L142.55 39.690624ZM151.59688 45.3L151.59688 34.925L153.175 34.925L153.175 36.503124Q153.78438 35.39375 154.3 35.05Q154.81563 34.690624 155.425 34.690624Q156.31563 34.690624 157.2375 35.253124L156.62813 36.89375Q155.9875 36.503124 155.34688 36.503124Q154.76875 36.503124 154.3 36.8625Q153.84688 37.20625 153.64375 37.815624Q153.3625 38.753124 153.3625 39.8625L153.3625 45.3L151.59688 45.3ZM165.39375 44.01875Q164.40938 44.846874 163.50313 45.190624Q162.59688 45.534374 161.56563 45.534374Q159.8625 45.534374 158.94063 44.70625Q158.01875 43.8625 158.01875 42.565624Q158.01875 41.8 158.3625 41.175Q158.72188 40.55 159.28438 40.175Q159.84688 39.784374 160.55 39.58125Q161.06563 39.45625 162.1125 39.315624Q164.2375 39.065624 165.2375 38.721874Q165.25313 38.3625 165.25313 38.253124Q165.25313 37.190624 164.75313 36.7375Q164.08125 36.14375 162.75313 36.14375Q161.50313 36.14375 160.90938 36.58125Q160.33125 37.01875 160.05 38.128124L158.33125 37.89375Q158.56563 36.784374 159.09688 36.1125Q159.62813 35.425 160.64375 35.065624Q161.65938 34.690624 163.00313 34.690624Q164.33125 34.690624 165.15938 35.003124Q165.9875 35.315624 166.37813 35.8Q166.76875 36.26875 166.925 36.9875Q167.01875 37.440624 167.01875 38.6125L167.01875 40.95625Q167.01875 43.409374 167.12813 44.065624Q167.2375 44.70625 167.58125 45.3L165.7375 45.3Q165.47188 44.753124 165.39375 44.01875ZM165.2375 40.096874Q164.28438 40.4875 162.3625 40.753124Q161.28438 40.909374 160.83125 41.1125Q160.39375 41.3 160.14375 41.675Q159.89375 42.05 159.89375 42.51875Q159.89375 43.221874 160.425 43.690624Q160.95625 44.159374 161.9875 44.159374Q163.00313 44.159374 163.78438 43.721874Q164.58125 43.26875 164.95625 42.503124Q165.2375 41.89375 165.2375 40.7375L165.2375 40.096874ZM169.6125 49.26875L169.6125 34.925L171.22188 34.925L171.22188 36.26875Q171.78438 35.4875 172.4875 35.096874Q173.20625 34.690624 174.22188 34.690624Q175.55 34.690624 176.56563 35.378124Q177.58125 36.065624 178.09688 37.315624Q178.62813 38.55 178.62813 40.034374Q178.62813 41.628124 178.05 42.909374Q177.4875 44.175 176.39375 44.8625Q175.3 45.534374 174.09688 45.534374Q173.22188 45.534374 172.51875 45.159374Q171.83125 44.784374 171.37813 44.221874L171.37813 49.26875L169.6125 49.26875ZM171.20625 40.175Q171.20625 42.175 172.01875 43.128124Q172.83125 44.08125 173.9875 44.08125Q175.15938 44.08125 175.9875 43.096874Q176.83125 42.1125 176.83125 40.01875Q176.83125 38.05 176.00313 37.065624Q175.19063 36.065624 174.06563 36.065624Q172.94063 36.065624 172.06563 37.128124Q171.20625 38.175 171.20625 40.175ZM180.6125 45.3L180.6125 30.9875L182.37813 30.9875L182.37813 36.1125Q183.6125 34.690624 185.4875 34.690624Q186.62813 34.690624 187.47188 35.14375Q188.33125 35.596874 188.69063 36.409374Q189.06563 37.20625 189.06563 38.721874L189.06563 45.3L187.31563 45.3L187.31563 38.721874Q187.31563 37.409374 186.7375 36.815624Q186.15938 36.20625 185.12813 36.20625Q184.34688 36.20625 183.64375 36.6125Q182.95625 37.01875 182.65938 37.721874Q182.37813 38.409374 182.37813 39.628124L182.37813 45.3L180.6125 45.3ZM208.06563 40.284374L209.95625 40.753124Q209.3625 43.096874 207.81563 44.33125Q206.26875 45.55 204.01875 45.55Q201.70625 45.55 200.25313 44.6125Q198.81563 43.659374 198.05 41.878124Q197.3 40.08125 197.3 38.034374Q197.3 35.8 198.14375 34.14375Q199.00313 32.471874 200.58125 31.6125Q202.15938 30.7375 204.05 30.7375Q206.20625 30.7375 207.65938 31.83125Q209.12813 32.925 209.70625 34.909374L207.84688 35.346874Q207.34688 33.784374 206.39375 33.08125Q205.45625 32.3625 204.01875 32.3625Q202.3625 32.3625 201.25313 33.159374Q200.14375 33.940624 199.69063 35.284374Q199.25313 36.6125 199.25313 38.01875Q199.25313 39.846874 199.78438 41.221874Q200.31563 42.58125 201.44063 43.253124Q202.56563 43.925 203.8625 43.925Q205.45625 43.925 206.56563 43.003124Q207.675 42.08125 208.06563 40.284374ZM210.97188 40.1125Q210.97188 37.2375 212.56563 35.846874Q213.90938 34.690624 215.83125 34.690624Q217.97188 34.690624 219.31563 36.096874Q220.675 37.503124 220.675 39.971874Q220.675 41.971874 220.08125 43.128124Q219.4875 44.26875 218.33125 44.909374Q217.19063 45.534374 215.83125 45.534374Q213.64375 45.534374 212.3 44.14375Q210.97188 42.7375 210.97188 40.1125ZM212.76875 40.1125Q212.76875 42.1125 213.62813 43.096874Q214.50313 44.08125 215.83125 44.08125Q217.14375 44.08125 218.00313 43.096874Q218.87813 42.096874 218.87813 40.05Q218.87813 38.128124 218.00313 37.14375Q217.12813 36.14375 215.83125 36.14375Q214.50313 36.14375 213.62813 37.14375Q212.76875 38.128124 212.76875 40.1125ZM222.6125 45.3L222.6125 34.925L224.20625 34.925L224.20625 36.409374Q225.34688 34.690624 227.50313 34.690624Q228.44063 34.690624 229.22188 35.034374Q230.01875 35.3625 230.40938 35.909374Q230.8 36.45625 230.95625 37.20625Q231.05 37.70625 231.05 38.925L231.05 45.3L229.28438 45.3L229.28438 38.9875Q229.28438 37.909374 229.08125 37.378124Q228.87813 36.846874 228.34688 36.534374Q227.83125 36.221874 227.12813 36.221874Q226.00313 36.221874 225.19063 36.940624Q224.37813 37.64375 224.37813 39.628124L224.37813 45.3L222.6125 45.3ZM232.90938 42.20625L234.65938 41.925Q234.8 42.971874 235.47188 43.534374Q236.14375 44.08125 237.34688 44.08125Q238.55 44.08125 239.12813 43.596874Q239.72188 43.096874 239.72188 42.440624Q239.72188 41.846874 239.20625 41.503124Q238.84688 41.26875 237.40938 40.909374Q235.47188 40.409374 234.72188 40.065624Q233.9875 39.70625 233.59688 39.08125Q233.20625 38.440624 233.20625 37.675Q233.20625 36.9875 233.51875 36.39375Q233.84688 35.8 234.39375 35.409374Q234.8 35.1125 235.50313 34.909374Q236.22188 34.690624 237.03438 34.690624Q238.25313 34.690624 239.175 35.05Q240.09688 35.39375 240.53438 36.003124Q240.97188 36.596874 241.14375 37.596874L239.425 37.83125Q239.3 37.034374 238.7375 36.596874Q238.175 36.14375 237.15938 36.14375Q235.94063 36.14375 235.425 36.55Q234.90938 36.940624 234.90938 37.471874Q234.90938 37.815624 235.12813 38.096874Q235.33125 38.378124 235.8 38.565624Q236.06563 38.659374 237.34688 39.003124Q239.22188 39.503124 239.95625 39.83125Q240.69063 40.14375 241.1125 40.753124Q241.53438 41.346874 241.53438 42.253124Q241.53438 43.128124 241.01875 43.909374Q240.50313 44.690624 239.53438 45.1125Q238.56563 45.534374 237.34688 45.534374Q235.33125 45.534374 234.26875 44.690624Q233.20625 43.846874 232.90938 42.20625ZM247.45625 43.721874L247.70625 45.284374Q246.97188 45.440624 246.37813 45.440624Q245.425 45.440624 244.89375 45.14375Q244.37813 44.83125 244.15938 44.346874Q243.94063 43.846874 243.94063 42.26875L243.94063 36.3L242.65938 36.3L242.65938 34.925L243.94063 34.925L243.94063 32.3625L245.69063 31.3L245.69063 34.925L247.45625 34.925L247.45625 36.3L245.69063 36.3L245.69063 42.3625Q245.69063 43.1125 245.78438 43.33125Q245.87813 43.534374 246.08125 43.675Q246.3 43.8 246.69063 43.8Q246.97188 43.8 247.45625 43.721874ZM249.59688 45.3L249.59688 34.925L251.175 34.925L251.175 36.503124Q251.78438 35.39375 252.3 35.05Q252.81563 34.690624 253.425 34.690624Q254.31563 34.690624 255.2375 35.253124L254.62813 36.89375Q253.9875 36.503124 253.34688 36.503124Q252.76875 36.503124 252.3 36.8625Q251.84688 37.20625 251.64375 37.815624Q251.3625 38.753124 251.3625 39.8625L251.3625 45.3L249.59688 45.3ZM263.40936 45.3L263.40936 43.76875Q262.20624 45.534374 260.1281 45.534374Q259.20624 45.534374 258.40936 45.190624Q257.6125 44.83125 257.22186 44.3Q256.84686 43.76875 256.6906 42.9875Q256.58124 42.471874 256.58124 41.346874L256.58124 34.925L258.33124 34.925L258.33124 40.675Q258.33124 42.05 258.4406 42.534374Q258.6125 43.221874 259.14374 43.628124Q259.6906 44.01875 260.47186 44.01875Q261.26874 44.01875 261.95624 43.6125Q262.65936 43.20625 262.9406 42.51875Q263.2375 41.815624 263.2375 40.4875L263.2375 34.925L264.9875 34.925L264.9875 45.3L263.40936 45.3ZM274.39374 41.503124L276.1125 41.721874Q275.83124 43.51875 274.65936 44.534374Q273.5031 45.534374 271.8 45.534374Q269.675 45.534374 268.3781 44.14375Q267.08124 42.753124 267.08124 40.159374Q267.08124 38.471874 267.6281 37.221874Q268.1906 35.95625 269.33124 35.33125Q270.47186 34.690624 271.8156 34.690624Q273.5031 34.690624 274.5656 35.55Q275.64374 36.409374 275.95624 37.971874L274.2375 38.2375Q274.0031 37.190624 273.3781 36.675Q272.7531 36.14375 271.8781 36.14375Q270.55 36.14375 269.72186 37.096874Q268.89374 38.05 268.89374 40.096874Q268.89374 42.190624 269.6906 43.14375Q270.4875 44.08125 271.78436 44.08125Q272.8156 44.08125 273.5031 43.45625Q274.20624 42.815624 274.39374 41.503124ZM281.45624 43.721874L281.70624 45.284374Q280.97186 45.440624 280.3781 45.440624Q279.425 45.440624 278.89374 45.14375Q278.3781 44.83125 278.15936 44.346874Q277.9406 43.846874 277.9406 42.26875L277.9406 36.3L276.65936 36.3L276.65936 34.925L277.9406 34.925L277.9406 32.3625L279.6906 31.3L279.6906 34.925L281.45624 34.925L281.45624 36.3L279.6906 36.3L279.6906 42.3625Q279.6906 43.1125 279.78436 43.33125Q279.8781 43.534374 280.08124 43.675Q280.3 43.8 280.6906 43.8Q280.97186 43.8 281.45624 43.721874ZM283.6281 33.003124L283.6281 30.9875L285.39374 30.9875L285.39374 33.003124L283.6281 33.003124ZM283.6281 45.3L283.6281 34.925L285.39374 34.925L285.39374 45.3L283.6281 45.3ZM286.97186 40.1125Q286.97186 37.2375 288.5656 35.846874Q289.90936 34.690624 291.83124 34.690624Q293.97186 34.690624 295.3156 36.096874Q296.675 37.503124 296.675 39.971874Q296.675 41.971874 296.08124 43.128124Q295.4875 44.26875 294.33124 44.909374Q293.1906 45.534374 291.83124 45.534374Q289.64374 45.534374 288.3 44.14375Q286.97186 42.7375 286.97186 40.1125ZM288.76874 40.1125Q288.76874 42.1125 289.6281 43.096874Q290.5031 44.08125 291.83124 44.08125Q293.14374 44.08125 294.0031 43.096874Q294.8781 42.096874 294.8781 40.05Q294.8781 38.128124 294.0031 37.14375Q293.1281 36.14375 291.83124 36.14375Q290.5031 36.14375 289.6281 37.14375Q288.76874 38.128124 288.76874 40.1125ZM298.6125 45.3L298.6125 34.925L300.20624 34.925L300.20624 36.409374Q301.34686 34.690624 303.5031 34.690624Q304.4406 34.690624 305.22186 35.034374Q306.01874 35.3625 306.40936 35.909374Q306.8 36.45625 306.95624 37.20625Q307.05 37.70625 307.05 38.925L307.05 45.3L305.28436 45.3L305.28436 38.9875Q305.28436 37.909374 305.08124 37.378124Q304.8781 36.846874 304.34686 36.534374Q303.83124 36.221874 303.1281 36.221874Q302.0031 36.221874 301.1906 36.940624Q300.3781 37.64375 300.3781 39.628124L300.3781 45.3L298.6125 45.3ZM319.4875 45.3L319.4875 32.675L314.76874 32.675L314.76874 30.9875L326.1125 30.9875L326.1125 32.675L321.3781 32.675L321.3781 45.3L319.4875 45.3ZM327.6281 33.003124L327.6281 30.9875L329.39374 30.9875L329.39374 33.003124L327.6281 33.003124ZM327.6281 45.3L327.6281 34.925L329.39374 34.925L329.39374 45.3L327.6281 45.3ZM331.6125 45.3L331.6125 34.925L333.1906 34.925L333.1906 36.378124Q333.675 35.628124 334.4875 35.159374Q335.3 34.690624 336.33124 34.690624Q337.4875 34.690624 338.22186 35.175Q338.95624 35.64375 339.26874 36.503124Q340.5031 34.690624 342.47186 34.690624Q344.01874 34.690624 344.84686 35.55Q345.675 36.409374 345.675 38.175L345.675 45.3L343.925 45.3L343.925 38.76875Q343.925 37.70625 343.7531 37.253124Q343.58124 36.784374 343.1281 36.503124Q342.6906 36.221874 342.08124 36.221874Q340.9875 36.221874 340.2531 36.95625Q339.53436 37.675 339.53436 39.26875L339.53436 45.3L337.78436 45.3L337.78436 38.565624Q337.78436 37.39375 337.34686 36.815624Q336.925 36.221874 335.9406 36.221874Q335.20624 36.221874 334.5656 36.6125Q333.9406 37.003124 333.65936 37.753124Q333.3781 38.503124 333.3781 39.925L333.3781 45.3L331.6125 45.3ZM355.72186 41.95625L357.53436 42.190624Q357.1125 43.76875 355.9406 44.659374Q354.78436 45.534374 352.97186 45.534374Q350.70624 45.534374 349.3625 44.14375Q348.03436 42.7375 348.03436 40.20625Q348.03436 37.58125 349.3781 36.14375Q350.72186 34.690624 352.8781 34.690624Q354.95624 34.690624 356.26874 36.1125Q357.59686 37.51875 357.59686 40.096874Q357.59686 40.253124 357.58124 40.565624L349.84686 40.565624Q349.9406 42.26875 350.8156 43.175Q351.6906 44.08125 352.9875 44.08125Q353.95624 44.08125 354.6281 43.58125Q355.3156 43.065624 355.72186 41.95625ZM349.9406 39.1125L355.7375 39.1125Q355.6281 37.815624 355.08124 37.159374Q354.2375 36.14375 352.89374 36.14375Q351.6906 36.14375 350.8625 36.95625Q350.03436 37.753124 349.9406 39.1125Z" fill-rule="nonzero"/></svg>